<svg width="681" height="703" viewBox="0 0 681 703" fill="none" xmlns="http://www.w3.org/2000/svg">
<path opacity="0.2" d="M774.596 537.336C753.504 523.776 743.345 507.671 736.754 483.605C729.471 457.031 718.357 424.112 692.458 410.791C669.636 399.056 642.842 396.713 619.376 403.508C589.585 412.138 573.191 434.559 561.457 463.056C545.349 502.178 496.895 485.786 455.535 495.782C419.399 504.516 388.69 551.304 352.634 564.108C327.771 572.941 297.52 598.215 305.704 629.798C307.852 638.084 312.353 645.894 313.038 654.35C314.627 673.922 295.645 682.66 282.852 691.715C269.011 701.51 257.861 717.713 252.115 734.111C248.29 745.012 247.26 757.468 251.226 768.811C255.88 782.139 268.361 793.121 282.109 793.35C302.439 793.688 317.301 781.332 333.946 801.014C351.694 822 362.909 846.796 383.258 866.154C435.177 915.548 506.371 903.863 554.404 861.847C592.092 828.882 612.489 779.21 652.401 748.467C668.785 735.853 688.699 726.8 709.849 726.091C730.07 725.415 751.067 732.859 770.871 727.875C783.003 724.824 793.317 717.24 803.123 709.527C820.562 695.801 838.236 679.699 843.191 657.197C846.756 641.001 843.15 623.565 837.8 607.323C825.917 571.287 804.587 556.616 774.596 537.336Z" fill="#FEF4E1"/>
<path opacity="0.7" fill-rule="evenodd" clip-rule="evenodd" d="M621.885 25.6647C660.482 28.83 689.325 65.5099 707.895 99.5772C724.635 130.288 732.947 170.015 717.786 201.6C703.646 231.06 650.045 220.868 635.606 250.182C617.512 286.913 660.942 338.486 634.834 370.001C611.386 398.304 560.066 397.829 528.028 380.035C496.405 362.472 502.369 314.295 481.381 284.774C462.607 258.368 421.382 250.22 413.381 218.778C405.079 186.148 418.933 149.842 440.457 123.942C460.839 99.4155 496.911 99.7399 524.913 84.5713C558.996 66.1092 583.317 22.5019 621.885 25.6647Z" fill="#46A7DE"/>
<path opacity="0.2" d="M170.715 233.84C175.275 212.958 190.914 200.515 178.315 178.502C156.7 140.731 115.746 119.283 102.419 75.4546C85.0969 18.4643 123.672 -44.4894 166.97 -77.2692C212.031 -111.381 270.599 -123.131 313.839 -160.14C331.584 -175.331 346.404 -195.117 352.588 -218.009C360.842 -248.557 359.972 -279.705 383.004 -303.769C420.172 -342.604 461.57 -361.949 512.925 -332.377C548.59 -311.839 558.877 -285.505 571.89 -248.767C581.041 -222.93 595.732 -208.464 619.884 -196.211C646.551 -182.676 679.053 -163.625 686.713 -132.603C693.463 -105.265 671.955 -65.4223 658.639 -41.2912C550.928 83.7007 481.013 145.925 458.018 182.508C442.161 207.737 384.202 258.175 352.383 242.598C344.042 238.516 336.804 231.962 327.903 229.435C307.298 223.582 293.045 242.417 280.041 254.447C265.977 267.463 245.717 276.194 226.637 278.998C213.949 280.866 200.312 279.364 189.148 272.652C176.035 264.777 167.439 248.879 170.715 233.84Z" fill="#FEF4E1"/>
<path opacity="0.7" fill-rule="evenodd" clip-rule="evenodd" d="M309.946 605.144C300.689 654.675 345.179 717.647 307.007 750.521C269.742 782.615 211.963 747.975 166.901 728.337C129.945 712.232 95.3782 688.536 79.5999 651.418C65.2583 617.68 84.7541 582.425 89.4136 546.052C95.4795 498.701 65.4003 425.383 110.537 409.918C158.885 393.352 180.076 482.13 228.514 498.392C270.215 512.392 328.622 457.111 355.308 492.095C380.896 525.639 317.701 563.652 309.946 605.144Z" fill="#46A7DE"/>
</svg>
