<svg width="796" height="740" viewBox="0 0 796 740" fill="none" xmlns="http://www.w3.org/2000/svg">
<path opacity="0.2" d="M167.935 494.9C173.495 519.351 169.467 537.961 157.318 559.756C143.904 583.825 128.783 615.106 137.941 642.753C146.013 667.113 163.499 687.55 185.008 699.134C212.316 713.838 239.72 709.315 268.054 697.192C306.951 680.548 330.057 726.183 366.581 748.014C398.492 767.087 453.179 755.197 487.884 771.308C511.818 782.416 551.112 785.561 567.389 757.286C571.658 749.867 573.916 741.14 579.349 734.624C591.921 719.541 611.59 726.597 627.064 729.093C643.803 731.795 663.11 728.038 678.695 720.357C689.06 715.255 698.519 707.085 703.632 696.211C709.644 683.437 708.426 666.858 698.773 657.066C684.498 642.587 665.236 640.998 667.139 615.291C669.168 587.882 678.528 562.329 677.56 534.259C675.093 462.64 616.091 421.121 552.379 417.472C502.39 414.609 453.044 435.78 403.023 429.772C382.494 427.302 361.939 419.817 346.346 405.511C331.439 391.831 321.664 371.812 304.038 361.501C293.241 355.182 280.567 353.372 268.166 352.01C246.105 349.594 222.213 348.711 202.917 361.302C189.029 370.367 179.392 385.337 171.835 400.678C155.079 434.723 160.031 460.133 167.935 494.9Z" fill="#FEF4E1"/>
<path opacity="0.7" fill-rule="evenodd" clip-rule="evenodd" d="M144.885 -75.3353C183.482 -72.17 212.325 -35.4901 230.895 -1.42279C247.635 29.2884 255.947 69.0148 240.786 100.6C226.646 130.06 173.045 119.868 158.606 149.182C140.512 185.913 183.942 237.486 157.834 269.001C134.386 297.304 83.0662 296.829 51.0285 279.035C19.4052 261.472 25.3688 213.295 4.38075 183.774C-14.393 157.368 -55.6184 149.22 -63.6186 117.778C-71.9213 85.1484 -58.0675 48.8423 -36.5428 22.9415C-16.1606 -1.58452 19.9106 -1.26007 47.9132 -16.4287C81.9959 -34.8908 106.317 -78.4981 144.885 -75.3353Z" fill="#46A7DE"/>
<path opacity="0.2" d="M118.106 159.309C132.552 143.555 152.328 140.669 152.513 115.307C152.835 71.7895 128.231 32.6501 138.763 -11.9329C152.463 -69.9008 217.472 -104.901 271.383 -111.448C327.487 -118.26 384.015 -98.9503 440.003 -109.181C462.982 -113.383 485.743 -123.027 502.605 -139.699C525.106 -161.948 540.024 -189.306 572.036 -198.515C623.695 -213.379 669.205 -209.271 698.711 -157.878C719.201 -122.186 714.843 -94.2516 707.607 -55.9549C702.518 -29.0215 707.937 -9.12916 722.645 13.611C738.883 38.7242 757.388 71.5394 748.402 102.204C740.482 129.226 701.85 152.839 678.202 166.996C522.232 220.831 430.505 239.435 392.228 259.482C365.831 273.308 290.367 287.741 270.704 258.271C265.549 250.547 262.591 241.242 256.17 234.58C241.307 219.155 219.512 228.263 202.222 232.117C183.519 236.291 161.618 233.644 143.717 226.469C131.812 221.7 120.782 213.541 114.51 202.124C107.14 188.721 107.709 170.657 118.106 159.309Z" fill="#FEF4E1"/>
<path opacity="0.7" fill-rule="evenodd" clip-rule="evenodd" d="M188.946 602.144C179.689 651.675 224.179 714.647 186.007 747.521C148.742 779.615 90.963 744.975 45.9009 725.337C8.94451 709.232 -25.6218 685.536 -41.4001 648.418C-55.7417 614.68 -36.2459 579.425 -31.5864 543.052C-25.5205 495.701 -55.5997 422.383 -10.4628 406.918C37.8853 390.352 59.0764 479.13 107.514 495.392C149.215 509.392 207.622 454.111 234.308 489.095C259.896 522.639 196.701 560.652 188.946 602.144Z" fill="#46A7DE"/>
</svg>
