<svg width="80" height="80" viewBox="0 0 80 80" fill="none" xmlns="http://www.w3.org/2000/svg">
<path d="M71.6663 40.0666C71.6663 22.2272 57.2047 7.76562 39.3654 7.76562C21.5261 7.76562 7.06445 22.2272 7.06445 40.0666C7.06445 57.9059 21.5261 72.3675 39.3654 72.3675C57.2047 72.3675 71.6663 57.9059 71.6663 40.0666Z" fill="#6BA7FA"/>
<mask id="mask0_400_9251" style="mask-type:alpha" maskUnits="userSpaceOnUse" x="6" y="7" width="65" height="66">
<path d="M70.9339 40.0666C70.9339 22.2272 56.4723 7.76562 38.633 7.76562C20.7936 7.76562 6.33203 22.2272 6.33203 40.0666C6.33203 57.9059 20.7936 72.3675 38.633 72.3675C56.4723 72.3675 70.9339 57.9059 70.9339 40.0666Z" fill="#666AF6"/>
</mask>
<g mask="url(#mask0_400_9251)">
<g opacity="0.5">
<path fill-rule="evenodd" clip-rule="evenodd" d="M-33.9906 47.0775C-32.867 38.6542 -29.9744 30.4717 -25.5551 23.2168L-25.2229 23.4191C-29.6142 30.628 -32.4886 38.7591 -33.605 47.1289C-34.2973 52.3181 -34.0389 58.1848 -30.2959 61.6974L-30.429 61.8392L-30.2959 61.6974C-27.4913 64.3299 -23.3384 64.9989 -19.4359 64.8551C-17.9049 64.7987 -16.3786 64.6381 -14.8458 64.4769C-14.4243 64.4325 -14.0024 64.3882 -13.5798 64.3459C-11.6241 64.1502 -9.65799 64.0001 -7.68397 64.1164L-7.6954 64.3105L-7.68396 64.1164C-3.73845 64.3489 0.486965 65.9102 2.52074 69.3777C3.48252 71.0174 3.83938 72.8515 3.92936 74.7314C4.00359 76.2823 3.89625 77.8776 3.79197 79.4271C3.77008 79.7523 3.74833 80.0755 3.72843 80.3959C3.61394 82.2438 3.62666 84.204 4.01121 86.0011C4.3955 87.797 5.14841 89.4178 6.50526 90.6041C8.43091 92.2876 10.9709 92.618 13.6663 92.8188C13.9465 92.8396 14.2283 92.8591 14.5112 92.8786C16.9271 93.0453 19.4182 93.2172 21.547 94.3211C23.7289 95.4524 25.2796 97.4288 26.7943 99.3594C26.8475 99.4272 26.9007 99.4949 26.9538 99.5625C28.5315 101.571 30.0938 103.498 32.3235 104.482C34.1827 105.303 36.1904 105.337 38.2231 104.963C40.2575 104.588 42.3026 103.809 44.2302 103.019C48.25 101.371 52.2616 99.7024 56.2646 98.014L56.4158 98.3724C52.4115 100.061 48.3988 101.73 44.3777 103.379L44.3039 103.199L44.3777 103.379C42.4487 104.169 40.371 104.963 38.2935 105.345C36.2141 105.728 34.1207 105.701 32.1665 104.838C29.8342 103.809 28.2166 101.8 26.6479 99.8028C26.6015 99.7436 26.5551 99.6845 26.5087 99.6254C24.9771 97.674 23.4734 95.758 21.368 94.6663C19.3157 93.6022 16.9098 93.4352 14.481 93.2666C14.2 93.2471 13.9186 93.2276 13.6374 93.2066C10.9498 93.0064 8.28362 92.6754 6.24926 90.8969C4.80998 89.6385 4.02649 87.9312 3.63089 86.0825C3.23555 84.235 3.22485 82.2342 3.34024 80.3718L3.34024 80.3718C3.36042 80.047 3.38235 79.7207 3.40434 79.3937C3.5085 77.8446 3.61393 76.2764 3.54087 74.75C3.45255 72.9047 3.10347 71.1399 2.18526 69.5745C0.24596 66.2681 -3.82142 64.7337 -7.70683 64.5046C-9.64841 64.3903 -11.589 64.5375 -13.5411 64.7329C-13.9592 64.7747 -14.3781 64.8188 -14.7977 64.8629C-16.3325 65.0244 -17.876 65.1868 -19.4216 65.2438C-23.3588 65.3888 -27.643 64.7209 -30.5621 61.981C-34.4564 58.3263 -34.6842 52.2775 -33.9906 47.0775Z" fill="white"/>
<path fill-rule="evenodd" clip-rule="evenodd" d="M-29.2119 41.7376C-28.1118 33.51 -25.28 25.518 -20.9542 18.4316L-20.6223 18.6343C-24.9199 25.6746 -27.7335 33.6151 -28.8264 41.7891C-29.5038 46.8571 -29.2505 52.5847 -25.5885 56.0139L-25.7215 56.1559L-25.5885 56.014C-22.8447 58.5838 -18.7809 59.2372 -14.9613 59.0965C-13.4628 59.0415 -11.969 58.8847 -10.4685 58.7273C-10.0561 58.684 -9.64322 58.6406 -9.22957 58.5994C-7.31526 58.4083 -5.39042 58.2617 -3.45778 58.3754C0.405045 58.6025 4.5426 60.1276 6.53432 63.5157C7.47631 65.1183 7.82572 66.9105 7.91382 68.747C7.9865 70.2619 7.88142 71.8202 7.77938 73.3335C7.75795 73.6513 7.73666 73.9671 7.71717 74.2801C7.60502 76.0846 7.6174 77.9985 7.99365 79.753C8.36964 81.5062 9.10625 83.0882 10.4336 84.2461C12.3174 85.8894 14.8024 86.2121 17.4409 86.4083C17.7151 86.4286 17.991 86.4476 18.268 86.4667C20.6325 86.6295 23.0717 86.7975 25.1563 87.876C27.2927 88.9813 28.811 90.9122 30.2935 92.7975C30.3457 92.8638 30.3978 92.9301 30.4499 92.9963C31.9943 94.9582 33.523 96.8393 35.7047 97.8005C37.5233 98.6015 39.4876 98.6339 41.4769 98.2687C43.4678 97.9032 45.4695 97.1423 47.3564 96.3706C51.2909 94.7609 55.2175 93.1316 59.1358 91.4827L59.2866 91.8411C55.3671 93.4905 51.4394 95.1204 47.5036 96.7305L47.43 96.5506L47.5036 96.7306C45.6153 97.5029 43.5812 98.2778 41.5471 98.6513C39.5113 99.025 37.4614 98.9993 35.5479 98.1564C33.2638 97.1501 31.6797 95.1874 30.1443 93.2368C30.0989 93.1791 30.0535 93.1214 30.0081 93.0638C28.5088 91.1577 27.0374 89.2871 24.9776 88.2214C22.9695 87.1825 20.6154 87.0194 18.2379 86.8547C17.9627 86.8357 17.6873 86.8166 17.4121 86.7961C14.7814 86.6006 12.1704 86.2773 10.1779 84.5392C8.76804 83.3093 8.00072 81.6408 7.61337 79.8345C7.22628 78.0295 7.21593 76.075 7.32899 74.2559C7.34875 73.9385 7.37022 73.6197 7.39176 73.3C7.49368 71.7872 7.59683 70.256 7.52534 68.7656C7.4389 66.9638 7.09731 65.241 6.19903 63.7128C4.30195 60.4857 0.322445 58.9872 -3.4806 58.7636C-5.38089 58.6519 -7.28019 58.7956 -9.19094 58.9864C-9.60008 59.0272 -10.01 59.0702 -10.4206 59.1133C-11.923 59.271 -13.434 59.4296 -14.947 59.4852C-18.8012 59.6271 -22.9961 58.9749 -25.8544 56.2978C-29.6681 52.7265 -29.8908 46.8165 -29.2119 41.7376L-29.0192 41.7634L-29.2119 41.7376Z" fill="white"/>
<path fill-rule="evenodd" clip-rule="evenodd" d="M-24.6713 36.4672C-23.5953 28.411 -20.8246 20.5855 -16.5919 13.6465L-16.2598 13.849C-20.4645 20.742 -23.2169 28.516 -24.2858 36.5187L-24.4785 36.493L-24.2858 36.5187C-24.9489 41.4808 -24.7007 47.0868 -21.1196 50.4428C-18.436 52.9577 -14.4614 53.5973 -10.725 53.4598C-9.25934 53.4059 -7.79829 53.2524 -6.33053 53.0983C-5.92671 53.0559 -5.52238 53.0134 -5.11731 52.9729C-3.24434 52.7859 -1.3609 52.6424 0.530222 52.7536C4.31017 52.9761 8.35985 54.4696 10.3097 57.7887C11.2318 59.3584 11.5737 61.1139 11.6598 62.9123C11.7309 64.3949 11.6283 65.9198 11.5287 67.4006C11.5076 67.7127 11.4868 68.0229 11.4677 68.3303C11.3578 70.097 11.3699 71.9705 11.7379 73.6878C12.1056 75.4039 12.826 76.9519 14.1239 78.0849C15.9658 79.6928 18.3955 80.0087 20.9771 80.2008C21.2452 80.2207 21.5151 80.2393 21.786 80.258C24.0993 80.4174 26.4869 80.5819 28.5274 81.6385C30.6185 82.7212 32.1046 84.6124 33.5549 86.4581C33.6059 86.5231 33.6569 86.588 33.7079 86.6528C35.219 88.5738 36.714 90.4146 38.8471 91.3552C40.6255 92.1392 42.5464 92.171 44.4922 91.8135C46.4396 91.4557 48.3976 90.7107 50.2437 89.9551C54.0932 88.3791 57.9349 86.7838 61.7685 85.1693L61.9195 85.5278C58.0847 87.1427 54.2418 88.7385 50.391 90.3151L50.3173 90.1351L50.391 90.3151C48.5435 91.0712 46.553 91.8303 44.5624 92.196C42.5702 92.5621 40.5636 92.537 38.6902 91.711C36.4547 90.7253 34.9043 88.8028 33.4022 86.8933C33.3579 86.837 33.3137 86.7807 33.2694 86.7244C31.8023 84.8579 30.3632 83.027 28.3486 81.9839C26.3845 80.9669 24.0821 80.8073 21.7558 80.646C21.4868 80.6273 21.2174 80.6086 20.9482 80.5886C18.3745 80.3971 15.8186 80.0806 13.8681 78.3779C12.4877 77.1729 11.7366 75.5383 11.3576 73.7693C10.9787 72.0015 10.9687 70.0873 11.0795 68.3062C11.0989 67.9943 11.1199 67.681 11.141 67.367C11.2406 65.8867 11.3412 64.3889 11.2714 62.931C11.1868 61.1671 10.8528 59.4811 9.97433 57.9857C8.11909 54.8276 4.22744 53.3608 0.507385 53.1419C-1.35136 53.0326 -3.20925 53.1732 -5.07865 53.36C-5.47921 53.4 -5.88056 53.4421 -6.28256 53.4844C-7.75222 53.6387 -9.23051 53.794 -10.7107 53.8485C-14.4818 53.9873 -18.5875 53.3487 -21.3855 50.7266C-25.1182 47.2285 -25.3359 41.4403 -24.6713 36.4672Z" fill="white"/>
<path fill-rule="evenodd" clip-rule="evenodd" d="M-19.8935 31.1271C-18.8438 23.2669 -16.1422 15.6314 -12.014 8.86133L-11.6819 9.06381C-15.782 15.7878 -18.4654 23.3718 -19.508 31.1786C-20.1545 36.0195 -19.912 41.4865 -16.4219 44.759C-13.8063 47.2113 -9.9324 47.8355 -6.28936 47.7013C-4.86059 47.6487 -3.43637 47.499 -2.00542 47.3486C-1.61133 47.3072 -1.21672 47.2658 -0.821373 47.2262C1.00508 47.0437 2.84203 46.9038 4.68657 47.0124C8.37333 47.2293 12.3244 48.6867 14.2267 51.9269C15.1265 53.4593 15.4601 55.1728 15.5442 56.9278C15.6136 58.375 15.5133 59.8636 15.4161 61.3089C15.3956 61.6128 15.3753 61.9147 15.3567 62.214C15.2496 63.9375 15.2615 65.7648 15.6201 67.4396C15.9786 69.1132 16.6806 70.6224 17.9449 71.7268C19.7397 73.2942 22.1076 73.6024 24.6252 73.7898C24.8867 73.8093 25.1499 73.8274 25.4142 73.8456C27.6699 74.0011 29.9991 74.1617 31.9896 75.1928C34.0297 76.2496 35.4793 78.0954 36.8932 79.8958C36.9431 79.9594 36.993 80.0229 37.0428 80.0863C38.5163 81.9606 39.9734 83.7556 42.0525 84.6726C43.7855 85.4371 45.6577 85.4682 47.5545 85.1195C49.453 84.7705 51.3619 84.0439 53.1618 83.3067C56.9157 81.7692 60.6619 80.2129 64.4001 78.6376L64.5512 78.996C60.8117 80.5718 57.0644 82.1287 53.3092 83.6667C51.5078 84.4044 49.5665 85.1451 47.6248 85.5021C45.6814 85.8593 43.7236 85.8349 41.8956 85.0285C39.714 84.0662 38.2016 82.1896 36.737 80.3267C36.6939 80.2718 36.6508 80.2169 36.6077 80.162C35.1769 78.3408 33.7743 76.5553 31.8107 75.5382C29.8967 74.5467 27.6526 74.391 25.384 74.2336C25.1216 74.2154 24.8589 74.1972 24.5963 74.1777C22.0866 73.9909 19.5925 73.682 17.6891 72.0197L17.817 71.8732L17.6891 72.0197C16.3423 70.8433 15.6096 69.2476 15.2398 67.5211C14.8703 65.7958 14.8605 63.9279 14.9685 62.1898C14.9874 61.8861 15.0079 61.5811 15.0284 61.2754C15.1256 59.8307 15.2239 58.3691 15.1557 56.9464C15.0732 55.226 14.7475 53.5819 13.8913 52.1238L14.059 52.0254L13.8913 52.1238C12.0835 49.0446 8.29053 47.614 4.66371 47.4007L4.67513 47.2066L4.66369 47.4007C2.85156 47.2939 1.04018 47.4311 -0.782698 47.6133C-1.1735 47.6523 -1.56509 47.6935 -1.95733 47.7347C-3.39022 47.8853 -4.83173 48.0368 -6.27505 48.09C-9.9528 48.2254 -13.9579 47.6023 -16.6879 45.0427L-16.5549 44.9008L-16.6879 45.0427C-20.3295 41.6282 -20.5414 35.9789 -19.8935 31.1271L-19.7007 31.1528L-19.8935 31.1271Z" fill="white"/>
<path fill-rule="evenodd" clip-rule="evenodd" d="M-15.3531 25.6166C-14.3272 17.9272 -11.6863 10.4586 -7.6515 3.83594L-7.31936 4.0383C-11.3261 10.6149 -13.9488 18.0321 -14.9676 25.668C-15.5993 30.4028 -15.3621 35.7483 -11.9525 38.9477C-9.39771 41.345 -5.61308 41.9555 -2.05299 41.8242C-0.656348 41.7728 0.735826 41.6264 2.13477 41.4793C2.51955 41.4388 2.90483 41.3983 3.29087 41.3597C5.076 41.1812 6.87166 41.0442 8.6748 41.1503L8.66337 41.3445L8.67482 41.1503C12.2786 41.3628 16.142 42.7887 18.0023 45.9598C18.882 47.4594 19.2081 49.1362 19.2903 50.8531C19.3581 52.2695 19.2601 53.7264 19.1649 55.1406C19.1449 55.4373 19.1251 55.7321 19.1069 56.0242C19.0023 57.7099 19.014 59.4968 19.3645 61.1344C19.7147 62.7708 20.4006 64.2461 21.6354 65.3256C23.3882 66.8576 25.7009 67.159 28.1615 67.3423C28.4171 67.3613 28.6743 67.379 28.9325 67.3969C31.137 67.5489 33.4145 67.706 35.361 68.715L35.2715 68.8876L35.361 68.715C37.3555 69.7492 38.7727 71.5552 40.1543 73.3159C40.2032 73.3782 40.2521 73.4405 40.301 73.5027C41.7413 75.3362 43.1648 77.0909 45.1956 77.9874C46.8882 78.7346 48.7168 78.7651 50.57 78.4241C52.425 78.0829 54.2903 77.3723 56.0496 76.6513C59.7183 75.1475 63.3795 73.6252 67.0329 72.0845L67.184 72.4428C63.5294 73.984 59.8671 75.5069 56.1971 77.0112C54.4363 77.7328 52.5385 78.4575 50.6404 78.8067C48.7406 79.1562 46.8262 79.1323 45.0386 78.3432C42.9053 77.4015 41.4264 75.565 39.9951 73.743C39.9529 73.6893 39.9108 73.6356 39.8687 73.5819C38.4702 71.8003 37.0999 70.0548 35.182 69.0603C33.312 68.091 31.1198 67.9388 28.9024 67.7849C28.646 67.7671 28.3892 67.7492 28.1326 67.7301C25.6799 67.5475 23.2409 67.2454 21.3794 65.6185L21.5074 65.4721L21.3794 65.6185C20.0622 64.4669 19.3457 62.9051 18.9841 61.2158C18.6228 59.5277 18.6132 57.7002 18.7187 56.0001C18.7372 55.7035 18.7572 55.4057 18.7773 55.1071C18.8723 53.6934 18.9685 52.2635 18.9018 50.8717C18.8213 49.1893 18.503 47.5819 17.6668 46.1566C15.901 43.1466 12.1956 41.7475 8.65195 41.5386C6.88122 41.4343 5.11115 41.5685 3.32958 41.7467C2.94808 41.7849 2.5658 41.8251 2.18288 41.8654C0.782009 42.0127 -0.627464 42.161 -2.03866 42.2129C-5.63351 42.3454 -9.54941 41.736 -12.2186 39.2313C-15.7797 35.8899 -15.9862 30.3622 -15.3531 25.6166Z" fill="white"/>
<path fill-rule="evenodd" clip-rule="evenodd" d="M-10.5752 20.2763C-9.57576 12.7835 -7.00362 5.50449 -3.07385 -0.949219L-2.74166 -0.746941C-6.64336 5.66069 -9.19736 12.8883 -10.1897 20.3278C-10.8049 24.9417 -10.5734 30.148 -7.25491 33.2637C-4.768 35.5986 -1.08405 36.1933 2.38268 36.0656C3.74299 36.0155 5.09879 35.8729 6.46134 35.7295C6.83596 35.6901 7.21109 35.6506 7.58696 35.613C9.32553 35.439 11.0746 35.3054 12.8312 35.409C16.3416 35.616 20.1066 37.0057 21.9195 40.098C22.7768 41.5601 23.0944 43.1949 23.1745 44.8684C23.2405 46.2481 23.1451 47.6672 23.0526 49.0443C23.0331 49.3343 23.0138 49.6225 22.9961 49.908C22.8942 51.5503 22.9054 53.291 23.2466 54.8862C23.5875 56.4801 24.255 57.9166 25.4567 58.9675C27.1623 60.4591 29.413 60.7529 31.8094 60.9315C32.0583 60.95 32.3087 60.9673 32.5602 60.9846C34.707 61.1328 36.9262 61.286 38.823 62.2698C40.7666 63.278 42.1475 65.0387 43.493 66.7541C43.5407 66.8149 43.5883 66.8756 43.6359 66.9363C45.0388 68.723 46.4245 70.4318 48.4011 71.3048C50.0482 72.0323 51.828 72.0622 53.6322 71.7301C55.4381 71.3977 57.2543 70.7056 58.9678 70.0029C62.5408 68.5374 66.1065 67.0539 69.6646 65.5526L69.8158 65.911C66.2565 67.4128 62.6896 68.8967 59.1154 70.3628C57.4004 71.066 55.5517 71.7723 53.7026 72.1126C51.8517 72.4533 49.9862 72.4301 48.2439 71.6606C46.1649 70.7423 44.7239 68.9517 43.33 67.1765C43.2891 67.1244 43.2482 67.0722 43.2073 67.0201C41.845 65.2838 40.511 63.5836 38.6439 62.6151C36.8237 61.6709 34.6898 61.5227 32.53 61.3726C32.2804 61.3553 32.0304 61.3379 31.7805 61.3193C29.3919 61.1413 27.015 60.847 25.2006 59.2603C23.9165 58.1373 23.2184 56.6143 22.8662 54.9675C22.5143 53.3219 22.5051 51.5406 22.6079 49.8839C22.6259 49.5939 22.6454 49.3027 22.665 49.0108C22.7574 47.6342 22.8508 46.2421 22.786 44.887C22.7076 43.248 22.3978 41.6825 21.584 40.2947L21.7517 40.1963L21.5839 40.2947C19.8656 37.3635 16.2586 36.0007 12.8083 35.7972C11.0842 35.6956 9.36069 35.8263 7.62569 36C7.25434 36.0371 6.8822 36.0763 6.50942 36.1155C5.14496 36.2591 3.77186 36.4036 2.397 36.4543C-1.10453 36.5833 -4.91978 35.9895 -7.52113 33.5473C-10.9909 30.2895 -11.1919 24.9011 -10.5752 20.2763L-10.3825 20.302L-10.5752 20.2763Z" fill="white"/>
<path fill-rule="evenodd" clip-rule="evenodd" d="M-5.7966 14.9365C-4.82102 7.63919 -2.3095 0.550933 1.52696 -5.73438L1.85894 -5.53174C-1.9494 0.707483 -4.44268 7.74429 -5.4111 14.988C-6.01143 19.4807 -5.78521 24.5479 -2.54745 27.5803C-0.121462 29.8524 3.47351 30.4318 6.85754 30.3074C8.18414 30.2585 9.50648 30.1197 10.8356 29.9802C11.2022 29.9417 11.5694 29.9032 11.9373 29.8665C13.6345 29.6971 15.3423 29.5671 17.0573 29.668C20.4848 29.8696 24.1618 31.2232 25.9329 34.2363C26.7704 35.6612 27.0806 37.254 27.1588 38.8841C27.2233 40.2281 27.1301 41.6106 27.0398 42.952C27.0208 43.234 27.0019 43.5143 26.9846 43.7919C26.8851 45.391 26.8961 47.0855 27.229 48.6381C27.5616 50.1895 28.2129 51.5871 29.3849 52.6096C31.0487 54.061 33.2444 54.347 35.5838 54.521C35.8268 54.539 36.0713 54.5559 36.3168 54.5728C38.4123 54.717 40.5796 54.8662 42.432 55.8248C44.3304 56.807 45.6791 58.5223 46.9924 60.1926C47.039 60.2519 47.0855 60.311 47.132 60.3701C48.5015 62.11 49.8535 63.773 51.7816 64.6226C53.3885 65.3306 55.1251 65.3597 56.8858 65.0365C58.6483 64.7129 60.4209 64.039 62.0934 63.3548C65.5814 61.9278 69.0623 60.4833 72.5358 59.0214L72.6867 59.3799C69.2119 60.8423 65.7299 62.2873 62.2407 63.7148C60.5666 64.3996 58.7616 65.0875 56.9561 65.419C55.1488 65.7508 53.3267 65.7283 51.6248 64.9785C49.5943 64.0838 48.187 62.3392 46.8264 60.6106C46.7866 60.5601 46.7468 60.5095 46.7071 60.459C45.3769 58.7678 44.0752 57.1128 42.2533 56.1702C40.4773 55.2512 38.3951 55.1069 36.2867 54.9608C36.043 54.9439 35.799 54.927 35.555 54.9088C33.2234 54.7355 30.9017 54.4489 29.1292 52.9027C27.8746 51.8082 27.1926 50.3241 26.8487 48.7197C26.505 47.1165 26.496 45.3814 26.5965 43.7678C26.614 43.4857 26.6331 43.2024 26.6522 42.9184C26.7424 41.5776 26.8336 40.2222 26.7703 38.9027C26.6937 37.3073 26.3914 35.7839 25.5976 34.4333C23.9211 31.5813 20.4022 30.2544 17.0345 30.0563C15.3518 29.9573 13.6695 30.0845 11.9759 30.2535C11.6126 30.2898 11.2484 30.328 10.8837 30.3663C9.55259 30.506 8.21299 30.6467 6.87183 30.6961C3.45318 30.8218 -0.272907 30.2434 -2.81332 27.8642L-2.68038 27.7223L-2.81332 27.8642C-6.20276 24.6897 -6.3984 19.4401 -5.79661 14.9365L-5.60388 14.9623L-5.7966 14.9365Z" fill="white"/>
<path fill-rule="evenodd" clip-rule="evenodd" d="M-1.25808 9.66598C-0.306241 2.53989 2.1442 -4.38209 5.88732 -10.5195L6.21937 -10.317C2.50435 -4.22566 0.072122 2.64489 -0.872571 9.71747C-1.45838 14.1039 -1.23709 19.0499 1.91953 22.0088C4.28525 24.2261 7.79074 24.792 11.0918 24.6702C12.3868 24.6227 13.6775 24.4871 14.9751 24.3508C15.3319 24.3133 15.6892 24.2758 16.0473 24.24C17.7032 24.0746 19.3696 23.9476 21.0435 24.0463C24.3882 24.243 27.9772 25.565 29.7062 28.5091C30.5239 29.9012 30.8267 31.4573 30.903 33.0493C30.9659 34.3622 30.8749 35.7127 30.7867 37.0227C30.7682 37.2979 30.7497 37.5712 30.7329 37.8421C30.6359 39.4032 30.6468 41.0573 30.9715 42.5727C31.2959 44.0869 31.9309 45.4507 33.0733 46.4482C34.6952 47.8643 36.8357 48.1435 39.1182 48.3134C39.3552 48.331 39.5937 48.3474 39.8333 48.3639C41.8775 48.5047 43.9929 48.6505 45.801 49.5869C47.654 50.5464 48.9704 52.2221 50.2515 53.8528C50.297 53.9107 50.3425 53.9686 50.3879 54.0264C51.7242 55.7255 53.0425 57.3484 54.9223 58.1773C56.4889 58.868 58.1821 58.8966 59.8994 58.581C61.6185 58.2652 63.3475 57.6074 64.9792 56.9394C68.382 55.5459 71.7779 54.1354 75.1665 52.708L75.3175 53.0664C71.9276 54.4944 68.5306 55.9054 65.1266 57.2993C63.4933 57.9679 61.7319 58.6398 59.9697 58.9636C58.2058 59.2877 56.427 59.2658 54.7654 58.5331C52.7832 57.6591 51.4095 55.9545 50.0822 54.2668C50.0434 54.2175 50.0047 54.1683 49.966 54.1191C48.6681 52.4674 47.3987 50.8521 45.6222 49.9323L45.7116 49.7596L45.6222 49.9323C43.8905 49.0354 41.8603 48.8946 39.8031 48.7519C39.5654 48.7354 39.3273 48.7189 39.0893 48.7012C36.8147 48.532 34.548 48.2521 32.8174 46.7412L32.9453 46.5947L32.8174 46.7411C31.5926 45.6716 30.9269 44.2214 30.5912 42.6542C30.2557 41.0883 30.2469 39.3936 30.3447 37.8179C30.3618 37.5426 30.3804 37.2662 30.3991 36.9892C30.4872 35.6797 30.5762 34.3562 30.5145 33.0679C30.4398 31.5105 30.1449 30.0238 29.3709 28.7061L29.5385 28.6076L29.3709 28.7061C27.7364 25.923 24.3054 24.6277 21.0206 24.4345L21.0206 24.4345C19.3792 24.3377 17.7383 24.4619 16.086 24.627C15.7324 24.6623 15.378 24.6996 15.023 24.7369C13.7235 24.8734 12.4156 25.0108 11.1061 25.0589C7.77034 25.1819 4.13369 24.6171 1.65355 22.2925L1.78654 22.1507L1.65355 22.2925C-1.65463 19.1916 -1.84534 14.0633 -1.25808 9.66598L-1.06533 9.69172L-1.25808 9.66598Z" fill="white"/>
<path fill-rule="evenodd" clip-rule="evenodd" d="M3.51997 4.32586C4.44501 -2.60394 6.82636 -9.33578 10.4651 -15.3047L10.7972 -15.1022C7.18655 -9.17942 4.82338 -2.499 3.90548 4.37733L3.71273 4.3516L3.90548 4.37734C3.33594 8.64269 3.55136 13.4498 6.61749 16.3254L6.48446 16.4672L6.61749 16.3254C8.91481 18.4801 12.32 19.03 15.5276 18.9118L15.5347 19.1061L15.5276 18.9118C16.786 18.8655 18.0402 18.7337 19.3012 18.6011C19.6481 18.5647 19.9954 18.5282 20.3435 18.4934C21.9528 18.3325 23.5726 18.2089 25.1996 18.3047L25.1996 18.3047C28.4515 18.4964 31.9418 19.7821 33.6235 22.6474C34.4188 24.002 34.7131 25.5162 34.7873 27.0648C34.8485 28.342 34.76 29.6558 34.6743 30.9297C34.6563 31.1971 34.6384 31.4627 34.622 31.7258C34.5277 33.2438 34.5383 34.8517 34.8537 36.3247C35.1688 37.7964 35.7856 39.1213 36.8948 40.0902L36.7669 40.2367L36.8948 40.0902C38.4694 41.4659 40.5479 41.7375 42.7663 41.9026C42.9967 41.9198 43.2286 41.9358 43.4614 41.9518C45.448 42.0887 47.5051 42.2305 49.2634 43.1416C51.0652 44.0753 52.3452 45.7055 53.59 47.2908C53.6343 47.3474 53.6787 47.4038 53.723 47.4602C55.0218 49.1126 56.3024 50.6894 58.1279 51.4949C59.649 52.166 61.2932 52.1939 62.9615 51.8872C64.6316 51.5801 66.3115 50.9406 67.8974 50.2909L67.9711 50.4708L67.8974 50.2908C71.2046 48.936 74.5049 47.5646 77.7983 46.1765L77.9493 46.5349C74.6548 47.9235 71.3532 49.2954 68.0449 50.6507C66.4575 51.3011 64.7451 51.9547 63.0319 52.2697C61.317 52.585 59.587 52.5638 57.9709 51.8507C56.043 51.0001 54.7071 49.3415 53.4172 47.7006C53.3796 47.6527 53.342 47.6049 53.3045 47.557C52.0428 45.9508 50.8097 44.381 49.0845 43.4869C47.4027 42.6154 45.4307 42.4786 43.4312 42.3398C43.2002 42.3238 42.9688 42.3077 42.7375 42.2905C40.5269 42.126 38.3222 41.8538 36.6389 40.3831C35.4473 39.3422 34.7999 37.9308 34.4734 36.4061C34.1472 34.8827 34.1386 33.2341 34.2338 31.7017C34.2505 31.4341 34.2685 31.1655 34.2866 30.8963C34.3723 29.6228 34.4588 28.336 34.3988 27.0834C34.3263 25.5694 34.0397 24.1246 33.2881 22.8443L33.4558 22.7459L33.2881 22.8443C31.7009 20.14 28.3687 18.8812 25.1768 18.6929C23.5822 18.5991 21.9879 18.7198 20.3822 18.8804C20.0386 18.9147 19.6942 18.9509 19.3492 18.9872C18.0863 19.12 16.8149 19.2536 15.5419 19.3005C12.2996 19.4199 8.76318 18.8711 6.35143 16.609C3.13383 13.5915 2.94898 8.60211 3.51997 4.32586ZM3.51997 4.32586L3.71272 4.3516L3.51997 4.32587C3.51997 4.32587 3.51997 4.32586 3.51997 4.32586Z" fill="white"/>
<path fill-rule="evenodd" clip-rule="evenodd" d="M8.06044 -1.18281C8.9616 -7.94139 11.282 -14.5067 14.8274 -20.3281L15.1596 -20.1258C11.6423 -14.3505 9.34 -7.83656 8.44596 -1.1314L8.44596 -1.13139C7.89095 3.02799 8.10142 7.71347 11.0866 10.5158C13.3235 12.6155 16.639 13.1519 19.7639 13.037C20.9898 12.9918 22.2117 12.8632 23.4404 12.7339C23.7782 12.6984 24.1165 12.6628 24.4556 12.6288C26.0236 12.4719 27.6021 12.3513 29.1874 12.4446L29.1875 12.4446C32.3564 12.6317 35.7592 13.886 37.3987 16.682C38.174 18.004 38.4608 19.4814 38.5331 20.9919C38.5927 22.2368 38.5067 23.5173 38.4233 24.7588C38.4058 25.0204 38.3883 25.2802 38.3724 25.5376C38.2803 27.0179 38.2905 28.5854 38.5977 30.0211C38.9045 31.4556 39.5051 32.7465 40.5848 33.6904L40.4568 33.8368L40.5848 33.6904C42.1176 35.0308 44.141 35.2956 46.3023 35.4567C46.5268 35.4734 46.7528 35.489 46.9797 35.5047C48.9149 35.6381 50.9202 35.7765 52.6343 36.6655C54.3909 37.5765 55.6386 39.1671 56.8512 40.713C56.8945 40.7681 56.9377 40.8232 56.9809 40.8783C58.2464 42.4898 59.4932 44.0266 61.2706 44.8115C62.7513 45.4654 64.3521 45.4926 65.9769 45.1935C67.6033 44.8942 69.2395 44.2707 70.7844 43.6372C74.0066 42.3161 77.2222 40.9787 80.431 39.6251L80.5821 39.9834C77.3722 41.3375 74.1554 42.6754 70.9319 43.9971C69.3856 44.6312 67.7169 45.2687 66.0473 45.576C64.3759 45.8837 62.6893 45.8632 61.1134 45.1673C59.2337 44.3371 57.9315 42.7186 56.675 41.1185C56.6385 41.072 56.602 41.0255 56.5656 40.979C55.3361 39.4122 54.1354 37.8821 52.4553 37.0107C50.8177 36.1614 48.8976 36.028 46.9495 35.8927C46.7244 35.877 46.4989 35.8614 46.2734 35.8446C44.1199 35.6841 41.9703 35.4186 40.3288 33.9832C39.1667 32.9672 38.5355 31.5899 38.2173 30.1025C37.8994 28.6163 37.8913 27.0082 37.9842 25.5135C38.0004 25.2516 38.018 24.9887 38.0357 24.7253C38.1189 23.4844 38.203 22.2308 38.1446 21.0105C38.074 19.5345 37.7949 18.1265 37.0632 16.8787L37.2309 16.7804L37.0632 16.8787C35.5182 14.2438 32.2735 13.0165 29.1646 12.8329C27.6117 12.7414 26.0588 12.8592 24.4944 13.0158C24.1598 13.0493 23.8245 13.0846 23.4885 13.12C22.2579 13.2495 21.0187 13.3799 19.7782 13.4256L19.7711 13.2313L19.7782 13.4256C16.6186 13.5419 13.1717 13.0065 10.8204 10.7993L10.9535 10.6576L10.8204 10.7993C7.68392 7.85499 7.50399 2.98742 8.06044 -1.18281Z" fill="white"/>
<path fill-rule="evenodd" clip-rule="evenodd" d="M12.8383 -6.52476C13.7129 -13.0873 15.9647 -19.4626 19.4051 -25.1152L19.7373 -24.913C16.3249 -19.3065 14.0913 -12.9825 13.2238 -6.47338L13.0311 -6.49907L13.2238 -6.47337C12.6855 -2.43515 12.8898 2.11155 15.7841 4.83012C17.953 6.86718 21.1684 7.38796 24.1998 7.27633C25.3883 7.23246 26.5729 7.10775 27.7644 6.9823C28.0929 6.94773 28.4218 6.9131 28.7515 6.88009C30.273 6.72776 31.8052 6.61072 33.3442 6.70147C36.4197 6.88298 39.7239 8.10138 41.316 10.8183C42.0689 12.103 42.3473 13.5384 42.4175 15.0054C42.4753 16.2148 42.3917 17.459 42.3107 18.6647C42.2937 18.9183 42.2768 19.1702 42.2613 19.4196C42.1722 20.8565 42.1823 22.3778 42.4802 23.7711C42.7778 25.1631 43.3601 26.4152 44.4064 27.3307C45.892 28.6306 47.8534 28.8878 49.9507 29.0442C50.1685 29.0604 50.3877 29.0756 50.6079 29.0908C52.4855 29.2204 54.4325 29.3548 56.0969 30.2185C57.8026 31.1035 59.0139 32.6488 60.1903 34.1494C60.2323 34.203 60.2743 34.2566 60.3162 34.31C61.5443 35.8749 62.7532 37.3657 64.4759 38.1271C65.9114 38.7614 67.4634 38.7879 69.0393 38.4977C70.6169 38.2072 72.204 37.6021 73.703 36.987L73.7768 37.1669L73.703 36.987C76.8294 35.7043 79.9493 34.4057 83.0626 33.0914L83.2139 33.4497C80.0994 34.7645 76.9783 36.0636 73.8506 37.3468C72.3501 37.9625 70.7305 38.5818 69.1097 38.8802C67.4872 39.179 65.8493 39.1592 64.3187 38.4828C62.4935 37.6762 61.2293 36.1035 60.0102 34.5501C59.975 34.5052 59.9398 34.4603 59.9046 34.4155C58.7113 32.8938 57.5469 31.409 55.9178 30.5637C54.33 29.7397 52.4682 29.6102 50.5777 29.4788C50.3593 29.4636 50.1406 29.4484 49.9218 29.432C47.8323 29.2762 45.7446 29.0184 44.1503 27.6234C43.0216 26.6358 42.4088 25.2973 42.0998 23.8524C41.7911 22.4087 41.7831 20.8469 41.8731 19.3956C41.8888 19.1416 41.906 18.8867 41.9231 18.6313C42.004 17.426 42.0856 16.2089 42.029 15.024C41.9605 13.5914 41.6899 12.2254 40.9805 11.015L41.1483 10.9167L40.9805 11.015C39.4828 8.45915 36.3366 7.26769 33.3214 7.08973C31.8148 7.00089 30.3082 7.11511 28.7903 7.26708C28.4651 7.29964 28.1392 7.33397 27.8126 7.36835C26.6191 7.49403 25.4172 7.62059 24.2141 7.665L24.2141 7.665C21.1479 7.77791 17.8011 7.25816 15.5178 5.11362L15.6509 4.97187L15.5178 5.11361C12.4723 2.25298 12.2985 -2.47578 12.8383 -6.52476Z" fill="white"/>
<path fill-rule="evenodd" clip-rule="evenodd" d="M17.6167 -11.8644C18.4679 -18.2318 20.6589 -24.4164 24.0059 -29.9004L24.3379 -29.6978C21.019 -24.2599 18.8463 -18.1267 18.0022 -11.8129C17.479 -7.89628 17.6784 -3.48864 20.4915 -0.853403C22.5999 1.12101 25.7258 1.62635 28.6744 1.51819C29.8302 1.47557 30.9822 1.35462 32.141 1.23295C32.4608 1.19938 32.7811 1.16574 33.1022 1.13368C34.5823 0.985905 36.073 0.872372 37.5705 0.960524C40.5628 1.13655 43.7789 2.31855 45.3295 4.95651C46.0627 6.20376 46.3337 7.59724 46.4019 9.02097C46.4582 10.1943 46.3769 11.4013 46.2981 12.5708C46.2815 12.817 46.265 13.0616 46.25 13.3038C46.1632 14.6973 46.173 16.1723 46.4627 17.523C46.752 18.8724 47.318 20.0857 48.3347 20.9728C49.7783 22.2323 51.6847 22.4818 53.7251 22.6335C53.9369 22.6493 54.1501 22.664 54.3643 22.6787C56.1907 22.8044 58.0859 22.9349 59.7061 23.7733C61.3662 24.6324 62.5451 26.1321 63.6892 27.5874C63.7302 27.6396 63.7712 27.6918 63.8122 27.7438C65.0069 29.2619 66.1822 30.7069 67.8568 31.4448C69.252 32.0595 70.7607 32.0854 72.2931 31.804C73.8271 31.5223 75.3706 30.9356 76.8288 30.3389C79.8701 29.0945 82.9051 27.8349 85.9338 26.5601L86.0847 26.9186C83.0548 28.1938 80.0186 29.454 76.9761 30.6989C75.5164 31.2961 73.9405 31.8969 72.3633 32.1865C70.7844 32.4764 69.1901 32.4573 67.7 31.8007C65.923 31.0177 64.6923 29.491 63.5065 27.9844C63.4723 27.9408 63.438 27.8973 63.4038 27.8538C62.2429 26.3776 61.1109 24.9382 59.5273 24.1187C57.9836 23.3199 56.1734 23.1943 54.3341 23.0667C54.1218 23.052 53.909 23.0372 53.6963 23.0214C51.6638 22.8702 49.6313 22.6202 48.079 21.2659L48.2068 21.1193L48.079 21.2659C46.9798 20.3068 46.3831 19.007 46.0824 17.6045C45.7819 16.2033 45.7742 14.6876 45.8618 13.2797C45.8771 13.033 45.8938 12.7854 45.9105 12.5372C45.9891 11.3683 46.0685 10.1883 46.0135 9.0396C45.9468 7.65047 45.6837 6.32649 44.9942 5.1536C43.5382 2.67662 40.4802 1.52129 37.5477 1.34879C36.0825 1.26254 34.6174 1.37327 33.1408 1.52069C32.8243 1.5523 32.5069 1.58563 32.1889 1.61902C31.0282 1.74092 29.859 1.86371 28.6887 1.90686L28.6886 1.90686C25.7054 2.01629 22.4484 1.51203 20.2256 -0.569536L20.2256 -0.569555C17.2609 -3.34685 17.092 -7.93682 17.6167 -11.8644L17.6167 -11.8644Z" fill="white"/>
<path fill-rule="evenodd" clip-rule="evenodd" d="M22.1555 -17.1353C22.9828 -23.3308 25.1127 -29.349 28.3665 -34.6855L28.6986 -34.4831C25.4729 -29.1926 23.3612 -23.2258 22.541 -17.0838L22.3483 -17.1095L22.541 -17.0838C22.0319 -13.2726 22.2261 -8.98688 24.9589 -6.42457C27.0065 -4.50489 30.0434 -4.01329 32.9087 -4.11865C34.0323 -4.16012 35.152 -4.27779 36.2786 -4.39618C36.5892 -4.42883 36.9004 -4.46153 37.2123 -4.4927C38.651 -4.6365 40.1004 -4.74706 41.5566 -4.66151L41.5567 -4.66151C44.4664 -4.48988 47.5946 -3.3397 49.103 -0.770782L48.9354 -0.672314L49.1031 -0.770775C49.8162 0.443855 50.0797 1.80059 50.1461 3.18628C50.2008 4.32832 50.1218 5.50322 50.0452 6.64117C50.0291 6.88054 50.0131 7.11828 49.9985 7.35373L49.8044 7.34169L49.9985 7.35375C49.9142 8.70944 49.9237 10.1442 50.2051 11.4577C50.4862 12.7701 51.0359 13.9494 52.0229 14.8115C53.4249 16.0357 55.2762 16.2784 57.2596 16.4261C57.4654 16.4414 57.6727 16.4557 57.881 16.47C59.656 16.5923 61.4993 16.7193 63.0751 17.5355C64.6899 18.3719 65.8367 19.832 66.9487 21.2479C66.9886 21.2987 67.0285 21.3495 67.0683 21.4001C68.2298 22.8774 69.3715 24.2822 70.9978 24.9996C72.3525 25.5971 73.8178 25.6223 75.3065 25.3486C76.797 25.0747 78.2969 24.504 79.7143 23.9236C82.6706 22.7129 85.6207 21.4873 88.5645 20.2467L88.7155 20.6052C85.7705 21.8462 82.8192 23.0724 79.8617 24.2835C78.4428 24.8645 76.9105 25.4493 75.3769 25.7312C73.8415 26.0134 72.2906 25.9949 70.8409 25.3555L70.9194 25.1776L70.8409 25.3555C69.1121 24.5929 67.9151 23.1063 66.7626 21.6405C66.7294 21.5984 66.6963 21.5562 66.6632 21.5141C65.5343 20.0774 64.4345 18.6777 62.8962 17.8809C61.3969 17.1043 59.6388 16.9822 57.8508 16.858C57.6444 16.8437 57.4376 16.8293 57.2308 16.8139C55.2552 16.6668 53.2777 16.4235 51.7671 15.1044L51.895 14.958L51.767 15.1044C50.6975 14.1703 50.1172 12.9045 49.8248 11.5392C49.5326 10.1751 49.5251 8.69979 49.6103 7.32962C49.6252 7.08971 49.6414 6.84893 49.6576 6.60769C49.734 5.47026 49.8112 4.3224 49.7576 3.2049C49.6928 1.85378 49.4372 0.566452 48.7677 -0.573841C47.3538 -2.98171 44.3836 -4.10514 41.5338 -4.27325C40.11 -4.3569 38.6861 -4.24913 37.251 -4.10569C36.9436 -4.07497 36.6354 -4.04258 36.3266 -4.01012C35.1981 -3.89149 34.0611 -3.77198 32.9231 -3.72998L32.923 -3.72998C30.023 -3.62334 26.8549 -4.11387 24.6929 -6.14084L24.8259 -6.28271L24.6929 -6.14085C21.8086 -8.84521 21.6449 -13.3131 22.1555 -17.1353Z" fill="white"/>
<path fill-rule="evenodd" clip-rule="evenodd" d="M26.9353 -22.4752C27.7358 -28.4749 29.7974 -34.303 32.9461 -39.4707L33.2783 -39.2683C30.1576 -34.1467 28.1142 -28.37 27.3208 -22.4238L27.1281 -22.4495L27.3208 -22.4238C26.8283 -18.7337 27.0167 -14.5867 29.6583 -12.1084C31.6382 -10.2511 34.5741 -9.77529 37.3466 -9.87745L37.3538 -9.68312L37.3466 -9.87745C38.4339 -9.91747 39.5173 -10.0314 40.6078 -10.146C40.908 -10.1776 41.2088 -10.2092 41.5104 -10.2394C42.9026 -10.3786 44.3056 -10.4857 45.7151 -10.4027L45.7151 -10.4027C48.5315 -10.2365 51.5612 -9.12248 53.0222 -6.6326C53.713 -5.45524 53.968 -4.14039 54.0323 -2.7981C54.0853 -1.69172 54.0087 -0.55352 53.9346 0.548428C53.919 0.780006 53.9035 1.00999 53.8894 1.23774C53.8079 2.5501 53.8171 3.9386 54.0892 5.20964C54.361 6.47947 54.8924 7.61995 55.8462 8.45338L55.7182 8.59982L55.8462 8.45339C57.201 9.6373 58.9903 9.87233 60.9095 10.0153C61.1087 10.0302 61.3094 10.044 61.511 10.0579C63.2283 10.1763 65.0133 10.2993 66.5393 11.0902C68.1031 11.9007 69.2134 13.3154 70.2891 14.6859C70.3278 14.7353 70.3666 14.7847 70.4053 14.8339C71.5293 16.2645 72.6331 17.6234 74.2052 18.3172C75.5144 18.8951 76.9308 18.9195 78.3707 18.6547C79.8123 18.3895 81.2631 17.8372 82.6347 17.2752C85.4952 16.1029 88.3497 14.9162 91.1982 13.7152L91.3493 14.0735C88.4996 15.2751 85.6439 16.4623 82.7822 17.6351C81.4091 18.1977 79.9258 18.7641 78.441 19.0372C76.9545 19.3106 75.4524 19.2928 74.0482 18.6731C72.3737 17.934 71.2145 16.4933 70.0994 15.0742C70.0675 15.0335 70.0355 14.9928 70.0036 14.9521C68.911 13.5607 67.8476 12.2064 66.3603 11.4355C64.9108 10.6843 63.2111 10.5662 61.4808 10.4459C61.281 10.432 61.0809 10.4181 60.8806 10.4032C58.9692 10.2608 57.0537 10.0251 55.5902 8.74625C54.554 7.84076 53.992 6.61377 53.7089 5.29105C53.426 3.96957 53.4188 2.54047 53.5012 1.21363C53.5156 0.981415 53.5312 0.74839 53.5469 0.514931C53.6209 -0.586494 53.6956 -1.69767 53.6438 -2.7795C53.5812 -4.08725 53.3339 -5.33272 52.6867 -6.43576C51.3203 -8.76455 48.4486 -9.85182 45.6922 -10.0145C44.3151 -10.0956 42.9378 -9.99127 41.5491 -9.8524C41.2521 -9.82269 40.9543 -9.79138 40.6559 -9.75999C39.5635 -9.6451 38.4627 -9.52933 37.361 -9.48878C34.5537 -9.38534 31.4865 -9.86015 29.3922 -11.8248L29.5253 -11.9666L29.3922 -11.8248C26.5992 -14.4451 26.4414 -18.7743 26.9353 -22.4752Z" fill="white"/>
</g>
<path d="M38.9997 60.935C50.5609 60.935 59.9331 51.5629 59.9331 40.0017C59.9331 28.4405 50.5609 19.0684 38.9997 19.0684C27.4386 19.0684 18.0664 28.4405 18.0664 40.0017C18.0664 51.5629 27.4386 60.935 38.9997 60.935Z" fill="white"/>
<path fill-rule="evenodd" clip-rule="evenodd" d="M47.6445 34.3714C48.3918 35.1051 48.4028 36.3058 47.669 37.0531L38.4757 46.4157C38.1192 46.7788 37.6317 46.9834 37.1229 46.9835C36.6141 46.9836 36.1266 46.7792 35.77 46.4162L30.2508 40.7996C29.5167 40.0526 29.5272 38.8519 30.2742 38.1179C31.0213 37.3838 32.2219 37.3943 32.956 38.1413L37.1221 42.381L44.9628 34.3958C45.6966 33.6485 46.8972 33.6376 47.6445 34.3714Z" fill="#6BA7FA"/>
</g>
</svg>
