<svg width="310" height="175" viewBox="0 0 310 175" fill="none" xmlns="http://www.w3.org/2000/svg">
<path d="M90.3467 11V4.928L87.8387 9.536H87.0467L84.5267 4.928V11H83.1827V2.48H84.6227L87.4427 7.688L90.2627 2.48H91.7027V11H90.3467ZM96.1706 11.12C95.6746 11.12 95.2306 11.036 94.8386 10.868C94.4466 10.692 94.1066 10.452 93.8186 10.148C93.5386 9.844 93.3226 9.5 93.1706 9.116C93.0186 8.724 92.9426 8.308 92.9426 7.868C92.9426 7.428 93.0186 7.012 93.1706 6.62C93.3226 6.228 93.5386 5.884 93.8186 5.588C94.1066 5.284 94.4466 5.048 94.8386 4.88C95.2386 4.704 95.6826 4.616 96.1706 4.616C96.6586 4.616 97.0986 4.704 97.4906 4.88C97.8906 5.048 98.2306 5.284 98.5106 5.588C98.7986 5.884 99.0186 6.228 99.1706 6.62C99.3226 7.012 99.3986 7.428 99.3986 7.868C99.3986 8.308 99.3226 8.724 99.1706 9.116C99.0186 9.5 98.7986 9.844 98.5106 10.148C98.2306 10.452 97.8906 10.692 97.4906 10.868C97.0986 11.036 96.6586 11.12 96.1706 11.12ZM94.2986 7.88C94.2986 8.28 94.3826 8.64 94.5506 8.96C94.7186 9.28 94.9426 9.532 95.2226 9.716C95.5026 9.9 95.8186 9.992 96.1706 9.992C96.5146 9.992 96.8266 9.9 97.1066 9.716C97.3946 9.524 97.6226 9.268 97.7906 8.948C97.9586 8.62 98.0426 8.26 98.0426 7.868C98.0426 7.468 97.9586 7.108 97.7906 6.788C97.6226 6.468 97.3946 6.216 97.1066 6.032C96.8266 5.84 96.5146 5.744 96.1706 5.744C95.8186 5.744 95.5026 5.84 95.2226 6.032C94.9426 6.224 94.7186 6.48 94.5506 6.8C94.3826 7.112 94.2986 7.472 94.2986 7.88ZM93.5269 23.812V25H89.0029V23.812H90.6469V17.74C90.5829 17.836 90.4749 17.944 90.3229 18.064C90.1789 18.176 90.0149 18.288 89.8309 18.4C89.6469 18.504 89.4549 18.592 89.2549 18.664C89.0629 18.736 88.8869 18.772 88.7269 18.772V17.548C88.9429 17.548 89.1589 17.492 89.3749 17.38C89.5989 17.268 89.8069 17.14 89.9989 16.996C90.1909 16.844 90.3429 16.708 90.4549 16.588C90.5749 16.468 90.6389 16.404 90.6469 16.396H92.0029V23.812H93.5269Z" fill="#494957"/>
<path d="M125.263 3.668H122.431V11H121.075V3.668H118.231V2.48H125.263V3.668ZM125.369 8.564V4.724H126.689V8.3C126.689 8.86 126.789 9.284 126.989 9.572C127.197 9.852 127.497 9.992 127.889 9.992C128.137 9.992 128.377 9.94 128.609 9.836C128.849 9.732 129.065 9.58 129.257 9.38C129.457 9.172 129.617 8.924 129.737 8.636V4.724H131.057V9.512C131.057 9.664 131.085 9.772 131.141 9.836C131.197 9.9 131.289 9.936 131.417 9.944V11C131.281 11.024 131.169 11.04 131.081 11.048C130.993 11.056 130.909 11.06 130.829 11.06C130.589 11.06 130.389 10.996 130.229 10.868C130.069 10.732 129.977 10.56 129.953 10.352L129.929 9.728C129.649 10.184 129.285 10.532 128.837 10.772C128.389 11.004 127.897 11.12 127.361 11.12C126.705 11.12 126.209 10.904 125.873 10.472C125.537 10.04 125.369 9.404 125.369 8.564ZM121.936 25C121.936 24.512 121.972 24.084 122.044 23.716C122.116 23.348 122.228 23.016 122.38 22.72C122.532 22.424 122.724 22.164 122.956 21.94C123.188 21.716 123.456 21.512 123.76 21.328C124.056 21.152 124.36 20.988 124.672 20.836C124.992 20.684 125.288 20.524 125.56 20.356C125.832 20.188 126.048 19.992 126.208 19.768C126.376 19.536 126.46 19.256 126.46 18.928C126.46 18.664 126.404 18.432 126.292 18.232C126.188 18.032 126.028 17.876 125.812 17.764C125.604 17.644 125.336 17.584 125.008 17.584C124.672 17.584 124.36 17.644 124.072 17.764C123.792 17.876 123.544 18.016 123.328 18.184C123.12 18.352 122.952 18.516 122.824 18.676L121.984 17.8C122.064 17.704 122.192 17.576 122.368 17.416C122.552 17.256 122.776 17.096 123.04 16.936C123.312 16.776 123.624 16.644 123.976 16.54C124.328 16.428 124.724 16.372 125.164 16.372C125.772 16.372 126.28 16.484 126.688 16.708C127.104 16.924 127.416 17.224 127.624 17.608C127.84 17.984 127.948 18.408 127.948 18.88C127.948 19.264 127.88 19.6 127.744 19.888C127.608 20.168 127.428 20.412 127.204 20.62C126.988 20.82 126.744 21 126.472 21.16C126.208 21.32 125.944 21.472 125.68 21.616C125.224 21.848 124.856 22.056 124.576 22.24C124.304 22.424 124.088 22.6 123.928 22.768C123.776 22.936 123.668 23.104 123.604 23.272C123.54 23.44 123.496 23.62 123.472 23.812H127.96V25H121.936Z" fill="#494957"/>
<path d="M154.027 2.516H155.287L156.343 5.408L157.411 2.516H158.671L157.207 6.308L158.479 9.44L161.131 2.48H162.607L159.115 11H157.951L156.355 7.184L154.747 11H153.571L150.091 2.48H151.555L154.219 9.44L155.491 6.308L154.027 2.516ZM165.456 11.12C164.968 11.12 164.524 11.036 164.124 10.868C163.732 10.692 163.392 10.456 163.104 10.16C162.816 9.856 162.592 9.512 162.432 9.128C162.28 8.736 162.204 8.32 162.204 7.88C162.204 7.288 162.34 6.748 162.612 6.26C162.884 5.764 163.264 5.368 163.752 5.072C164.24 4.768 164.812 4.616 165.468 4.616C166.124 4.616 166.688 4.768 167.16 5.072C167.64 5.368 168.012 5.76 168.276 6.248C168.54 6.736 168.672 7.26 168.672 7.82C168.672 7.916 168.668 8.008 168.66 8.096C168.652 8.176 168.644 8.244 168.636 8.3H163.608C163.632 8.668 163.732 8.992 163.908 9.272C164.092 9.544 164.324 9.76 164.604 9.92C164.884 10.072 165.184 10.148 165.504 10.148C165.856 10.148 166.188 10.06 166.5 9.884C166.82 9.708 167.036 9.476 167.148 9.188L168.276 9.512C168.14 9.816 167.932 10.092 167.652 10.34C167.38 10.58 167.056 10.772 166.68 10.916C166.304 11.052 165.896 11.12 165.456 11.12ZM163.572 7.424H167.364C167.34 7.064 167.236 6.748 167.052 6.476C166.876 6.196 166.648 5.98 166.368 5.828C166.096 5.668 165.792 5.588 165.456 5.588C165.128 5.588 164.824 5.668 164.544 5.828C164.272 5.98 164.048 6.196 163.872 6.476C163.696 6.748 163.596 7.064 163.572 7.424ZM159.314 25.096C158.842 25.096 158.41 25.028 158.018 24.892C157.634 24.756 157.31 24.56 157.046 24.304C156.782 24.048 156.59 23.752 156.47 23.416L157.19 22.552C157.246 22.76 157.362 22.968 157.538 23.176C157.722 23.384 157.958 23.552 158.246 23.68C158.542 23.808 158.886 23.872 159.278 23.872C159.622 23.872 159.926 23.82 160.19 23.716C160.462 23.604 160.678 23.448 160.838 23.248C160.998 23.048 161.078 22.812 161.078 22.54C161.078 22.236 160.982 21.98 160.79 21.772C160.598 21.564 160.322 21.408 159.962 21.304C159.602 21.2 159.17 21.148 158.666 21.148H158.258V20.092H158.666C159.33 20.092 159.858 19.984 160.25 19.768C160.65 19.552 160.85 19.232 160.85 18.808C160.85 18.544 160.778 18.316 160.634 18.124C160.49 17.924 160.302 17.776 160.07 17.68C159.838 17.576 159.582 17.524 159.302 17.524C158.846 17.524 158.45 17.628 158.114 17.836C157.778 18.044 157.534 18.3 157.382 18.604L156.518 17.656C156.686 17.392 156.918 17.164 157.214 16.972C157.51 16.78 157.842 16.632 158.21 16.528C158.586 16.424 158.966 16.372 159.35 16.372C159.91 16.372 160.41 16.472 160.85 16.672C161.29 16.872 161.634 17.148 161.882 17.5C162.13 17.844 162.254 18.236 162.254 18.676C162.254 18.996 162.186 19.284 162.05 19.54C161.922 19.796 161.734 20.012 161.486 20.188C161.246 20.356 160.958 20.48 160.622 20.56C160.982 20.624 161.298 20.76 161.57 20.968C161.85 21.176 162.062 21.432 162.206 21.736C162.358 22.04 162.434 22.372 162.434 22.732C162.434 23.228 162.29 23.652 162.002 24.004C161.722 24.356 161.346 24.628 160.874 24.82C160.402 25.004 159.882 25.096 159.314 25.096Z" fill="#494957"/>
<path d="M193.435 3.668H190.603V11H189.247V3.668H186.403V2.48H193.435V3.668ZM200.037 11H198.717V7.484C198.717 6.916 198.613 6.492 198.405 6.212C198.197 5.932 197.905 5.792 197.529 5.792C197.297 5.792 197.057 5.856 196.809 5.984C196.561 6.112 196.341 6.288 196.149 6.512C195.957 6.728 195.817 6.98 195.729 7.268V11H194.409V2.24H195.729V5.984C195.969 5.56 196.297 5.228 196.713 4.988C197.129 4.74 197.577 4.616 198.057 4.616C198.449 4.616 198.773 4.684 199.029 4.82C199.285 4.956 199.485 5.144 199.629 5.384C199.781 5.616 199.885 5.888 199.941 6.2C200.005 6.504 200.037 6.828 200.037 7.172V11ZM194.142 25V22.936H190.338V21.76L194.55 16.48H195.462V21.748H196.518V22.936H195.462V25H194.142ZM191.682 21.748H194.286V18.484L191.682 21.748Z" fill="#494957"/>
<path d="M222.435 11V2.48H228.111V3.668H223.779V6.212H227.403V7.328H223.779V11H222.435ZM232.357 5.864C231.845 5.872 231.389 5.988 230.989 6.212C230.597 6.436 230.317 6.752 230.149 7.16V11H228.829V4.724H230.053V6.128C230.269 5.696 230.553 5.352 230.905 5.096C231.257 4.832 231.629 4.688 232.021 4.664C232.101 4.664 232.165 4.664 232.213 4.664C232.269 4.664 232.317 4.668 232.357 4.676V5.864ZM226.835 25.12C226.219 25.12 225.667 24.984 225.179 24.712C224.699 24.432 224.327 24.052 224.063 23.572L224.855 22.816C225.079 23.16 225.367 23.436 225.719 23.644C226.071 23.844 226.447 23.944 226.847 23.944C227.175 23.944 227.467 23.876 227.723 23.74C227.979 23.596 228.179 23.4 228.323 23.152C228.475 22.904 228.551 22.616 228.551 22.288C228.551 21.968 228.479 21.688 228.335 21.448C228.199 21.2 228.007 21.008 227.759 20.872C227.519 20.736 227.247 20.668 226.943 20.668C226.639 20.668 226.351 20.736 226.079 20.872C225.815 21.008 225.603 21.2 225.443 21.448H224.267L225.239 16.48H229.403V17.692H226.199L225.767 20.008C225.911 19.864 226.095 19.748 226.319 19.66C226.551 19.572 226.815 19.528 227.111 19.528C227.647 19.528 228.123 19.644 228.539 19.876C228.963 20.108 229.295 20.428 229.535 20.836C229.783 21.244 229.907 21.716 229.907 22.252C229.907 22.82 229.771 23.32 229.499 23.752C229.227 24.176 228.859 24.512 228.395 24.76C227.939 25 227.419 25.12 226.835 25.12Z" fill="#494957"/>
<path d="M260.451 4.484C260.371 4.396 260.255 4.304 260.103 4.208C259.951 4.104 259.771 4.008 259.563 3.92C259.355 3.832 259.131 3.76 258.891 3.704C258.651 3.648 258.403 3.62 258.147 3.62C257.587 3.62 257.171 3.724 256.899 3.932C256.627 4.14 256.491 4.428 256.491 4.796C256.491 5.068 256.567 5.284 256.719 5.444C256.871 5.596 257.103 5.724 257.415 5.828C257.727 5.932 258.119 6.044 258.591 6.164C259.167 6.3 259.667 6.464 260.091 6.656C260.515 6.84 260.839 7.088 261.063 7.4C261.287 7.712 261.399 8.124 261.399 8.636C261.399 9.068 261.319 9.44 261.159 9.752C260.999 10.064 260.775 10.32 260.487 10.52C260.199 10.712 259.867 10.856 259.491 10.952C259.115 11.04 258.711 11.084 258.279 11.084C257.855 11.084 257.431 11.04 257.007 10.952C256.591 10.864 256.191 10.736 255.807 10.568C255.431 10.392 255.083 10.18 254.763 9.932L255.375 8.78C255.479 8.884 255.627 9 255.819 9.128C256.019 9.248 256.247 9.364 256.503 9.476C256.767 9.588 257.051 9.684 257.355 9.764C257.667 9.836 257.983 9.872 258.303 9.872C258.839 9.872 259.247 9.78 259.527 9.596C259.815 9.404 259.959 9.132 259.959 8.78C259.959 8.492 259.867 8.264 259.683 8.096C259.499 7.92 259.231 7.772 258.879 7.652C258.527 7.532 258.107 7.412 257.619 7.292C257.059 7.14 256.591 6.976 256.215 6.8C255.839 6.616 255.555 6.384 255.363 6.104C255.179 5.816 255.087 5.452 255.087 5.012C255.087 4.452 255.223 3.98 255.495 3.596C255.767 3.204 256.135 2.912 256.599 2.72C257.071 2.52 257.599 2.42 258.183 2.42C258.567 2.42 258.931 2.464 259.275 2.552C259.619 2.632 259.939 2.744 260.235 2.888C260.539 3.032 260.815 3.196 261.063 3.38L260.451 4.484ZM262.111 9.164C262.111 8.764 262.223 8.416 262.447 8.12C262.679 7.816 262.995 7.584 263.395 7.424C263.795 7.256 264.259 7.172 264.787 7.172C265.067 7.172 265.351 7.192 265.639 7.232C265.935 7.272 266.195 7.336 266.419 7.424V7.028C266.419 6.588 266.287 6.244 266.023 5.996C265.759 5.748 265.379 5.624 264.883 5.624C264.531 5.624 264.199 5.688 263.887 5.816C263.575 5.936 263.243 6.108 262.891 6.332L262.447 5.444C262.863 5.164 263.279 4.956 263.695 4.82C264.119 4.684 264.563 4.616 265.027 4.616C265.867 4.616 266.527 4.84 267.007 5.288C267.495 5.728 267.739 6.356 267.739 7.172V9.512C267.739 9.664 267.763 9.772 267.811 9.836C267.867 9.9 267.959 9.936 268.087 9.944V11C267.967 11.024 267.859 11.04 267.763 11.048C267.667 11.056 267.587 11.06 267.523 11.06C267.243 11.06 267.031 10.992 266.887 10.856C266.743 10.72 266.659 10.56 266.635 10.376L266.599 10.016C266.327 10.368 265.979 10.64 265.555 10.832C265.131 11.024 264.703 11.12 264.271 11.12C263.855 11.12 263.483 11.036 263.155 10.868C262.827 10.692 262.571 10.456 262.387 10.16C262.203 9.864 262.111 9.532 262.111 9.164ZM266.107 9.548C266.203 9.444 266.279 9.34 266.335 9.236C266.391 9.132 266.419 9.04 266.419 8.96V8.24C266.195 8.152 265.959 8.088 265.711 8.048C265.463 8 265.219 7.976 264.979 7.976C264.499 7.976 264.107 8.072 263.803 8.264C263.507 8.456 263.359 8.72 263.359 9.056C263.359 9.24 263.407 9.416 263.503 9.584C263.607 9.752 263.751 9.888 263.935 9.992C264.127 10.096 264.363 10.148 264.643 10.148C264.931 10.148 265.207 10.092 265.471 9.98C265.735 9.868 265.947 9.724 266.107 9.548ZM264.623 22.168C264.623 21.632 264.491 21.152 264.227 20.728C263.971 20.296 263.619 19.952 263.171 19.696C262.731 19.44 262.231 19.312 261.671 19.312C261.375 19.312 261.095 19.36 260.831 19.456C260.567 19.552 260.335 19.688 260.135 19.864C259.943 20.032 259.787 20.236 259.667 20.476C259.675 19.86 259.759 19.336 259.919 18.904C260.087 18.472 260.319 18.144 260.615 17.92C260.919 17.688 261.267 17.572 261.659 17.572C262.051 17.572 262.407 17.672 262.727 17.872C263.055 18.064 263.311 18.328 263.495 18.664L264.275 17.848C263.995 17.4 263.627 17.052 263.171 16.804C262.723 16.548 262.227 16.42 261.683 16.42C261.027 16.42 260.455 16.604 259.967 16.972C259.479 17.34 259.099 17.888 258.827 18.616C258.563 19.344 258.431 20.252 258.431 21.34C258.431 22.124 258.559 22.8 258.815 23.368C259.079 23.936 259.443 24.372 259.907 24.676C260.379 24.972 260.927 25.12 261.551 25.12C262.127 25.12 262.647 24.988 263.111 24.724C263.583 24.46 263.951 24.104 264.215 23.656C264.487 23.208 264.623 22.712 264.623 22.168ZM261.551 23.992C261.231 23.992 260.931 23.908 260.651 23.74C260.379 23.572 260.159 23.352 259.991 23.08C259.823 22.8 259.739 22.496 259.739 22.168C259.739 21.84 259.819 21.54 259.979 21.268C260.147 20.996 260.371 20.78 260.651 20.62C260.931 20.452 261.231 20.368 261.551 20.368C261.887 20.368 262.191 20.452 262.463 20.62C262.735 20.78 262.951 20.996 263.111 21.268C263.279 21.54 263.363 21.84 263.363 22.168C263.363 22.496 263.279 22.8 263.111 23.08C262.951 23.36 262.731 23.584 262.451 23.752C262.179 23.912 261.879 23.992 261.551 23.992Z" fill="#494957"/>
<path d="M294.182 4.484C294.102 4.396 293.986 4.304 293.834 4.208C293.682 4.104 293.502 4.008 293.294 3.92C293.086 3.832 292.862 3.76 292.622 3.704C292.382 3.648 292.134 3.62 291.878 3.62C291.318 3.62 290.902 3.724 290.63 3.932C290.358 4.14 290.222 4.428 290.222 4.796C290.222 5.068 290.298 5.284 290.45 5.444C290.602 5.596 290.834 5.724 291.146 5.828C291.458 5.932 291.85 6.044 292.322 6.164C292.898 6.3 293.398 6.464 293.822 6.656C294.246 6.84 294.57 7.088 294.794 7.4C295.018 7.712 295.13 8.124 295.13 8.636C295.13 9.068 295.05 9.44 294.89 9.752C294.73 10.064 294.506 10.32 294.218 10.52C293.93 10.712 293.598 10.856 293.222 10.952C292.846 11.04 292.442 11.084 292.01 11.084C291.586 11.084 291.162 11.04 290.738 10.952C290.322 10.864 289.922 10.736 289.538 10.568C289.162 10.392 288.814 10.18 288.494 9.932L289.106 8.78C289.21 8.884 289.358 9 289.55 9.128C289.75 9.248 289.978 9.364 290.234 9.476C290.498 9.588 290.782 9.684 291.086 9.764C291.398 9.836 291.714 9.872 292.034 9.872C292.57 9.872 292.978 9.78 293.258 9.596C293.546 9.404 293.69 9.132 293.69 8.78C293.69 8.492 293.598 8.264 293.414 8.096C293.23 7.92 292.962 7.772 292.61 7.652C292.258 7.532 291.838 7.412 291.35 7.292C290.79 7.14 290.322 6.976 289.946 6.8C289.57 6.616 289.286 6.384 289.094 6.104C288.91 5.816 288.818 5.452 288.818 5.012C288.818 4.452 288.954 3.98 289.226 3.596C289.498 3.204 289.866 2.912 290.33 2.72C290.802 2.52 291.33 2.42 291.914 2.42C292.298 2.42 292.662 2.464 293.006 2.552C293.35 2.632 293.67 2.744 293.966 2.888C294.27 3.032 294.546 3.196 294.794 3.38L294.182 4.484ZM296.238 8.564V4.724H297.558V8.3C297.558 8.86 297.658 9.284 297.858 9.572C298.066 9.852 298.366 9.992 298.758 9.992C299.006 9.992 299.246 9.94 299.478 9.836C299.718 9.732 299.934 9.58 300.126 9.38C300.326 9.172 300.486 8.924 300.606 8.636V4.724H301.926V9.512C301.926 9.664 301.954 9.772 302.01 9.836C302.066 9.9 302.158 9.936 302.286 9.944V11C302.15 11.024 302.038 11.04 301.95 11.048C301.862 11.056 301.778 11.06 301.698 11.06C301.458 11.06 301.258 10.996 301.098 10.868C300.938 10.732 300.846 10.56 300.822 10.352L300.798 9.728C300.518 10.184 300.154 10.532 299.706 10.772C299.258 11.004 298.766 11.12 298.23 11.12C297.574 11.12 297.078 10.904 296.742 10.472C296.406 10.04 296.238 9.404 296.238 8.564ZM296.737 17.692H292.609V16.48H298.825L294.553 25H293.065L296.737 17.692Z" fill="#494957"/>
<path d="M10.5002 51.12C9.90022 51.104 9.37222 50.964 8.91622 50.7C8.46022 50.436 8.08022 50.092 7.77622 49.668C7.47222 49.236 7.24022 48.772 7.08022 48.276C6.92822 47.772 6.85222 47.28 6.85222 46.8C6.85222 46.288 6.93622 45.776 7.10422 45.264C7.27222 44.752 7.51622 44.288 7.83622 43.872C8.15622 43.448 8.54022 43.112 8.98822 42.864C9.43622 42.608 9.94022 42.48 10.5002 42.48C11.1002 42.48 11.6242 42.616 12.0722 42.888C12.5282 43.16 12.9082 43.512 13.2122 43.944C13.5162 44.376 13.7442 44.844 13.8962 45.348C14.0562 45.852 14.1362 46.336 14.1362 46.8C14.1362 47.32 14.0522 47.836 13.8842 48.348C13.7162 48.852 13.4722 49.312 13.1522 49.728C12.8322 50.144 12.4482 50.48 12.0002 50.736C11.5602 50.984 11.0602 51.112 10.5002 51.12ZM8.22022 46.8C8.23622 47.168 8.28822 47.536 8.37622 47.904C8.47222 48.264 8.61622 48.596 8.80822 48.9C9.00022 49.204 9.23622 49.448 9.51622 49.632C9.79622 49.816 10.1242 49.908 10.5002 49.908C10.8922 49.908 11.2282 49.812 11.5082 49.62C11.7962 49.42 12.0322 49.164 12.2162 48.852C12.4002 48.532 12.5362 48.192 12.6242 47.832C12.7202 47.472 12.7682 47.128 12.7682 46.8C12.7682 46.432 12.7162 46.068 12.6122 45.708C12.5162 45.34 12.3722 45.004 12.1802 44.7C11.9882 44.396 11.7522 44.152 11.4722 43.968C11.1922 43.784 10.8682 43.692 10.5002 43.692C10.1082 43.692 9.76822 43.792 9.48022 43.992C9.19222 44.184 8.95622 44.44 8.77222 44.76C8.58822 45.072 8.44822 45.408 8.35222 45.768C8.26422 46.128 8.22022 46.472 8.22022 46.8ZM21.316 48.54C21.316 49.052 21.176 49.5 20.896 49.884C20.624 50.268 20.252 50.568 19.78 50.784C19.316 50.992 18.808 51.096 18.256 51.096C17.688 51.096 17.176 50.984 16.72 50.76C16.264 50.528 15.9 50.216 15.628 49.824C15.356 49.432 15.22 48.984 15.22 48.48C15.22 48.144 15.296 47.844 15.448 47.58C15.6 47.308 15.788 47.076 16.012 46.884C16.236 46.692 16.464 46.544 16.696 46.44C16.48 46.336 16.28 46.204 16.096 46.044C15.92 45.876 15.776 45.684 15.664 45.468C15.56 45.252 15.508 45.02 15.508 44.772C15.508 44.404 15.588 44.08 15.748 43.8C15.916 43.512 16.136 43.272 16.408 43.08C16.68 42.88 16.976 42.732 17.296 42.636C17.624 42.532 17.948 42.48 18.268 42.48C18.596 42.48 18.92 42.532 19.24 42.636C19.568 42.732 19.868 42.876 20.14 43.068C20.42 43.26 20.64 43.5 20.8 43.788C20.968 44.068 21.052 44.392 21.052 44.76C21.052 45.008 20.996 45.244 20.884 45.468C20.78 45.684 20.632 45.876 20.44 46.044C20.256 46.212 20.056 46.344 19.84 46.44C20.096 46.552 20.336 46.708 20.56 46.908C20.792 47.108 20.976 47.344 21.112 47.616C21.248 47.888 21.316 48.196 21.316 48.54ZM19.984 48.456C19.984 48.224 19.932 48.016 19.828 47.832C19.732 47.648 19.6 47.496 19.432 47.376C19.264 47.248 19.08 47.152 18.88 47.088C18.68 47.024 18.476 46.992 18.268 46.992C17.972 46.992 17.696 47.052 17.44 47.172C17.184 47.292 16.976 47.464 16.816 47.688C16.656 47.904 16.576 48.16 16.576 48.456C16.576 48.68 16.624 48.884 16.72 49.068C16.816 49.244 16.944 49.396 17.104 49.524C17.272 49.652 17.456 49.748 17.656 49.812C17.864 49.876 18.072 49.908 18.28 49.908C18.568 49.908 18.84 49.848 19.096 49.728C19.36 49.6 19.572 49.428 19.732 49.212C19.9 48.988 19.984 48.736 19.984 48.456ZM16.84 44.82C16.84 45.068 16.912 45.28 17.056 45.456C17.2 45.632 17.384 45.764 17.608 45.852C17.832 45.94 18.052 45.984 18.268 45.984C18.492 45.984 18.712 45.94 18.928 45.852C19.152 45.756 19.336 45.62 19.48 45.444C19.632 45.268 19.708 45.052 19.708 44.796C19.708 44.564 19.64 44.364 19.504 44.196C19.368 44.02 19.188 43.888 18.964 43.8C18.748 43.704 18.516 43.656 18.268 43.656C18.02 43.656 17.784 43.704 17.56 43.8C17.344 43.896 17.168 44.032 17.032 44.208C16.904 44.376 16.84 44.58 16.84 44.82ZM22.607 48.312V47.124H26.195V48.312H22.607ZM31.1018 51.12C30.5018 51.104 29.9738 50.964 29.5178 50.7C29.0618 50.436 28.6818 50.092 28.3778 49.668C28.0738 49.236 27.8418 48.772 27.6818 48.276C27.5298 47.772 27.4538 47.28 27.4538 46.8C27.4538 46.288 27.5378 45.776 27.7058 45.264C27.8738 44.752 28.1178 44.288 28.4378 43.872C28.7578 43.448 29.1418 43.112 29.5898 42.864C30.0378 42.608 30.5418 42.48 31.1018 42.48C31.7018 42.48 32.2258 42.616 32.6738 42.888C33.1298 43.16 33.5098 43.512 33.8138 43.944C34.1178 44.376 34.3458 44.844 34.4978 45.348C34.6578 45.852 34.7378 46.336 34.7378 46.8C34.7378 47.32 34.6538 47.836 34.4858 48.348C34.3178 48.852 34.0738 49.312 33.7538 49.728C33.4338 50.144 33.0498 50.48 32.6018 50.736C32.1618 50.984 31.6618 51.112 31.1018 51.12ZM28.8218 46.8C28.8378 47.168 28.8898 47.536 28.9778 47.904C29.0738 48.264 29.2178 48.596 29.4098 48.9C29.6018 49.204 29.8378 49.448 30.1178 49.632C30.3978 49.816 30.7258 49.908 31.1018 49.908C31.4938 49.908 31.8298 49.812 32.1098 49.62C32.3978 49.42 32.6338 49.164 32.8178 48.852C33.0018 48.532 33.1378 48.192 33.2258 47.832C33.3218 47.472 33.3698 47.128 33.3698 46.8C33.3698 46.432 33.3178 46.068 33.2138 45.708C33.1178 45.34 32.9738 45.004 32.7818 44.7C32.5898 44.396 32.3538 44.152 32.0738 43.968C31.7938 43.784 31.4698 43.692 31.1018 43.692C30.7098 43.692 30.3698 43.792 30.0818 43.992C29.7938 44.184 29.5578 44.44 29.3738 44.76C29.1898 45.072 29.0498 45.408 28.9538 45.768C28.8658 46.128 28.8218 46.472 28.8218 46.8ZM35.7735 45.372C35.7735 45.9 35.9015 46.38 36.1575 46.812C36.4215 47.244 36.7775 47.588 37.2255 47.844C37.6815 48.1 38.1815 48.228 38.7255 48.228C39.0295 48.228 39.3095 48.18 39.5655 48.084C39.8295 47.988 40.0615 47.852 40.2615 47.676C40.4615 47.5 40.6175 47.296 40.7295 47.064C40.7295 47.672 40.6455 48.196 40.4775 48.636C40.3095 49.068 40.0775 49.396 39.7815 49.62C39.4855 49.844 39.1375 49.956 38.7375 49.956C38.3535 49.956 37.9975 49.856 37.6695 49.656C37.3415 49.456 37.0855 49.192 36.9015 48.864L36.1215 49.68C36.4015 50.136 36.7695 50.492 37.2255 50.748C37.6815 50.996 38.1815 51.12 38.7255 51.12C39.3815 51.12 39.9495 50.936 40.4295 50.568C40.9175 50.192 41.2935 49.64 41.5575 48.912C41.8295 48.184 41.9655 47.276 41.9655 46.188C41.9655 45.396 41.8335 44.72 41.5695 44.16C41.3135 43.6 40.9535 43.172 40.4895 42.876C40.0335 42.572 39.4895 42.42 38.8575 42.42C38.2815 42.42 37.7575 42.552 37.2855 42.816C36.8215 43.072 36.4535 43.424 36.1815 43.872C35.9095 44.32 35.7735 44.82 35.7735 45.372ZM38.8455 43.536C39.1735 43.536 39.4735 43.62 39.7455 43.788C40.0255 43.956 40.2495 44.18 40.4175 44.46C40.5855 44.732 40.6695 45.036 40.6695 45.372C40.6695 45.692 40.5855 45.988 40.4175 46.26C40.2575 46.532 40.0375 46.752 39.7575 46.92C39.4855 47.08 39.1855 47.16 38.8575 47.16C38.5295 47.16 38.2255 47.08 37.9455 46.92C37.6735 46.752 37.4535 46.532 37.2855 46.26C37.1255 45.988 37.0455 45.688 37.0455 45.36C37.0455 45.032 37.1255 44.728 37.2855 44.448C37.4535 44.168 37.6735 43.948 37.9455 43.788C38.2175 43.62 38.5175 43.536 38.8455 43.536ZM48.5567 42.48H49.8287L53.1407 51H51.7247L50.8247 48.684H47.5367L46.6487 51H45.2207L48.5567 42.48ZM50.5607 47.688L49.1927 43.956L47.7767 47.688H50.5607ZM61.3584 51V44.928L58.8504 49.536H58.0584L55.5384 44.928V51H54.1944V42.48H55.6344L58.4544 47.688L61.2744 42.48H62.7144V51H61.3584Z" fill="#494957"/>
<path d="M14.6695 107.812V109H10.1455V107.812H11.7895V101.74C11.7255 101.836 11.6175 101.944 11.4655 102.064C11.3215 102.176 11.1575 102.288 10.9735 102.4C10.7895 102.504 10.5975 102.592 10.3975 102.664C10.2055 102.736 10.0295 102.772 9.86952 102.772V101.548C10.0855 101.548 10.3015 101.492 10.5175 101.38C10.7415 101.268 10.9495 101.14 11.1415 100.996C11.3335 100.844 11.4855 100.708 11.5975 100.588C11.7175 100.468 11.7815 100.404 11.7895 100.396H13.1455V107.812H14.6695ZM15.4596 109C15.4596 108.512 15.4956 108.084 15.5676 107.716C15.6396 107.348 15.7516 107.016 15.9036 106.72C16.0556 106.424 16.2476 106.164 16.4796 105.94C16.7116 105.716 16.9796 105.512 17.2836 105.328C17.5796 105.152 17.8836 104.988 18.1956 104.836C18.5156 104.684 18.8116 104.524 19.0836 104.356C19.3556 104.188 19.5716 103.992 19.7316 103.768C19.8996 103.536 19.9836 103.256 19.9836 102.928C19.9836 102.664 19.9276 102.432 19.8156 102.232C19.7116 102.032 19.5516 101.876 19.3356 101.764C19.1276 101.644 18.8596 101.584 18.5316 101.584C18.1956 101.584 17.8836 101.644 17.5956 101.764C17.3156 101.876 17.0676 102.016 16.8516 102.184C16.6436 102.352 16.4756 102.516 16.3476 102.676L15.5076 101.8C15.5876 101.704 15.7156 101.576 15.8916 101.416C16.0756 101.256 16.2996 101.096 16.5636 100.936C16.8356 100.776 17.1476 100.644 17.4996 100.54C17.8516 100.428 18.2476 100.372 18.6876 100.372C19.2956 100.372 19.8036 100.484 20.2116 100.708C20.6276 100.924 20.9396 101.224 21.1476 101.608C21.3636 101.984 21.4716 102.408 21.4716 102.88C21.4716 103.264 21.4036 103.6 21.2676 103.888C21.1316 104.168 20.9516 104.412 20.7276 104.62C20.5116 104.82 20.2676 105 19.9956 105.16C19.7316 105.32 19.4676 105.472 19.2036 105.616C18.7476 105.848 18.3796 106.056 18.0996 106.24C17.8276 106.424 17.6116 106.6 17.4516 106.768C17.2996 106.936 17.1916 107.104 17.1276 107.272C17.0636 107.44 17.0196 107.62 16.9956 107.812H21.4836V109H15.4596ZM22.8472 106.312V105.124H26.4352V106.312H22.8472ZM32.482 107.812V109H27.958V107.812H29.602V101.74C29.538 101.836 29.43 101.944 29.278 102.064C29.134 102.176 28.97 102.288 28.786 102.4C28.602 102.504 28.41 102.592 28.21 102.664C28.018 102.736 27.842 102.772 27.682 102.772V101.548C27.898 101.548 28.114 101.492 28.33 101.38C28.554 101.268 28.762 101.14 28.954 100.996C29.146 100.844 29.298 100.708 29.41 100.588C29.53 100.468 29.594 100.404 29.602 100.396H30.958V107.812H32.482ZM36.0681 109.096C35.5961 109.096 35.1641 109.028 34.7721 108.892C34.3881 108.756 34.0641 108.56 33.8001 108.304C33.5361 108.048 33.3441 107.752 33.2241 107.416L33.9441 106.552C34.0001 106.76 34.1161 106.968 34.2921 107.176C34.4761 107.384 34.7121 107.552 35.0001 107.68C35.2961 107.808 35.6401 107.872 36.0321 107.872C36.3761 107.872 36.6801 107.82 36.9441 107.716C37.2161 107.604 37.4321 107.448 37.5921 107.248C37.7521 107.048 37.8321 106.812 37.8321 106.54C37.8321 106.236 37.7361 105.98 37.5441 105.772C37.3521 105.564 37.0761 105.408 36.7161 105.304C36.3561 105.2 35.9241 105.148 35.4201 105.148H35.0121V104.092H35.4201C36.0841 104.092 36.6121 103.984 37.0041 103.768C37.4041 103.552 37.6041 103.232 37.6041 102.808C37.6041 102.544 37.5321 102.316 37.3881 102.124C37.2441 101.924 37.0561 101.776 36.8241 101.68C36.5921 101.576 36.3361 101.524 36.0561 101.524C35.6001 101.524 35.2041 101.628 34.8681 101.836C34.5321 102.044 34.2881 102.3 34.1361 102.604L33.2721 101.656C33.4401 101.392 33.6721 101.164 33.9681 100.972C34.2641 100.78 34.5961 100.632 34.9641 100.528C35.3401 100.424 35.7201 100.372 36.1041 100.372C36.6641 100.372 37.1641 100.472 37.6041 100.672C38.0441 100.872 38.3881 101.148 38.6361 101.5C38.8841 101.844 39.0081 102.236 39.0081 102.676C39.0081 102.996 38.9401 103.284 38.8041 103.54C38.6761 103.796 38.4881 104.012 38.2401 104.188C38.0001 104.356 37.7121 104.48 37.3761 104.56C37.7361 104.624 38.0521 104.76 38.3241 104.968C38.6041 105.176 38.8161 105.432 38.9601 105.736C39.1121 106.04 39.1881 106.372 39.1881 106.732C39.1881 107.228 39.0441 107.652 38.7561 108.004C38.4761 108.356 38.1001 108.628 37.6281 108.82C37.1561 109.004 36.6361 109.096 36.0681 109.096ZM43.6885 109V100.48H47.2645C47.6485 100.48 48.0005 100.56 48.3205 100.72C48.6405 100.88 48.9205 101.092 49.1605 101.356C49.4005 101.62 49.5845 101.916 49.7125 102.244C49.8405 102.572 49.9045 102.908 49.9045 103.252C49.9045 103.724 49.7965 104.176 49.5805 104.608C49.3725 105.032 49.0725 105.376 48.6805 105.64C48.2965 105.904 47.8485 106.036 47.3365 106.036H45.0325V109H43.6885ZM45.0325 104.848H47.2525C47.5085 104.848 47.7325 104.78 47.9245 104.644C48.1165 104.5 48.2645 104.308 48.3685 104.068C48.4805 103.828 48.5365 103.556 48.5365 103.252C48.5365 102.94 48.4725 102.664 48.3445 102.424C48.2165 102.184 48.0485 102 47.8405 101.872C47.6405 101.736 47.4205 101.668 47.1805 101.668H45.0325V104.848ZM58.3291 109V102.928L55.8211 107.536H55.0291L52.5091 102.928V109H51.1651V100.48H52.6051L55.4251 105.688L58.2451 100.48H59.6851V109H58.3291Z" fill="#494957"/>
<path d="M14.6871 78.812V80H10.1631V78.812H11.8071V72.74C11.7431 72.836 11.6351 72.944 11.4831 73.064C11.3391 73.176 11.1751 73.288 10.9911 73.4C10.8071 73.504 10.6151 73.592 10.4151 73.664C10.2231 73.736 10.0471 73.772 9.88709 73.772V72.548C10.1031 72.548 10.3191 72.492 10.5351 72.38C10.7591 72.268 10.9671 72.14 11.1591 71.996C11.3511 71.844 11.5031 71.708 11.6151 71.588C11.7351 71.468 11.7991 71.404 11.8071 71.396H13.1631V78.812H14.6871ZM19.1252 80.12C18.5252 80.104 17.9972 79.964 17.5412 79.7C17.0852 79.436 16.7052 79.092 16.4012 78.668C16.0972 78.236 15.8652 77.772 15.7052 77.276C15.5532 76.772 15.4772 76.28 15.4772 75.8C15.4772 75.288 15.5612 74.776 15.7292 74.264C15.8972 73.752 16.1412 73.288 16.4612 72.872C16.7812 72.448 17.1652 72.112 17.6132 71.864C18.0612 71.608 18.5652 71.48 19.1252 71.48C19.7252 71.48 20.2492 71.616 20.6972 71.888C21.1532 72.16 21.5332 72.512 21.8372 72.944C22.1412 73.376 22.3692 73.844 22.5212 74.348C22.6812 74.852 22.7612 75.336 22.7612 75.8C22.7612 76.32 22.6772 76.836 22.5092 77.348C22.3412 77.852 22.0972 78.312 21.7772 78.728C21.4572 79.144 21.0732 79.48 20.6252 79.736C20.1852 79.984 19.6852 80.112 19.1252 80.12ZM16.8452 75.8C16.8612 76.168 16.9132 76.536 17.0012 76.904C17.0972 77.264 17.2412 77.596 17.4332 77.9C17.6252 78.204 17.8612 78.448 18.1412 78.632C18.4212 78.816 18.7492 78.908 19.1252 78.908C19.5172 78.908 19.8532 78.812 20.1332 78.62C20.4212 78.42 20.6572 78.164 20.8412 77.852C21.0252 77.532 21.1612 77.192 21.2492 76.832C21.3452 76.472 21.3932 76.128 21.3932 75.8C21.3932 75.432 21.3412 75.068 21.2372 74.708C21.1412 74.34 20.9972 74.004 20.8052 73.7C20.6132 73.396 20.3772 73.152 20.0972 72.968C19.8172 72.784 19.4932 72.692 19.1252 72.692C18.7332 72.692 18.3932 72.792 18.1052 72.992C17.8172 73.184 17.5812 73.44 17.3972 73.76C17.2132 74.072 17.0732 74.408 16.9772 74.768C16.8892 75.128 16.8452 75.472 16.8452 75.8ZM24.025 77.312V76.124H27.613V77.312H24.025ZM33.6598 78.812V80H29.1357V78.812H30.7798V72.74C30.7158 72.836 30.6078 72.944 30.4558 73.064C30.3118 73.176 30.1478 73.288 29.9638 73.4C29.7798 73.504 29.5878 73.592 29.3878 73.664C29.1958 73.736 29.0198 73.772 28.8598 73.772V72.548C29.0758 72.548 29.2918 72.492 29.5078 72.38C29.7318 72.268 29.9398 72.14 30.1318 71.996C30.3238 71.844 30.4758 71.708 30.5878 71.588C30.7078 71.468 30.7718 71.404 30.7798 71.396H32.1358V78.812H33.6598ZM39.2379 78.812V80H34.7139V78.812H36.3579V72.74C36.2939 72.836 36.1859 72.944 36.0339 73.064C35.8899 73.176 35.7259 73.288 35.5419 73.4C35.3579 73.504 35.1659 73.592 34.9659 73.664C34.7739 73.736 34.5979 73.772 34.4379 73.772V72.548C34.6539 72.548 34.8699 72.492 35.0859 72.38C35.3099 72.268 35.5179 72.14 35.7099 71.996C35.9019 71.844 36.0539 71.708 36.1659 71.588C36.2859 71.468 36.3499 71.404 36.3579 71.396H37.7139V78.812H39.2379ZM45.5098 71.48H46.7818L50.0938 80H48.6778L47.7778 77.684H44.4898L43.6018 80H42.1738L45.5098 71.48ZM47.5138 76.688L46.1458 72.956L44.7298 76.688H47.5138ZM58.3115 80V73.928L55.8035 78.536H55.0115L52.4915 73.928V80H51.1475V71.48H52.5875L55.4075 76.688L58.2275 71.48H59.6675V80H58.3115Z" fill="#494957"/>
<path d="M15.4039 136.812V138H10.8799V136.812H12.5239V130.74C12.4599 130.836 12.3519 130.944 12.1999 131.064C12.0559 131.176 11.8919 131.288 11.7079 131.4C11.5239 131.504 11.3319 131.592 11.1319 131.664C10.9399 131.736 10.7639 131.772 10.6039 131.772V130.548C10.8199 130.548 11.0359 130.492 11.2519 130.38C11.4759 130.268 11.6839 130.14 11.8759 129.996C12.0679 129.844 12.2199 129.708 12.3319 129.588C12.4519 129.468 12.5159 129.404 12.5239 129.396H13.8799V136.812H15.4039ZM19.794 138V135.936H15.99V134.76L20.202 129.48H21.114V134.748H22.17V135.936H21.114V138H19.794ZM17.334 134.748H19.938V131.484L17.334 134.748ZM23.3707 135.312V134.124H26.9587V135.312H23.3707ZM33.0055 136.812V138H28.4815V136.812H30.1255V130.74C30.0615 130.836 29.9535 130.944 29.8015 131.064C29.6575 131.176 29.4935 131.288 29.3095 131.4C29.1255 131.504 28.9335 131.592 28.7335 131.664C28.5415 131.736 28.3655 131.772 28.2055 131.772V130.548C28.4215 130.548 28.6375 130.492 28.8535 130.38C29.0775 130.268 29.2855 130.14 29.4775 129.996C29.6695 129.844 29.8215 129.708 29.9335 129.588C30.0535 129.468 30.1175 129.404 30.1255 129.396H31.4815V136.812H33.0055ZM36.4836 138.12C35.8676 138.12 35.3156 137.984 34.8276 137.712C34.3476 137.432 33.9756 137.052 33.7116 136.572L34.5036 135.816C34.7276 136.16 35.0156 136.436 35.3676 136.644C35.7196 136.844 36.0956 136.944 36.4956 136.944C36.8236 136.944 37.1156 136.876 37.3716 136.74C37.6276 136.596 37.8276 136.4 37.9716 136.152C38.1236 135.904 38.1996 135.616 38.1996 135.288C38.1996 134.968 38.1276 134.688 37.9836 134.448C37.8476 134.2 37.6556 134.008 37.4076 133.872C37.1676 133.736 36.8956 133.668 36.5916 133.668C36.2876 133.668 35.9996 133.736 35.7276 133.872C35.4636 134.008 35.2516 134.2 35.0916 134.448H33.9156L34.8876 129.48H39.0516V130.692H35.8476L35.4156 133.008C35.5596 132.864 35.7436 132.748 35.9676 132.66C36.1996 132.572 36.4636 132.528 36.7596 132.528C37.2956 132.528 37.7716 132.644 38.1876 132.876C38.6116 133.108 38.9436 133.428 39.1836 133.836C39.4316 134.244 39.5556 134.716 39.5556 135.252C39.5556 135.82 39.4196 136.32 39.1476 136.752C38.8756 137.176 38.5076 137.512 38.0436 137.76C37.5876 138 37.0676 138.12 36.4836 138.12ZM43.9541 138V129.48H47.5301C47.9141 129.48 48.2661 129.56 48.5861 129.72C48.9061 129.88 49.1861 130.092 49.4261 130.356C49.6661 130.62 49.8501 130.916 49.9781 131.244C50.1061 131.572 50.1701 131.908 50.1701 132.252C50.1701 132.724 50.0621 133.176 49.8461 133.608C49.6381 134.032 49.3381 134.376 48.9461 134.64C48.5621 134.904 48.1141 135.036 47.6021 135.036H45.2981V138H43.9541ZM45.2981 133.848H47.5181C47.7741 133.848 47.9981 133.78 48.1901 133.644C48.3821 133.5 48.5301 133.308 48.6341 133.068C48.7461 132.828 48.8021 132.556 48.8021 132.252C48.8021 131.94 48.7381 131.664 48.6101 131.424C48.4821 131.184 48.3141 131 48.1061 130.872C47.9061 130.736 47.6861 130.668 47.4461 130.668H45.2981V133.848ZM58.5947 138V131.928L56.0867 136.536H55.2947L52.7747 131.928V138H51.4307V129.48H52.8707L55.6907 134.688L58.5107 129.48H59.9507V138H58.5947Z" fill="#494957"/>
<path d="M15.3394 165.812V167H10.8154V165.812H12.4594V159.74C12.3954 159.836 12.2874 159.944 12.1354 160.064C11.9914 160.176 11.8274 160.288 11.6434 160.4C11.4594 160.504 11.2674 160.592 11.0674 160.664C10.8754 160.736 10.6994 160.772 10.5394 160.772V159.548C10.7554 159.548 10.9714 159.492 11.1874 159.38C11.4114 159.268 11.6194 159.14 11.8114 158.996C12.0034 158.844 12.1554 158.708 12.2674 158.588C12.3874 158.468 12.4514 158.404 12.4594 158.396H13.8154V165.812H15.3394ZM22.3696 164.168C22.3696 163.632 22.2376 163.152 21.9736 162.728C21.7176 162.296 21.3656 161.952 20.9176 161.696C20.4776 161.44 19.9776 161.312 19.4176 161.312C19.1216 161.312 18.8416 161.36 18.5776 161.456C18.3136 161.552 18.0816 161.688 17.8816 161.864C17.6896 162.032 17.5336 162.236 17.4136 162.476C17.4216 161.86 17.5056 161.336 17.6656 160.904C17.8336 160.472 18.0656 160.144 18.3616 159.92C18.6656 159.688 19.0136 159.572 19.4056 159.572C19.7976 159.572 20.1536 159.672 20.4736 159.872C20.8016 160.064 21.0576 160.328 21.2416 160.664L22.0216 159.848C21.7416 159.4 21.3736 159.052 20.9176 158.804C20.4696 158.548 19.9736 158.42 19.4296 158.42C18.7736 158.42 18.2016 158.604 17.7136 158.972C17.2256 159.34 16.8456 159.888 16.5736 160.616C16.3096 161.344 16.1776 162.252 16.1776 163.34C16.1776 164.124 16.3056 164.8 16.5616 165.368C16.8256 165.936 17.1896 166.372 17.6536 166.676C18.1256 166.972 18.6736 167.12 19.2976 167.12C19.8736 167.12 20.3936 166.988 20.8576 166.724C21.3296 166.46 21.6976 166.104 21.9616 165.656C22.2336 165.208 22.3696 164.712 22.3696 164.168ZM19.2976 165.992C18.9776 165.992 18.6776 165.908 18.3976 165.74C18.1256 165.572 17.9056 165.352 17.7376 165.08C17.5696 164.8 17.4856 164.496 17.4856 164.168C17.4856 163.84 17.5656 163.54 17.7256 163.268C17.8936 162.996 18.1176 162.78 18.3976 162.62C18.6776 162.452 18.9776 162.368 19.2976 162.368C19.6336 162.368 19.9376 162.452 20.2096 162.62C20.4816 162.78 20.6976 162.996 20.8576 163.268C21.0256 163.54 21.1096 163.84 21.1096 164.168C21.1096 164.496 21.0256 164.8 20.8576 165.08C20.6976 165.36 20.4776 165.584 20.1976 165.752C19.9256 165.912 19.6256 165.992 19.2976 165.992ZM23.6226 164.312V163.124H27.2106V164.312H23.6226ZM33.2574 165.812V167H28.7334V165.812H30.3774V159.74C30.3134 159.836 30.2054 159.944 30.0534 160.064C29.9094 160.176 29.7454 160.288 29.5614 160.4C29.3774 160.504 29.1854 160.592 28.9854 160.664C28.7934 160.736 28.6174 160.772 28.4574 160.772V159.548C28.6734 159.548 28.8894 159.492 29.1054 159.38C29.3294 159.268 29.5374 159.14 29.7294 158.996C29.9214 158.844 30.0734 158.708 30.1854 158.588C30.3054 158.468 30.3694 158.404 30.3774 158.396H31.7334V165.812H33.2574ZM38.0435 159.692H33.9155V158.48H40.1315L35.8595 167H34.3715L38.0435 159.692ZM44.0186 167V158.48H47.5946C47.9786 158.48 48.3306 158.56 48.6506 158.72C48.9706 158.88 49.2506 159.092 49.4906 159.356C49.7306 159.62 49.9146 159.916 50.0426 160.244C50.1706 160.572 50.2346 160.908 50.2346 161.252C50.2346 161.724 50.1266 162.176 49.9106 162.608C49.7026 163.032 49.4026 163.376 49.0106 163.64C48.6266 163.904 48.1786 164.036 47.6666 164.036H45.3626V167H44.0186ZM45.3626 162.848H47.5826C47.8386 162.848 48.0626 162.78 48.2546 162.644C48.4466 162.5 48.5946 162.308 48.6986 162.068C48.8106 161.828 48.8666 161.556 48.8666 161.252C48.8666 160.94 48.8026 160.664 48.6746 160.424C48.5466 160.184 48.3786 160 48.1706 159.872C47.9706 159.736 47.7506 159.668 47.5106 159.668H45.3626V162.848ZM58.6592 167V160.928L56.1512 165.536H55.3592L52.8392 160.928V167H51.4952V158.48H52.9352L55.7552 163.688L58.5752 158.48H60.0152V167H58.6592Z" fill="#494957"/>
<rect x="76" y="34" width="30" height="25" rx="2" fill="#6BA7FA"/>
<rect x="110" y="34" width="30" height="25" rx="2" fill="#F0F0F3"/>
<rect x="144" y="34" width="30" height="25" rx="2" fill="#F0F0F3"/>
<rect x="178" y="34" width="30" height="25" rx="2" fill="#F0F0F3"/>
<rect x="212" y="34" width="30" height="25" rx="2" fill="#F0F0F3"/>
<rect x="246" y="34" width="30" height="25" rx="2" fill="#F0F0F3"/>
<rect x="280" y="34" width="30" height="25" rx="2" fill="#F0F0F3"/>
<rect x="76" y="63" width="30" height="25" rx="2" fill="#F0F0F3"/>
<rect x="110" y="63" width="30" height="25" rx="2" fill="#F0F0F3"/>
<rect x="144" y="63" width="30" height="25" rx="2" fill="#6BA7FA"/>
<rect x="178" y="63" width="30" height="25" rx="2" fill="#6BA7FA"/>
<rect x="212" y="63" width="30" height="25" rx="2" fill="#6BA7FA"/>
<rect x="246" y="63" width="30" height="25" rx="2" fill="#F0F0F3"/>
<rect x="280" y="63" width="30" height="25" rx="2" fill="#F0F0F3"/>
<rect x="76" y="92" width="30" height="25" rx="2" fill="#F0F0F3"/>
<rect x="110" y="92" width="30" height="25" rx="2" fill="#F0F0F3"/>
<rect x="144" y="92" width="30" height="25" rx="2" fill="#F0F0F3"/>
<rect x="178" y="92" width="30" height="25" rx="2" fill="#F0F0F3"/>
<rect x="212" y="92" width="30" height="25" rx="2" fill="#6BA7FA"/>
<rect x="246" y="92" width="30" height="25" rx="2" fill="#F0F0F3"/>
<rect x="280" y="92" width="30" height="25" rx="2" fill="#F0F0F3"/>
<rect x="76" y="121" width="30" height="25" rx="2" fill="#F0F0F3"/>
<rect x="110" y="121" width="30" height="25" rx="2" fill="#F0F0F3"/>
<rect x="144" y="121" width="30" height="25" rx="2" fill="#6BA7FA"/>
<rect x="178" y="121" width="30" height="25" rx="2" fill="#6BA7FA"/>
<rect x="212" y="121" width="30" height="25" rx="2" fill="#F0F0F3"/>
<rect x="246" y="121" width="30" height="25" rx="2" fill="#F0F0F3"/>
<rect x="280" y="121" width="30" height="25" rx="2" fill="#F0F0F3"/>
<rect x="76" y="150" width="30" height="25" rx="2" fill="#F0F0F3"/>
<rect x="110" y="150" width="30" height="25" rx="2" fill="#F0F0F3"/>
<rect x="144" y="150" width="30" height="25" rx="2" fill="#F0F0F3"/>
<rect x="178" y="150" width="30" height="25" rx="2" fill="#F0F0F3"/>
<rect x="212" y="150" width="30" height="25" rx="2" fill="#F0F0F3"/>
<rect x="246" y="150" width="30" height="25" rx="2" fill="#F0F0F3"/>
<rect x="280" y="150" width="30" height="25" rx="2" fill="#F0F0F3"/>
</svg>
