<svg width="140" height="96" viewBox="0 0 140 96" fill="none" xmlns="http://www.w3.org/2000/svg">
<path d="M16.8186 81.9426C16.5649 81.9426 16.3714 81.8726 16.2379 81.7324C16.1044 81.5922 16.0376 81.3953 16.0376 81.1417V75.5849C16.0376 75.3245 16.1044 75.1276 16.2379 74.9941C16.378 74.8606 16.5749 74.7939 16.8286 74.7939H19.2616C20.0492 74.7939 20.6566 74.9841 21.0838 75.3646C21.511 75.7451 21.7246 76.2757 21.7246 76.9565C21.7246 77.3971 21.6278 77.7775 21.4342 78.0979C21.2407 78.4183 20.9603 78.6653 20.5932 78.8388C20.2328 79.0124 19.7889 79.0992 19.2616 79.0992L19.3417 78.929H19.7522C20.0325 78.929 20.2762 78.999 20.4831 79.1392C20.6967 79.2727 20.8802 79.4796 21.0337 79.76L21.6545 80.9114C21.748 81.0783 21.7913 81.2418 21.7847 81.402C21.778 81.5622 21.7179 81.6923 21.6044 81.7925C21.491 81.8926 21.3241 81.9426 21.1038 81.9426C20.8836 81.9426 20.7033 81.8959 20.5632 81.8025C20.4297 81.709 20.3095 81.5655 20.2027 81.372L19.2415 79.5998C19.1414 79.4129 19.0179 79.2861 18.8711 79.2193C18.7309 79.1526 18.5574 79.1192 18.3505 79.1192H17.5895V81.1417C17.5895 81.3953 17.5228 81.5922 17.3893 81.7324C17.2625 81.8726 17.0722 81.9426 16.8186 81.9426ZM17.5895 77.9978H18.9812C19.3951 77.9978 19.7055 77.9144 19.9124 77.7475C20.126 77.5806 20.2328 77.3303 20.2328 76.9966C20.2328 76.6695 20.126 76.4226 19.9124 76.2557C19.7055 76.0888 19.3951 76.0054 18.9812 76.0054H17.5895V77.9978ZM25.372 81.8525C25.1116 81.8525 24.9114 81.7825 24.7712 81.6423C24.631 81.5021 24.561 81.3019 24.561 81.0415V75.6049C24.561 75.3446 24.631 75.1443 24.7712 75.0041C24.9114 74.864 25.1116 74.7939 25.372 74.7939H28.8662C29.0665 74.7939 29.2167 74.8473 29.3168 74.9541C29.4236 75.0542 29.477 75.2011 29.477 75.3946C29.477 75.5949 29.4236 75.7484 29.3168 75.8552C29.2167 75.9553 29.0665 76.0054 28.8662 76.0054H26.0428V77.6574H28.636C28.8429 77.6574 28.9964 77.7108 29.0965 77.8176C29.2033 77.9177 29.2567 78.0679 29.2567 78.2681C29.2567 78.4684 29.2033 78.6219 29.0965 78.7287C28.9964 78.8288 28.8429 78.8789 28.636 78.8789H26.0428V80.6411H28.8662C29.0665 80.6411 29.2167 80.6945 29.3168 80.8013C29.4236 80.9014 29.477 81.0482 29.477 81.2418C29.477 81.442 29.4236 81.5956 29.3168 81.7024C29.2167 81.8025 29.0665 81.8525 28.8662 81.8525H25.372ZM32.2579 81.9426C32.071 81.9426 31.9175 81.8993 31.7973 81.8125C31.6839 81.7257 31.6104 81.6089 31.5771 81.4621C31.5504 81.3152 31.5804 81.1517 31.6672 80.9715L34.2303 75.3546C34.3371 75.1276 34.4639 74.9641 34.6108 74.864C34.7576 74.7572 34.9278 74.7038 35.1214 74.7038C35.315 74.7038 35.4852 74.7572 35.632 74.864C35.7789 74.9641 35.9024 75.1276 36.0025 75.3546L38.5856 80.9715C38.6724 81.1517 38.7025 81.3186 38.6758 81.4721C38.6557 81.6189 38.589 81.7357 38.4755 81.8225C38.362 81.9026 38.2152 81.9426 38.035 81.9426C37.808 81.9426 37.6311 81.8893 37.5043 81.7825C37.3842 81.6757 37.2774 81.5088 37.1839 81.2818L36.5832 79.8901L37.204 80.3207H33.0288L33.6496 79.8901L33.0589 81.2818C32.9587 81.5155 32.852 81.6857 32.7385 81.7925C32.6317 81.8926 32.4715 81.9426 32.2579 81.9426ZM35.1014 76.4459L33.8198 79.4997L33.5495 79.1092H36.6833L36.413 79.4997L35.1214 76.4459H35.1014ZM41.9391 81.8525C41.6854 81.8525 41.4885 81.7825 41.3483 81.6423C41.2148 81.5021 41.1481 81.3085 41.1481 81.0616V75.5648C41.1481 75.3045 41.2148 75.1076 41.3483 74.9741C41.4818 74.8406 41.6754 74.7739 41.929 74.7739C42.176 74.7739 42.3662 74.8406 42.4997 74.9741C42.6332 75.1076 42.7 75.3045 42.7 75.5648V80.5409H45.3833C45.5969 80.5409 45.7604 80.5977 45.8739 80.7111C45.994 80.8246 46.0541 80.9848 46.0541 81.1917C46.0541 81.4053 45.994 81.5689 45.8739 81.6823C45.7604 81.7958 45.5969 81.8525 45.3833 81.8525H41.9391ZM56.282 81.9627C55.4877 81.9627 54.8135 81.8125 54.2595 81.5121C53.7122 81.2118 53.295 80.7912 53.008 80.2506C52.721 79.7099 52.5775 79.0758 52.5775 78.3482C52.5775 77.7876 52.6609 77.2836 52.8278 76.8364C53.0013 76.3825 53.2483 75.9987 53.5687 75.685C53.8958 75.3646 54.2896 75.1176 54.7501 74.9441C55.2174 74.7705 55.7447 74.6838 56.3321 74.6838C56.6925 74.6838 57.053 74.7238 57.4134 74.8039C57.7738 74.884 58.1209 75.0175 58.4547 75.2044C58.5948 75.2845 58.6883 75.388 58.735 75.5148C58.7884 75.6349 58.8018 75.7651 58.7751 75.9053C58.755 76.0387 58.7016 76.1589 58.6149 76.2657C58.5348 76.3658 58.428 76.4326 58.2945 76.4659C58.1677 76.4926 58.0208 76.4659 57.8539 76.3858C57.6337 76.2657 57.4001 76.1789 57.1531 76.1255C56.9061 76.0654 56.6358 76.0354 56.3421 76.0354C55.8682 76.0354 55.471 76.1255 55.1506 76.3057C54.8302 76.4793 54.5899 76.7396 54.4297 77.0867C54.2762 77.4271 54.1995 77.8476 54.1995 78.3482C54.1995 79.1025 54.3797 79.6732 54.7401 80.0603C55.1072 80.4475 55.6479 80.6411 56.3621 80.6411C56.6024 80.6411 56.8494 80.6177 57.103 80.571C57.3567 80.5242 57.607 80.4575 57.8539 80.3707L57.5636 81.0015V79.0791H56.6625C56.4622 79.0791 56.3087 79.0291 56.2019 78.929C56.0951 78.8288 56.0417 78.692 56.0417 78.5185C56.0417 78.3382 56.0951 78.2014 56.2019 78.108C56.3087 78.0078 56.4622 77.9578 56.6625 77.9578H58.2344C58.4347 77.9578 58.5848 78.0112 58.685 78.118C58.7918 78.2248 58.8452 78.3783 58.8452 78.5785V80.9014C58.8452 81.0749 58.8118 81.2218 58.745 81.3419C58.6783 81.4621 58.5648 81.5488 58.4046 81.6022C58.1042 81.709 57.7672 81.7958 57.3934 81.8626C57.0196 81.9293 56.6491 81.9627 56.282 81.9627ZM65.0446 81.9627C64.3504 81.9627 63.7397 81.8125 63.2124 81.5121C62.6917 81.2051 62.2846 80.7779 61.9909 80.2306C61.7039 79.6832 61.5604 79.0458 61.5604 78.3182C61.5604 77.7642 61.6405 77.2669 61.8007 76.8264C61.9675 76.3792 62.2045 75.9987 62.5115 75.685C62.8186 75.3646 63.1857 75.1176 63.6129 74.9441C64.0467 74.7705 64.524 74.6838 65.0446 74.6838C65.7522 74.6838 66.3662 74.8339 66.8869 75.1343C67.4075 75.4347 67.8114 75.8585 68.0984 76.4059C68.3921 76.9465 68.5389 77.5806 68.5389 78.3082C68.5389 78.8622 68.4555 79.3628 68.2886 79.81C68.1217 80.2573 67.8848 80.6411 67.5777 80.9614C67.2707 81.2818 66.9036 81.5288 66.4764 81.7024C66.0492 81.8759 65.5719 81.9627 65.0446 81.9627ZM65.0446 80.6411C65.4384 80.6411 65.7722 80.5509 66.0459 80.3707C66.3262 80.1838 66.5398 79.9168 66.6866 79.5697C66.8402 79.216 66.9169 78.7988 66.9169 78.3182C66.9169 77.584 66.7534 77.0166 66.4263 76.6161C66.0993 76.209 65.6387 76.0054 65.0446 76.0054C64.6575 76.0054 64.3237 76.0955 64.0434 76.2757C63.7631 76.4559 63.5495 76.7196 63.4026 77.0667C63.2558 77.4138 63.1823 77.8309 63.1823 78.3182C63.1823 79.0458 63.3459 79.6165 63.6729 80.0303C64 80.4375 64.4572 80.6411 65.0446 80.6411ZM74.5653 81.9627C73.8711 81.9627 73.2603 81.8125 72.733 81.5121C72.2124 81.2051 71.8052 80.7779 71.5115 80.2306C71.2245 79.6832 71.081 79.0458 71.081 78.3182C71.081 77.7642 71.1611 77.2669 71.3213 76.8264C71.4882 76.3792 71.7251 75.9987 72.0322 75.685C72.3392 75.3646 72.7063 75.1176 73.1335 74.9441C73.5674 74.7705 74.0446 74.6838 74.5653 74.6838C75.2728 74.6838 75.8869 74.8339 76.4075 75.1343C76.9282 75.4347 77.332 75.8585 77.619 76.4059C77.9127 76.9465 78.0596 77.5806 78.0596 78.3082C78.0596 78.8622 77.9761 79.3628 77.8093 79.81C77.6424 80.2573 77.4054 80.6411 77.0984 80.9614C76.7913 81.2818 76.4242 81.5288 75.997 81.7024C75.5698 81.8759 75.0926 81.9627 74.5653 81.9627ZM74.5653 80.6411C74.9591 80.6411 75.2928 80.5509 75.5665 80.3707C75.8469 80.1838 76.0604 79.9168 76.2073 79.5697C76.3608 79.216 76.4376 78.7988 76.4376 78.3182C76.4376 77.584 76.274 77.0166 75.947 76.6161C75.6199 76.209 75.1593 76.0054 74.5653 76.0054C74.1781 76.0054 73.8444 76.0955 73.5641 76.2757C73.2837 76.4559 73.0701 76.7196 72.9233 77.0667C72.7764 77.4138 72.703 77.8309 72.703 78.3182C72.703 79.0458 72.8665 79.6165 73.1936 80.0303C73.5207 80.4375 73.9779 80.6411 74.5653 80.6411ZM81.6229 81.8525C81.3626 81.8525 81.1624 81.7825 81.0222 81.6423C80.882 81.5021 80.8119 81.3019 80.8119 81.0415V75.6049C80.8119 75.3446 80.882 75.1443 81.0222 75.0041C81.1624 74.864 81.3626 74.7939 81.6229 74.7939H83.5753C84.7835 74.7939 85.7146 75.1009 86.3687 75.715C87.0295 76.3224 87.3599 77.1902 87.3599 78.3182C87.3599 78.8856 87.2732 79.3895 87.0996 79.8301C86.9328 80.2639 86.6891 80.631 86.3687 80.9314C86.0483 81.2318 85.6545 81.4621 85.1873 81.6223C84.72 81.7758 84.1827 81.8525 83.5753 81.8525H81.6229ZM82.3638 80.581H83.4852C83.8657 80.581 84.1961 80.5343 84.4764 80.4408C84.7568 80.3474 84.9904 80.2072 85.1773 80.0203C85.3642 79.8334 85.5043 79.5998 85.5978 79.3194C85.6912 79.0324 85.738 78.6987 85.738 78.3182C85.738 77.5573 85.5477 76.9933 85.1673 76.6261C84.7935 76.2523 84.2328 76.0654 83.4852 76.0654H82.3638V80.581ZM95.2467 81.9426C94.9931 81.9426 94.7995 81.8726 94.666 81.7324C94.5325 81.5922 94.4658 81.3953 94.4658 81.1417V75.5048C94.4658 75.2511 94.5325 75.0542 94.666 74.914C94.7995 74.7739 94.9931 74.7038 95.2467 74.7038C95.4937 74.7038 95.6839 74.7739 95.8174 74.914C95.9509 75.0542 96.0177 75.2511 96.0177 75.5048V77.6274H99.3017V75.5048C99.3017 75.2511 99.3684 75.0542 99.5019 74.914C99.6354 74.7739 99.8257 74.7038 100.073 74.7038C100.326 74.7038 100.52 74.7739 100.653 74.914C100.787 75.0542 100.854 75.2511 100.854 75.5048V81.1417C100.854 81.3953 100.787 81.5922 100.653 81.7324C100.52 81.8726 100.326 81.9426 100.073 81.9426C99.8257 81.9426 99.6354 81.8726 99.5019 81.7324C99.3684 81.5922 99.3017 81.3953 99.3017 81.1417V78.9189H96.0177V81.1417C96.0177 81.3953 95.9509 81.5922 95.8174 81.7324C95.6906 81.8726 95.5004 81.9426 95.2467 81.9426ZM104.641 81.8525C104.381 81.8525 104.18 81.7825 104.04 81.6423C103.9 81.5021 103.83 81.3019 103.83 81.0415V75.6049C103.83 75.3446 103.9 75.1443 104.04 75.0041C104.18 74.864 104.381 74.7939 104.641 74.7939H108.135C108.335 74.7939 108.486 74.8473 108.586 74.9541C108.693 75.0542 108.746 75.2011 108.746 75.3946C108.746 75.5949 108.693 75.7484 108.586 75.8552C108.486 75.9553 108.335 76.0054 108.135 76.0054H105.312V77.6574H107.905C108.112 77.6574 108.265 77.7108 108.366 77.8176C108.472 77.9177 108.526 78.0679 108.526 78.2681C108.526 78.4684 108.472 78.6219 108.366 78.7287C108.265 78.8288 108.112 78.8789 107.905 78.8789H105.312V80.6411H108.135C108.335 80.6411 108.486 80.6945 108.586 80.8013C108.693 80.9014 108.746 81.0482 108.746 81.2418C108.746 81.442 108.693 81.5956 108.586 81.7024C108.486 81.8025 108.335 81.8525 108.135 81.8525H104.641ZM112.235 81.8525C111.981 81.8525 111.784 81.7825 111.644 81.6423C111.511 81.5021 111.444 81.3085 111.444 81.0616V75.5648C111.444 75.3045 111.511 75.1076 111.644 74.9741C111.778 74.8406 111.971 74.7739 112.225 74.7739C112.472 74.7739 112.662 74.8406 112.796 74.9741C112.929 75.1076 112.996 75.3045 112.996 75.5648V80.5409H115.679C115.893 80.5409 116.056 80.5977 116.17 80.7111C116.29 80.8246 116.35 80.9848 116.35 81.1917C116.35 81.4053 116.29 81.5689 116.17 81.6823C116.056 81.7958 115.893 81.8525 115.679 81.8525H112.235ZM119.516 81.9426C119.263 81.9426 119.069 81.8726 118.936 81.7324C118.802 81.5922 118.735 81.3953 118.735 81.1417V75.5849C118.735 75.3245 118.802 75.1276 118.936 74.9941C119.076 74.8606 119.273 74.7939 119.526 74.7939H121.959C122.747 74.7939 123.354 74.9941 123.782 75.3946C124.209 75.7884 124.422 76.3391 124.422 77.0466C124.422 77.7542 124.209 78.3082 123.782 78.7087C123.354 79.1092 122.747 79.3094 121.959 79.3094H120.287V81.1417C120.287 81.3953 120.22 81.5922 120.087 81.7324C119.96 81.8726 119.77 81.9426 119.516 81.9426ZM120.287 78.108H121.699C122.099 78.108 122.403 78.0178 122.61 77.8376C122.824 77.6574 122.93 77.3937 122.93 77.0466C122.93 76.6996 122.824 76.4392 122.61 76.2657C122.403 76.0921 122.099 76.0054 121.699 76.0054H120.287V78.108Z" fill="white"/>
<path fill-rule="evenodd" clip-rule="evenodd" d="M60.8884 19.146C60.8689 19.1468 60.8495 19.1477 60.8301 19.1487L60.8279 19.1487C59.6474 19.2091 58.4817 19.4836 57.3817 19.9784L57.3808 19.9788C54.286 21.3754 52.2882 24.264 51.5037 27.7036C50.7194 31.1421 51.1298 35.1777 52.8752 39.015L52.8762 39.0172C53.3696 40.0937 53.9424 41.1032 54.5815 42.0341C53.5027 42.5042 52.4104 43.0328 51.5911 43.5541C51.0766 43.8813 50.5651 44.2692 50.2714 44.7074C50.1184 44.9355 49.9702 45.2578 49.9999 45.6406C50.0318 46.0505 50.2533 46.3644 50.5196 46.5781L50.5203 46.5786C53.463 48.9346 56.7051 50.1912 59.9068 50.5238C60.364 50.5714 60.7733 50.2392 60.8208 49.7818C60.8683 49.3246 60.5361 48.9153 60.0788 48.8678C57.2837 48.5773 54.4315 47.5038 51.8017 45.4685C51.9395 45.3375 52.1606 45.165 52.4847 44.9588C53.4205 44.3635 54.8371 43.717 56.1883 43.1625L57.1994 42.7475L56.5308 41.883C55.7135 40.8265 54.9898 39.6325 54.3902 38.3246C52.7821 34.7885 52.431 31.1247 53.1269 28.0739C53.8226 25.0241 55.5467 22.6334 58.065 21.4966C58.7201 21.202 59.404 21.0017 60.1016 20.8943L60.8884 19.146ZM61.6539 20.8074L62.303 19.1814C67.2206 19.624 72.1289 23.4539 74.7308 29.1552L74.731 29.1557C77.7238 35.7249 76.8216 43.01 72.5319 46.7156L72.5213 46.7262L72.4923 46.7502C70.4827 48.4158 67.5842 49.5813 65.0698 50.1703C64.6222 50.2752 64.1743 49.9973 64.0694 49.5496C63.9645 49.102 64.2424 48.6541 64.6901 48.5492C67.0461 47.9973 69.661 46.9235 71.4038 45.4899L71.424 45.4726C74.9919 42.4102 76.0176 35.9957 73.2159 29.846C70.7774 24.5031 66.259 21.1575 62.0416 20.8302L62.0336 20.8296L62.0256 20.8288C61.9074 20.8173 61.7867 20.8115 61.6539 20.8074ZM51.6422 45.654C51.6413 45.6562 51.6406 45.6573 51.6406 45.6573C51.6405 45.6574 51.641 45.6562 51.6422 45.654Z" fill="white"/>
<path d="M94.9482 29.1999C94.9482 29.1999 92.4467 24.0032 86.4449 24.0985C80.2867 24.1938 75.3945 31.4522 75.3945 31.4522" stroke="white" stroke-width="1.66494" stroke-miterlimit="10" stroke-linecap="round"/>
<path d="M68.7578 12.8271C68.7578 12.8271 74.5477 12.8723 77.014 18.3199C79.5409 23.9028 75.0067 31.3919 75.0067 31.3919" stroke="white" stroke-width="1.66494" stroke-miterlimit="10" stroke-linecap="round"/>
<path d="M69.5638 34.2061C66.8655 35.8915 64.9591 38.2642 64.3035 40.9277C64.3035 40.9327 64.3035 40.9327 64.3035 40.9377C62.7501 47.7647 65.8468 55.7705 73.9719 59.3871C75.2277 59.9439 75.1823 56.4076 74.9452 53.4982C76.3272 53.754 77.7898 53.8543 79.2978 53.7891C87.4229 53.4129 93.7778 48.146 93.4954 42.0213C93.2078 35.8965 86.389 31.2315 78.2639 31.6077C77.1544 31.6579 75.3538 31.8886 75.3538 31.8886" stroke="white" stroke-width="1.66494" stroke-miterlimit="10" stroke-linecap="round"/>
<path d="M69.5638 34.2061C66.8655 35.8915 64.9591 38.2642 64.3035 40.9277C64.3035 40.9327 64.3035 40.9327 64.3035 40.9377C62.7501 47.7647 65.8468 55.7705 73.9719 59.3871C75.2277 59.9439 75.1823 56.4076 74.9452 53.4982C76.3272 53.754 77.7898 53.8543 79.2978 53.7891C87.4229 53.4129 93.7778 48.146 93.4954 42.0213C93.2078 35.8965 86.389 31.2315 78.2639 31.6077" stroke="white" stroke-width="1.66494" stroke-miterlimit="10" stroke-linecap="round"/>
</svg>
