<svg width="140" height="96" viewBox="0 0 140 96" fill="none" xmlns="http://www.w3.org/2000/svg">
<path d="M16.8186 81.9429C16.5649 81.9429 16.3714 81.8728 16.2379 81.7326C16.1044 81.5925 16.0376 81.3956 16.0376 81.1419V75.5851C16.0376 75.3248 16.1044 75.1279 16.2379 74.9944C16.378 74.8609 16.5749 74.7941 16.8286 74.7941H19.2616C20.0492 74.7941 20.6566 74.9844 21.0838 75.3648C21.511 75.7453 21.7246 76.2759 21.7246 76.9568C21.7246 77.3973 21.6278 77.7778 21.4342 78.0982C21.2407 78.4186 20.9603 78.6655 20.5932 78.8391C20.2328 79.0126 19.7889 79.0994 19.2616 79.0994L19.3417 78.9292H19.7522C20.0325 78.9292 20.2762 78.9993 20.4831 79.1395C20.6967 79.273 20.8802 79.4799 21.0337 79.7602L21.6545 80.9116C21.748 81.0785 21.7913 81.242 21.7847 81.4022C21.778 81.5624 21.7179 81.6926 21.6044 81.7927C21.491 81.8928 21.3241 81.9429 21.1038 81.9429C20.8836 81.9429 20.7033 81.8962 20.5632 81.8027C20.4297 81.7093 20.3095 81.5658 20.2027 81.3722L19.2415 79.6C19.1414 79.4131 19.0179 79.2863 18.8711 79.2196C18.7309 79.1528 18.5574 79.1194 18.3505 79.1194H17.5895V81.1419C17.5895 81.3956 17.5228 81.5925 17.3893 81.7326C17.2625 81.8728 17.0722 81.9429 16.8186 81.9429ZM17.5895 77.9981H18.9812C19.3951 77.9981 19.7055 77.9146 19.9124 77.7478C20.126 77.5809 20.2328 77.3306 20.2328 76.9968C20.2328 76.6698 20.126 76.4228 19.9124 76.2559C19.7055 76.0891 19.3951 76.0056 18.9812 76.0056H17.5895V77.9981ZM25.372 81.8528C25.1116 81.8528 24.9114 81.7827 24.7712 81.6425C24.631 81.5024 24.561 81.3021 24.561 81.0418V75.6051C24.561 75.3448 24.631 75.1446 24.7712 75.0044C24.9114 74.8642 25.1116 74.7941 25.372 74.7941H28.8662C29.0665 74.7941 29.2167 74.8475 29.3168 74.9543C29.4236 75.0545 29.477 75.2013 29.477 75.3949C29.477 75.5951 29.4236 75.7486 29.3168 75.8554C29.2167 75.9556 29.0665 76.0056 28.8662 76.0056H26.0428V77.6576H28.636C28.8429 77.6576 28.9964 77.711 29.0965 77.8178C29.2033 77.918 29.2567 78.0681 29.2567 78.2684C29.2567 78.4686 29.2033 78.6222 29.0965 78.729C28.9964 78.8291 28.8429 78.8791 28.636 78.8791H26.0428V80.6413H28.8662C29.0665 80.6413 29.2167 80.6947 29.3168 80.8015C29.4236 80.9016 29.477 81.0485 29.477 81.242C29.477 81.4423 29.4236 81.5958 29.3168 81.7026C29.2167 81.8027 29.0665 81.8528 28.8662 81.8528H25.372ZM32.2579 81.9429C32.071 81.9429 31.9175 81.8995 31.7973 81.8127C31.6839 81.726 31.6104 81.6092 31.5771 81.4623C31.5504 81.3155 31.5804 81.1519 31.6672 80.9717L34.2303 75.3548C34.3371 75.1279 34.4639 74.9643 34.6108 74.8642C34.7576 74.7574 34.9278 74.704 35.1214 74.704C35.315 74.704 35.4852 74.7574 35.632 74.8642C35.7789 74.9643 35.9024 75.1279 36.0025 75.3548L38.5856 80.9717C38.6724 81.1519 38.7025 81.3188 38.6758 81.4723C38.6557 81.6192 38.589 81.736 38.4755 81.8227C38.362 81.9028 38.2152 81.9429 38.035 81.9429C37.808 81.9429 37.6311 81.8895 37.5043 81.7827C37.3842 81.6759 37.2774 81.509 37.1839 81.2821L36.5832 79.8904L37.204 80.3209H33.0288L33.6496 79.8904L33.0589 81.2821C32.9587 81.5157 32.852 81.6859 32.7385 81.7927C32.6317 81.8928 32.4715 81.9429 32.2579 81.9429ZM35.1014 76.4462L33.8198 79.4999L33.5495 79.1094H36.6833L36.413 79.4999L35.1214 76.4462H35.1014ZM41.9391 81.8528C41.6854 81.8528 41.4885 81.7827 41.3483 81.6425C41.2148 81.5024 41.1481 81.3088 41.1481 81.0618V75.5651C41.1481 75.3048 41.2148 75.1079 41.3483 74.9744C41.4818 74.8409 41.6754 74.7741 41.929 74.7741C42.176 74.7741 42.3662 74.8409 42.4997 74.9744C42.6332 75.1079 42.7 75.3048 42.7 75.5651V80.5412H45.3833C45.5969 80.5412 45.7604 80.5979 45.8739 80.7114C45.994 80.8249 46.0541 80.9851 46.0541 81.192C46.0541 81.4056 45.994 81.5691 45.8739 81.6826C45.7604 81.796 45.5969 81.8528 45.3833 81.8528H41.9391ZM95.2467 81.9429C94.9931 81.9429 94.7995 81.8728 94.666 81.7326C94.5325 81.5925 94.4658 81.3956 94.4658 81.1419V75.505C94.4658 75.2514 94.5325 75.0545 94.666 74.9143C94.7995 74.7741 94.9931 74.704 95.2467 74.704C95.4937 74.704 95.6839 74.7741 95.8174 74.9143C95.9509 75.0545 96.0177 75.2514 96.0177 75.505V77.6276H99.3017V75.505C99.3017 75.2514 99.3684 75.0545 99.5019 74.9143C99.6354 74.7741 99.8257 74.704 100.073 74.704C100.326 74.704 100.52 74.7741 100.653 74.9143C100.787 75.0545 100.854 75.2514 100.854 75.505V81.1419C100.854 81.3956 100.787 81.5925 100.653 81.7326C100.52 81.8728 100.326 81.9429 100.073 81.9429C99.8257 81.9429 99.6354 81.8728 99.5019 81.7326C99.3684 81.5925 99.3017 81.3956 99.3017 81.1419V78.9192H96.0177V81.1419C96.0177 81.3956 95.9509 81.5925 95.8174 81.7326C95.6906 81.8728 95.5004 81.9429 95.2467 81.9429ZM104.641 81.8528C104.381 81.8528 104.18 81.7827 104.04 81.6425C103.9 81.5024 103.83 81.3021 103.83 81.0418V75.6051C103.83 75.3448 103.9 75.1446 104.04 75.0044C104.18 74.8642 104.381 74.7941 104.641 74.7941H108.135C108.335 74.7941 108.486 74.8475 108.586 74.9543C108.693 75.0545 108.746 75.2013 108.746 75.3949C108.746 75.5951 108.693 75.7486 108.586 75.8554C108.486 75.9556 108.335 76.0056 108.135 76.0056H105.312V77.6576H107.905C108.112 77.6576 108.265 77.711 108.366 77.8178C108.472 77.918 108.526 78.0681 108.526 78.2684C108.526 78.4686 108.472 78.6222 108.366 78.729C108.265 78.8291 108.112 78.8791 107.905 78.8791H105.312V80.6413H108.135C108.335 80.6413 108.486 80.6947 108.586 80.8015C108.693 80.9016 108.746 81.0485 108.746 81.242C108.746 81.4423 108.693 81.5958 108.586 81.7026C108.486 81.8027 108.335 81.8528 108.135 81.8528H104.641ZM112.235 81.8528C111.981 81.8528 111.784 81.7827 111.644 81.6425C111.511 81.5024 111.444 81.3088 111.444 81.0618V75.5651C111.444 75.3048 111.511 75.1079 111.644 74.9744C111.778 74.8409 111.971 74.7741 112.225 74.7741C112.472 74.7741 112.662 74.8409 112.796 74.9744C112.929 75.1079 112.996 75.3048 112.996 75.5651V80.5412H115.679C115.893 80.5412 116.056 80.5979 116.17 80.7114C116.29 80.8249 116.35 80.9851 116.35 81.192C116.35 81.4056 116.29 81.5691 116.17 81.6826C116.056 81.796 115.893 81.8528 115.679 81.8528H112.235ZM119.516 81.9429C119.263 81.9429 119.069 81.8728 118.936 81.7326C118.802 81.5925 118.735 81.3956 118.735 81.1419V75.5851C118.735 75.3248 118.802 75.1279 118.936 74.9944C119.076 74.8609 119.273 74.7941 119.526 74.7941H121.959C122.747 74.7941 123.354 74.9944 123.782 75.3949C124.209 75.7887 124.422 76.3394 124.422 77.0469C124.422 77.7544 124.209 78.3084 123.782 78.7089C123.354 79.1094 122.747 79.3097 121.959 79.3097H120.287V81.1419C120.287 81.3956 120.22 81.5925 120.087 81.7326C119.96 81.8728 119.77 81.9429 119.516 81.9429ZM120.287 78.1082H121.699C122.099 78.1082 122.403 78.0181 122.61 77.8379C122.824 77.6576 122.93 77.394 122.93 77.0469C122.93 76.6998 122.824 76.4395 122.61 76.2659C122.403 76.0924 122.099 76.0056 121.699 76.0056H120.287V78.1082Z" fill="#6BA7FA"/>
<path d="M56.282 81.9629C55.4877 81.9629 54.8135 81.8127 54.2595 81.5124C53.7122 81.212 53.295 80.7915 53.008 80.2508C52.721 79.7102 52.5775 79.076 52.5775 78.3485C52.5775 77.7878 52.6609 77.2839 52.8278 76.8366C53.0013 76.3827 53.2483 75.9989 53.5687 75.6852C53.8958 75.3648 54.2896 75.1179 54.7501 74.9443C55.2174 74.7708 55.7447 74.684 56.3321 74.684C56.6925 74.684 57.053 74.724 57.4134 74.8041C57.7738 74.8842 58.1209 75.0177 58.4547 75.2046C58.5948 75.2847 58.6883 75.3882 58.735 75.515C58.7884 75.6352 58.8018 75.7653 58.7751 75.9055C58.755 76.039 58.7016 76.1591 58.6149 76.2659C58.5348 76.3661 58.428 76.4328 58.2945 76.4662C58.1677 76.4929 58.0208 76.4662 57.8539 76.3861C57.6337 76.2659 57.4001 76.1792 57.1531 76.1258C56.9061 76.0657 56.6358 76.0357 56.3421 76.0357C55.8682 76.0357 55.471 76.1258 55.1506 76.306C54.8302 76.4795 54.5899 76.7399 54.4297 77.0869C54.2762 77.4274 54.1995 77.8479 54.1995 78.3485C54.1995 79.1027 54.3797 79.6734 54.7401 80.0606C55.1072 80.4477 55.6479 80.6413 56.3621 80.6413C56.6024 80.6413 56.8494 80.6179 57.103 80.5712C57.3567 80.5245 57.607 80.4577 57.8539 80.371L57.5636 81.0017V79.0794H56.6625C56.4622 79.0794 56.3087 79.0293 56.2019 78.9292C56.0951 78.8291 56.0417 78.6922 56.0417 78.5187C56.0417 78.3385 56.0951 78.2016 56.2019 78.1082C56.3087 78.0081 56.4622 77.958 56.6625 77.958H58.2344C58.4347 77.958 58.5848 78.0114 58.685 78.1182C58.7918 78.225 58.8452 78.3785 58.8452 78.5788V80.9016C58.8452 81.0752 58.8118 81.222 58.745 81.3422C58.6783 81.4623 58.5648 81.5491 58.4046 81.6025C58.1042 81.7093 57.7672 81.796 57.3934 81.8628C57.0196 81.9295 56.6491 81.9629 56.282 81.9629ZM65.0446 81.9629C64.3504 81.9629 63.7397 81.8127 63.2124 81.5124C62.6917 81.2053 62.2846 80.7781 61.9909 80.2308C61.7039 79.6835 61.5604 79.046 61.5604 78.3185C61.5604 77.7644 61.6405 77.2672 61.8007 76.8266C61.9675 76.3794 62.2045 75.9989 62.5115 75.6852C62.8186 75.3648 63.1857 75.1179 63.6129 74.9443C64.0467 74.7708 64.524 74.684 65.0446 74.684C65.7522 74.684 66.3662 74.8342 66.8869 75.1346C67.4075 75.4349 67.8114 75.8588 68.0984 76.4061C68.3921 76.9468 68.5389 77.5809 68.5389 78.3084C68.5389 78.8625 68.4555 79.3631 68.2886 79.8103C68.1217 80.2575 67.8848 80.6413 67.5777 80.9617C67.2707 81.2821 66.9036 81.5291 66.4764 81.7026C66.0492 81.8761 65.5719 81.9629 65.0446 81.9629ZM65.0446 80.6413C65.4384 80.6413 65.7722 80.5512 66.0459 80.371C66.3262 80.1841 66.5398 79.9171 66.6866 79.57C66.8402 79.2162 66.9169 78.799 66.9169 78.3185C66.9169 77.5842 66.7534 77.0169 66.4263 76.6164C66.0993 76.2092 65.6387 76.0056 65.0446 76.0056C64.6575 76.0056 64.3237 76.0957 64.0434 76.2759C63.7631 76.4562 63.5495 76.7198 63.4026 77.0669C63.2558 77.414 63.1823 77.8312 63.1823 78.3185C63.1823 79.046 63.3459 79.6167 63.6729 80.0306C64 80.4377 64.4572 80.6413 65.0446 80.6413ZM74.5653 81.9629C73.8711 81.9629 73.2603 81.8127 72.733 81.5124C72.2124 81.2053 71.8052 80.7781 71.5115 80.2308C71.2245 79.6835 71.081 79.046 71.081 78.3185C71.081 77.7644 71.1611 77.2672 71.3213 76.8266C71.4882 76.3794 71.7251 75.9989 72.0322 75.6852C72.3392 75.3648 72.7063 75.1179 73.1335 74.9443C73.5674 74.7708 74.0446 74.684 74.5653 74.684C75.2728 74.684 75.8869 74.8342 76.4075 75.1346C76.9282 75.4349 77.332 75.8588 77.619 76.4061C77.9127 76.9468 78.0596 77.5809 78.0596 78.3084C78.0596 78.8625 77.9761 79.3631 77.8093 79.8103C77.6424 80.2575 77.4054 80.6413 77.0984 80.9617C76.7913 81.2821 76.4242 81.5291 75.997 81.7026C75.5698 81.8761 75.0926 81.9629 74.5653 81.9629ZM74.5653 80.6413C74.9591 80.6413 75.2928 80.5512 75.5665 80.371C75.8469 80.1841 76.0604 79.9171 76.2073 79.57C76.3608 79.2162 76.4376 78.799 76.4376 78.3185C76.4376 77.5842 76.274 77.0169 75.947 76.6164C75.6199 76.2092 75.1593 76.0056 74.5653 76.0056C74.1781 76.0056 73.8444 76.0957 73.5641 76.2759C73.2837 76.4562 73.0701 76.7198 72.9233 77.0669C72.7764 77.414 72.703 77.8312 72.703 78.3185C72.703 79.046 72.8665 79.6167 73.1936 80.0306C73.5207 80.4377 73.9779 80.6413 74.5653 80.6413ZM81.6229 81.8528C81.3626 81.8528 81.1624 81.7827 81.0222 81.6425C80.882 81.5024 80.8119 81.3021 80.8119 81.0418V75.6051C80.8119 75.3448 80.882 75.1446 81.0222 75.0044C81.1624 74.8642 81.3626 74.7941 81.6229 74.7941H83.5753C84.7835 74.7941 85.7146 75.1012 86.3687 75.7153C87.0295 76.3227 87.3599 77.1904 87.3599 78.3185C87.3599 78.8858 87.2732 79.3898 87.0996 79.8303C86.9328 80.2642 86.6891 80.6313 86.3687 80.9317C86.0483 81.232 85.6545 81.4623 85.1873 81.6225C84.72 81.776 84.1827 81.8528 83.5753 81.8528H81.6229ZM82.3638 80.5812H83.4852C83.8657 80.5812 84.1961 80.5345 84.4764 80.4411C84.7568 80.3476 84.9904 80.2074 85.1773 80.0205C85.3642 79.8336 85.5043 79.6 85.5978 79.3197C85.6912 79.0327 85.738 78.6989 85.738 78.3185C85.738 77.5575 85.5477 76.9935 85.1673 76.6264C84.7935 76.2526 84.2328 76.0657 83.4852 76.0657H82.3638V80.5812Z" fill="#3080E3"/>
<path fill-rule="evenodd" clip-rule="evenodd" d="M60.8884 19.1462C60.8689 19.1471 60.8495 19.148 60.8301 19.1489L60.8279 19.149C59.6474 19.2093 58.4817 19.4839 57.3817 19.9786L57.3808 19.979C54.286 21.3757 52.2882 24.2643 51.5037 27.7039C50.7194 31.1424 51.1298 35.1779 52.8752 39.0153L52.8762 39.0174C53.3696 40.094 53.9424 41.1034 54.5815 42.0343C53.5027 42.5045 52.4104 43.0331 51.5911 43.5543C51.0766 43.8815 50.5651 44.2695 50.2714 44.7076C50.1184 44.9358 49.9702 45.258 49.9999 45.6409C50.0318 46.0507 50.2533 46.3646 50.5196 46.5783L50.5203 46.5788C53.463 48.9349 56.7051 50.1914 59.9068 50.5241C60.364 50.5716 60.7733 50.2394 60.8208 49.7821C60.8683 49.3248 60.5361 48.9156 60.0788 48.868C57.2837 48.5776 54.4315 47.504 51.8017 45.4687C51.9395 45.3377 52.1606 45.1653 52.4847 44.9591C53.4205 44.3638 54.8371 43.7172 56.1883 43.1627L57.1994 42.7477L56.5308 41.8833C55.7135 40.8267 54.9898 39.6328 54.3902 38.3248C52.7821 34.7887 52.431 31.125 53.1269 28.0741C53.8226 25.0243 55.5467 22.6336 58.065 21.4969C58.7201 21.2023 59.404 21.002 60.1016 20.8946L60.8884 19.1462ZM61.6539 20.8076L62.303 19.1816C67.2206 19.6242 72.1289 23.4541 74.7308 29.1554L74.731 29.1559C77.7238 35.7251 76.8216 43.0102 72.5319 46.7158L72.5213 46.7264L72.4923 46.7505C70.4827 48.4161 67.5842 49.5815 65.0698 50.1705C64.6222 50.2754 64.1743 49.9975 64.0694 49.5498C63.9645 49.1022 64.2424 48.6543 64.6901 48.5494C67.0461 47.9975 69.661 46.9237 71.4038 45.4901L71.424 45.4728C74.9919 42.4104 76.0176 35.996 73.2159 29.8462C70.7774 24.5033 66.259 21.1577 62.0416 20.8304L62.0336 20.8298L62.0256 20.8291C61.9074 20.8176 61.7867 20.8118 61.6539 20.8076ZM51.6422 45.6542C51.6413 45.6565 51.6406 45.6575 51.6406 45.6575C51.6405 45.6576 51.641 45.6565 51.6422 45.6542Z" fill="#54B1E6"/>
<path d="M94.9482 29.2002C94.9482 29.2002 92.4467 24.0035 86.4449 24.0987C80.2867 24.194 75.3945 31.4524 75.3945 31.4524" stroke="#004F96" stroke-width="1.66494" stroke-miterlimit="10" stroke-linecap="round"/>
<path d="M68.7578 12.8274C68.7578 12.8274 74.5477 12.8725 77.014 18.3201C79.5409 23.9031 75.0067 31.3922 75.0067 31.3922" stroke="#004F96" stroke-width="1.66494" stroke-miterlimit="10" stroke-linecap="round"/>
<path d="M69.5638 34.2063C66.8655 35.8917 64.9591 38.2644 64.3035 40.928C64.3035 40.933 64.3035 40.933 64.3035 40.938C62.7501 47.765 65.8468 55.7707 73.9719 59.3874C75.2277 59.9441 75.1823 56.4078 74.9452 53.4984C76.3272 53.7542 77.7898 53.8546 79.2978 53.7894C87.4229 53.4132 93.7778 48.1462 93.4954 42.0215C93.2078 35.8968 86.389 31.2317 78.2639 31.6079C77.1544 31.6581 75.3538 31.8889 75.3538 31.8889" stroke="#1280B2" stroke-width="1.66494" stroke-miterlimit="10" stroke-linecap="round"/>
<path d="M69.5638 34.2063C66.8655 35.8917 64.9591 38.2644 64.3035 40.928C64.3035 40.933 64.3035 40.933 64.3035 40.938C62.7501 47.765 65.8468 55.7707 73.9719 59.3874C75.2277 59.9441 75.1823 56.4078 74.9452 53.4984C76.3272 53.7542 77.7898 53.8546 79.2978 53.7894C87.4229 53.4132 93.7778 48.1462 93.4954 42.0215C93.2078 35.8968 86.389 31.2317 78.2639 31.6079" stroke="#1280B2" stroke-width="1.66494" stroke-miterlimit="10" stroke-linecap="round"/>
</svg>
