<svg width="25" height="26" viewBox="0 0 25 26" fill="none" xmlns="http://www.w3.org/2000/svg">
<path d="M3.26279 23.0039L6.27312 15.8462L10.4086 19.9653L3.26279 23.0039Z" fill="black"/>
<circle cx="14.165" cy="11.125" r="10.5" fill="black"/>
<path d="M9.506 8.836V13.75H8.309V8.836H9.506ZM12.2145 8.836C12.7325 8.836 13.1851 8.93867 13.5725 9.144C13.9598 9.34933 14.2585 9.63867 14.4685 10.012C14.6831 10.3807 14.7905 10.8077 14.7905 11.293C14.7905 11.7737 14.6831 12.2007 14.4685 12.574C14.2585 12.9473 13.9575 13.2367 13.5655 13.442C13.1781 13.6473 12.7278 13.75 12.2145 13.75H10.3735V8.836H12.2145ZM12.1375 12.714C12.5901 12.714 12.9425 12.5903 13.1945 12.343C13.4465 12.0957 13.5725 11.7457 13.5725 11.293C13.5725 10.8403 13.4465 10.488 13.1945 10.236C12.9425 9.984 12.5901 9.858 12.1375 9.858H11.5705V12.714H12.1375ZM18.3084 13.75L16.6564 11.58V13.75H15.4594V8.836H16.6564V10.992L18.2944 8.836H19.7014L17.7974 11.244L19.7714 13.75H18.3084Z" fill="white"/>
</svg>
