<svg width="19" height="19" viewBox="0 0 19 19" fill="none" xmlns="http://www.w3.org/2000/svg">
<path d="M9.48917 0.733398C4.66407 0.733398 0.748047 4.6163 0.748047 9.4006C0.748047 14.1849 4.66407 18.0678 9.48917 18.0678C14.3143 18.0678 18.2303 14.1849 18.2303 9.4006C18.2303 4.6163 14.3143 0.733398 9.48917 0.733398ZM9.48917 13.7342C9.00841 13.7342 8.61506 13.3442 8.61506 12.8675V9.4006C8.61506 8.9239 9.00841 8.53388 9.48917 8.53388C9.96993 8.53388 10.3633 8.9239 10.3633 9.4006V12.8675C10.3633 13.3442 9.96993 13.7342 9.48917 13.7342ZM10.3633 6.80044H8.61506V5.067H10.3633V6.80044Z" fill="black"/>
</svg>
