<svg width="16" height="17" viewBox="0 0 16 17" fill="none" xmlns="http://www.w3.org/2000/svg">
<path d="M1.77778 17H14.2222C14.6937 17 15.1459 16.801 15.4793 16.4468C15.8127 16.0925 16 15.6121 16 15.1111V4.72222L11.5556 0H1.77778C1.30628 0 0.854097 0.199007 0.520699 0.553243C0.187301 0.907478 0 1.38792 0 1.88889V15.1111C0 15.6121 0.187301 16.0925 0.520699 16.4468C0.854097 16.801 1.30628 17 1.77778 17ZM3.55556 1.88889H7.11111V3.77778H8.88889V1.88889H10.6667V5.66667H3.55556V1.88889ZM3.55556 9.44444H12.4444V15.1111H3.55556V9.44444Z" fill="black"/>
</svg>
