<svg width="50" height="50" viewBox="0 0 50 50" fill="none" xmlns="http://www.w3.org/2000/svg">
<path fill-rule="evenodd" clip-rule="evenodd" d="M24.9998 5.73047C21.2604 5.73047 18.229 8.76187 18.229 12.5013C18.229 16.2407 21.2604 19.2721 24.9998 19.2721C28.7393 19.2721 31.7707 16.2407 31.7707 12.5013C31.7707 8.76187 28.7393 5.73047 24.9998 5.73047ZM15.104 12.5013C15.104 7.03598 19.5345 2.60547 24.9998 2.60547C30.4652 2.60547 34.8957 7.03598 34.8957 12.5013C34.8957 17.9666 30.4652 22.3971 24.9998 22.3971C19.5345 22.3971 15.104 17.9666 15.104 12.5013Z" fill="#6BA7FA"/>
<path fill-rule="evenodd" clip-rule="evenodd" d="M4.6875 45.832C4.6875 34.6138 13.7817 25.5195 25 25.5195C36.2183 25.5195 45.3125 34.6138 45.3125 45.832C45.3125 46.695 44.6129 47.3945 43.75 47.3945C42.8871 47.3945 42.1875 46.695 42.1875 45.832C42.1875 36.3397 34.4924 28.6445 25 28.6445C15.5076 28.6445 7.8125 36.3397 7.8125 45.832C7.8125 46.695 7.11294 47.3945 6.25 47.3945C5.38706 47.3945 4.6875 46.695 4.6875 45.832Z" fill="#6BA7FA"/>
<path fill-rule="evenodd" clip-rule="evenodd" d="M24.9997 25.5195C25.6856 25.5195 26.2914 25.9669 26.4931 26.6225L30.6598 40.1642C30.8118 40.6585 30.7095 41.196 30.3865 41.5998L26.2198 46.8081C25.9233 47.1788 25.4744 47.3945 24.9997 47.3945C24.525 47.3945 24.0761 47.1788 23.7796 46.8081L19.6129 41.5998C19.2899 41.196 19.1875 40.6585 19.3396 40.1642L23.5063 26.6225C23.708 25.9669 24.3137 25.5195 24.9997 25.5195ZM22.5695 40.2931L24.9997 43.3308L27.4298 40.2931L24.9997 32.3951L22.5695 40.2931Z" fill="#6BA7FA"/>
</svg>
