<svg width="50" height="50" viewBox="0 0 50 50" fill="none" xmlns="http://www.w3.org/2000/svg">
<path d="M5.00763 23.1733L3.45074 23.3081L3.45074 23.3081L5.00763 23.1733ZM6.65253 42.1733L5.09564 42.3081L5.09564 42.3081L6.65253 42.1733ZM20.0276 20.4345L20.6963 21.8469L20.6963 21.8469L20.0276 20.4345ZM25.7271 15.9805L24.3853 15.1795L24.3853 15.1795L25.7271 15.9805ZM27.7095 7.20878L29.2707 7.27787L29.2707 7.27773L27.7095 7.20878ZM27.7336 6.73656L29.2816 6.95033L29.2816 6.95028L27.7336 6.73656ZM33.1941 9.47612L34.5359 8.67513V8.67513L33.1941 9.47612ZM33.9932 13.8463L35.553 13.9418L35.553 13.9417L33.9932 13.8463ZM33.0748 18.0483L34.5722 18.4952L34.5723 18.4951L33.0748 18.0483ZM32.1985 20.9845L30.701 20.5376C30.5599 21.0106 30.6505 21.5224 30.9454 21.9182C31.2403 22.314 31.7049 22.5472 32.1985 22.5472V20.9845ZM44.9238 23.5281L43.4195 23.1051L43.4195 23.1051L44.9238 23.5281ZM39.5772 42.5436L38.0728 42.1206V42.1206L39.5772 42.5436ZM6.56453 23.0385C6.54175 22.7754 6.74718 22.5627 6.99135 22.5627V19.4373C4.89996 19.4373 3.27119 21.234 3.45074 23.3081L6.56453 23.0385ZM6.99135 22.5627H10.7931V19.4373H6.99135V22.5627ZM10.7931 22.5627C11.0233 22.5627 11.2216 22.752 11.2216 23H14.347C14.347 21.0388 12.7624 19.4373 10.7931 19.4373V22.5627ZM11.2216 23V42H14.347V23H11.2216ZM11.2216 42C11.2216 42.248 11.0233 42.4373 10.7931 42.4373V45.5627C12.7624 45.5627 14.347 43.9612 14.347 42H11.2216ZM10.7931 42.4373H8.63625V45.5627H10.7931V42.4373ZM8.63625 42.4373C8.41985 42.4373 8.22945 42.2698 8.20943 42.0385L5.09564 42.3081C5.25456 44.1438 6.78695 45.5627 8.63625 45.5627V42.4373ZM8.20943 42.0385L6.56453 23.0385L3.45074 23.3081L5.09564 42.3081L8.20943 42.0385ZM20.3206 22.3745C20.3206 22.197 20.4389 21.9688 20.6963 21.8469L19.3589 19.0221C18.1111 19.6128 17.1952 20.8806 17.1952 22.3745H20.3206ZM20.6963 21.8469C21.5657 21.4353 22.7619 20.8061 23.9229 19.9838C25.0673 19.1734 26.2792 18.1045 27.0689 16.7815L24.3853 15.1795C23.9135 15.9698 23.0962 16.7394 22.1165 17.4333C21.1535 18.1154 20.1307 18.6566 19.3588 19.0221L20.6963 21.8469ZM27.0689 16.7815C28.0371 15.1597 28.5571 13.0093 28.8506 11.2537C29.1512 9.456 29.2443 7.87502 29.2707 7.27787L26.1483 7.13969C26.1249 7.66971 26.0397 9.11279 25.768 10.7383C25.4892 12.4058 25.043 14.0777 24.3853 15.1795L27.0689 16.7815ZM29.2707 7.27773C29.2732 7.22077 29.2745 7.16748 29.2755 7.12598C29.2765 7.07968 29.2771 7.05152 29.278 7.02078C29.2799 6.96197 29.282 6.94739 29.2816 6.95033L26.1856 6.52279C26.1512 6.77161 26.1484 7.137 26.1483 7.13983L29.2707 7.27773ZM29.2816 6.95028C29.2787 6.97181 29.2424 7.16442 29.0402 7.34906C28.8404 7.53141 28.6392 7.55927 28.5854 7.56228C28.5565 7.56389 28.7806 7.57159 29.2774 7.8423C30.2099 8.35046 31.2907 9.33634 31.8522 10.2771L34.5359 8.67513C33.6581 7.2047 32.1434 5.84475 30.7729 5.0979C30.1182 4.74112 29.2639 4.39402 28.4108 4.44172C27.9449 4.46778 27.3951 4.6189 26.933 5.04077C26.4684 5.46492 26.2559 6.01328 26.1856 6.52284L29.2816 6.95028ZM31.8522 10.2771C32.3849 11.1694 32.5104 12.493 32.4334 13.7509L35.553 13.9417C35.6403 12.515 35.5656 10.4001 34.5359 8.67513L31.8522 10.2771ZM32.4334 13.7508C32.3585 14.9758 31.9992 16.1874 31.5773 17.6015L34.5723 18.4951C34.9729 17.1524 35.4522 15.5892 35.553 13.9418L32.4334 13.7508ZM31.5774 17.6014L30.701 20.5376L33.6959 21.4314L34.5722 18.4952L31.5774 17.6014ZM32.1985 22.5472H43.0076V19.4218H32.1985V22.5472ZM43.0076 22.5472C43.2833 22.5472 43.5006 22.8167 43.4195 23.1051L46.4282 23.9511C47.0649 21.6869 45.3729 19.4218 43.0076 19.4218V22.5472ZM43.4195 23.1051L38.0728 42.1206L41.0815 42.9666L46.4282 23.9511L43.4195 23.1051ZM38.0728 42.1206C38.019 42.312 37.848 42.4373 37.6609 42.4373V45.5627C39.2564 45.5627 40.6509 44.4982 41.0815 42.9666L38.0728 42.1206ZM37.6609 42.4373H20.7491V45.5627H37.6609V42.4373ZM20.7491 42.4373C20.5189 42.4373 20.3206 42.248 20.3206 42H17.1952C17.1952 43.9612 18.7798 45.5627 20.7491 45.5627V42.4373ZM20.3206 42V22.3745H17.1952V42H20.3206Z" fill="#6BA7FA"/>
</svg>
