<svg width="50" height="50" viewBox="0 0 50 50" fill="none" xmlns="http://www.w3.org/2000/svg">
<path fill-rule="evenodd" clip-rule="evenodd" d="M6.25008 7.8125C5.96243 7.8125 5.72925 8.04568 5.72925 8.33333V35.4167C5.72925 35.7043 5.96242 35.9375 6.25008 35.9375H27.0834C27.9464 35.9375 28.6459 36.6371 28.6459 37.5C28.6459 38.3629 27.9464 39.0625 27.0834 39.0625H6.25008C4.23656 39.0625 2.60425 37.4303 2.60425 35.4167V8.33333C2.60425 6.31979 4.23654 4.6875 6.25008 4.6875H43.7501C45.7637 4.6875 47.3959 6.31981 47.3959 8.33333V35.4167C47.3959 37.4302 45.7637 39.0625 43.7501 39.0625H35.4168C34.5538 39.0625 33.8542 38.3629 33.8542 37.5C33.8542 36.6371 34.5538 35.9375 35.4168 35.9375H43.7501C44.0378 35.9375 44.2709 35.7043 44.2709 35.4167V8.33333C44.2709 8.04567 44.0378 7.8125 43.7501 7.8125H6.25008Z" fill="#6BA7FA"/>
<path fill-rule="evenodd" clip-rule="evenodd" d="M10.9375 14.582C10.9375 13.7191 11.6371 13.0195 12.5 13.0195H37.5C38.3629 13.0195 39.0625 13.7191 39.0625 14.582C39.0625 15.445 38.3629 16.1445 37.5 16.1445H12.5C11.6371 16.1445 10.9375 15.445 10.9375 14.582Z" fill="#6BA7FA"/>
<path fill-rule="evenodd" clip-rule="evenodd" d="M10.9375 21.875C10.9375 21.0121 11.6371 20.3125 12.5 20.3125H18.75C19.6129 20.3125 20.3125 21.0121 20.3125 21.875C20.3125 22.7379 19.6129 23.4375 18.75 23.4375H12.5C11.6371 23.4375 10.9375 22.7379 10.9375 21.875Z" fill="#6BA7FA"/>
<path fill-rule="evenodd" clip-rule="evenodd" d="M10.9375 29.168C10.9375 28.305 11.6371 27.6055 12.5 27.6055H16.6667C17.5296 27.6055 18.2292 28.305 18.2292 29.168C18.2292 30.0309 17.5296 30.7305 16.6667 30.7305H12.5C11.6371 30.7305 10.9375 30.0309 10.9375 29.168Z" fill="#6BA7FA"/>
<path fill-rule="evenodd" clip-rule="evenodd" d="M23.4375 28.125C23.4375 23.8103 26.9353 20.3125 31.25 20.3125C35.5647 20.3125 39.0625 23.8103 39.0625 28.125C39.0625 32.4397 35.5647 35.9375 31.25 35.9375C26.9353 35.9375 23.4375 32.4397 23.4375 28.125ZM31.25 23.4375C28.6612 23.4375 26.5625 25.5362 26.5625 28.125C26.5625 30.7138 28.6612 32.8125 31.25 32.8125C33.8388 32.8125 35.9375 30.7138 35.9375 28.125C35.9375 25.5362 33.8388 23.4375 31.25 23.4375Z" fill="#6BA7FA"/>
<path fill-rule="evenodd" clip-rule="evenodd" d="M35.9091 31.3024C36.5479 31.5146 36.9791 32.1121 36.9791 32.7853V43.7517C36.9791 44.2932 36.6987 44.7962 36.238 45.0809C35.7774 45.3656 35.2022 45.3914 34.7178 45.1493L31.2499 43.4153L27.782 45.1493C27.2977 45.3914 26.7224 45.3656 26.2618 45.0809C25.8011 44.7962 25.5208 44.2932 25.5208 43.7517V32.8142C25.5208 32.1436 25.9487 31.5477 26.5842 31.3335C27.2077 31.1234 27.8944 31.3266 28.3035 31.8383C28.3115 31.8483 28.3193 31.8583 28.327 31.8685M28.6458 35.5553V41.2235L30.5511 40.2708C30.991 40.0509 31.5088 40.0509 31.9487 40.2708L33.8541 41.2235V35.5496C33.1317 35.783 32.2668 35.9392 31.2499 35.9392C30.2326 35.9392 29.3678 35.7853 28.6458 35.5553ZM34.1656 31.8491L34.1667 31.8476L34.1687 31.8449L34.1726 31.8399L34.1791 31.8313L34.1877 31.8204C34.1914 31.8159 34.1912 31.8163 34.1873 31.8208C34.5933 31.303 35.282 31.0942 35.9091 31.3024M34.1869 31.8212C34.1781 31.8312 34.1533 31.8586 34.1114 31.8981L34.1869 31.8212ZM34.1114 31.8981C34.0276 31.9773 33.877 32.104 33.6518 32.2379L34.1114 31.8981ZM33.6518 32.2379C33.2125 32.499 32.4451 32.8142 31.2499 32.8142L33.6518 32.2379ZM31.2499 32.8142C30.0489 32.8142 29.2777 32.503 28.8372 32.246L31.2499 32.8142ZM28.8372 32.246C28.6117 32.1143 28.4612 31.99 28.378 31.9128L28.8372 32.246ZM28.378 31.9128C28.3364 31.8742 28.3119 31.8477 28.3035 31.8383L28.378 31.9128Z" fill="#6BA7FA"/>
</svg>
