<svg width="160" height="160" viewBox="0 0 160 160" fill="none" xmlns="http://www.w3.org/2000/svg">
<path d="M80 54C76.7861 54 73.6443 54.953 70.972 56.7386C68.2997 58.5242 66.2169 61.0621 64.987 64.0314C63.757 67.0007 63.4352 70.268 64.0622 73.4202C64.6893 76.5724 66.2369 79.4679 68.5095 81.7405C70.7821 84.0131 73.6776 85.5608 76.8298 86.1878C79.982 86.8148 83.2493 86.493 86.2186 85.263C89.1879 84.0331 91.7258 81.9503 93.5114 79.278C95.297 76.6057 96.25 73.4639 96.25 70.25C96.25 65.9402 94.538 61.807 91.4905 58.7595C88.443 55.712 84.3098 54 80 54Z" fill="#E8E8E8"/>
<path d="M80 34.5C71.001 34.5 62.204 37.1685 54.7216 42.1681C47.2391 47.1677 41.4073 54.2739 37.9635 62.5879C34.5197 70.9019 33.6187 80.0505 35.3743 88.8766C37.1299 97.7027 41.4634 105.81 47.8267 112.173C54.19 118.537 62.2973 122.87 71.1234 124.626C79.9495 126.381 89.0981 125.48 97.4121 122.037C105.726 118.593 112.832 112.761 117.832 105.278C122.831 97.796 125.5 88.9991 125.5 80C125.486 67.9369 120.688 56.3718 112.158 47.8418C103.628 39.3119 92.0631 34.5138 80 34.5V34.5ZM105.974 109.01C105.909 104.747 104.172 100.68 101.138 97.6852C98.103 94.6906 94.0134 93.008 89.75 93H70.25C65.9866 93.008 61.897 94.6906 58.8623 97.6852C55.8276 100.68 54.0908 104.747 54.026 109.01C48.1324 103.747 43.9761 96.8183 42.1077 89.1412C40.2393 81.464 40.7468 73.4004 43.5631 66.018C46.3793 58.6357 51.3715 52.2829 57.8785 47.8008C64.3855 43.3188 72.1004 40.9188 80.0016 40.9188C87.9029 40.9188 95.6178 43.3188 102.125 47.8008C108.632 52.2829 113.624 58.6357 116.44 66.018C119.256 73.4004 119.764 81.464 117.896 89.1412C116.027 96.8183 111.871 103.747 105.977 109.01H105.974Z" fill="#E8E8E8"/>
</svg>
