<svg width="12" height="12" viewBox="0 0 12 12" fill="none" xmlns="http://www.w3.org/2000/svg">
<path d="M11.7251 1.76045C11.6457 1.67792 11.5513 1.61242 11.4472 1.56772C11.3432 1.52301 11.2316 1.5 11.1189 1.5C11.0062 1.5 10.8946 1.52301 10.7905 1.56772C10.6865 1.61242 10.592 1.67792 10.5126 1.76045L4.15139 8.32889L1.47882 5.56416C1.3964 5.48206 1.29911 5.41751 1.1925 5.37419C1.08589 5.33086 0.972054 5.30962 0.857483 5.31166C0.742911 5.31371 0.629852 5.339 0.524761 5.3861C0.419669 5.4332 0.324603 5.50118 0.244991 5.58617C0.165378 5.67116 0.102779 5.77148 0.0607656 5.88141C0.0187524 5.99135 -0.00185163 6.10874 0.000130571 6.22688C0.00211277 6.34503 0.0266423 6.46161 0.0723181 6.56998C0.117994 6.67835 0.183922 6.77638 0.266338 6.85848L3.54515 10.2396C3.62453 10.3221 3.71897 10.3876 3.82302 10.4323C3.92707 10.477 4.03867 10.5 4.15139 10.5C4.26411 10.5 4.37572 10.477 4.47977 10.4323C4.58382 10.3876 4.67825 10.3221 4.75763 10.2396L11.7251 3.05477C11.8118 2.97231 11.881 2.87225 11.9283 2.76086C11.9756 2.64948 12 2.5292 12 2.40761C12 2.28601 11.9756 2.16573 11.9283 2.05435C11.881 1.94297 11.8118 1.8429 11.7251 1.76045V1.76045Z" fill="white"/>
</svg>
