<svg width="60" height="60" viewBox="0 0 60 60" fill="none" xmlns="http://www.w3.org/2000/svg">
<path d="M60 30C60 37.9565 56.8393 45.5871 51.2132 51.2132C45.5871 56.8393 37.9565 60 30 60C22.0435 60 14.4129 56.8393 8.7868 51.2132C3.16071 45.5871 0 37.9565 0 30C0 22.0435 3.16071 14.4129 8.7868 8.7868C14.4129 3.16071 22.0435 0 30 0C37.9565 0 45.5871 3.16071 51.2132 8.7868C56.8393 14.4129 60 22.0435 60 30ZM25.4625 19.0988C25.1821 18.8991 24.8522 18.7805 24.509 18.7559C24.1657 18.7314 23.8222 18.8017 23.5163 18.9594C23.2103 19.117 22.9537 19.3558 22.7744 19.6496C22.5951 19.9434 22.5002 20.2808 22.5 20.625V39.375C22.5002 39.7192 22.5951 40.0566 22.7744 40.3504C22.9537 40.6442 23.2103 40.883 23.5163 41.0406C23.8222 41.1983 24.1657 41.2686 24.509 41.2441C24.8522 41.2195 25.1821 41.1009 25.4625 40.9012L38.5875 31.5262C38.8306 31.3528 39.0287 31.1238 39.1654 30.8583C39.3021 30.5929 39.3734 30.2986 39.3734 30C39.3734 29.7014 39.3021 29.4071 39.1654 29.1417C39.0287 28.8762 38.8306 28.6472 38.5875 28.4737L25.4625 19.0988Z" fill="#F8F9FB"/>
</svg>
