<svg width="710" height="430" viewBox="0 0 710 430" fill="none" xmlns="http://www.w3.org/2000/svg">
<g clip-path="url(#clip0_38_5022)">
<path d="M597.449 70.8608H132.037C118.515 70.8608 107.553 81.8394 107.553 95.3822V370.098C107.553 383.641 118.515 394.619 132.037 394.619H597.449C610.971 394.619 621.933 383.641 621.933 370.098V95.3822C621.933 81.8394 610.971 70.8608 597.449 70.8608Z" fill="white" stroke="#E8E8E8" stroke-width="4"/>
<path d="M548.425 94.6621H512.778C507.182 94.6621 502.645 99.2059 502.645 104.811C502.645 110.416 507.182 114.96 512.778 114.96H548.425C554.022 114.96 558.559 110.416 558.559 104.811C558.559 99.2059 554.022 94.6621 548.425 94.6621Z" fill="white" stroke="#E8E8E8" stroke-width="4"/>
<path d="M473.169 94.6621H437.523C431.926 94.6621 427.389 99.2059 427.389 104.811C427.389 110.416 431.926 114.96 437.523 114.96H473.169C478.766 114.96 483.303 110.416 483.303 104.811C483.303 99.2059 478.766 94.6621 473.169 94.6621Z" fill="white" stroke="#E8E8E8" stroke-width="4"/>
<path d="M408.048 104.811C408.048 99.2059 403.511 94.6621 397.915 94.6621C392.318 94.6621 387.781 99.2059 387.781 104.811C387.781 110.416 392.318 114.96 397.915 114.96C403.511 114.96 408.048 110.416 408.048 104.811Z" fill="white" stroke="#E8E8E8" stroke-width="4"/>
<path d="M171.844 283.148H240.976V308.504H270.091V283.148H287.954V258.707H270.091V164.256H231.973L171.844 259.13V283.148ZM241.538 258.707H202.506V257.58L240.412 197.501H241.538V258.707ZM364.716 311.673C400.934 311.673 422.806 284.063 422.877 236.52C422.947 189.331 400.793 162.283 364.716 162.283C328.568 162.283 306.625 189.26 306.555 236.52C306.415 283.922 328.427 311.602 364.716 311.673ZM364.716 286.387C348.189 286.387 337.499 269.765 337.569 236.52C337.64 203.769 348.259 187.287 364.716 187.287C381.102 187.287 391.792 203.769 391.792 236.52C391.862 269.765 381.173 286.387 364.716 286.387ZM442.41 283.148H511.542V308.504H540.657V283.148H558.52V258.707H540.657V164.256H502.539L442.41 259.13V283.148ZM512.104 258.707H473.072V257.58L510.979 197.501H512.104V258.707Z" fill="#E8E8E8"/>
<path d="M156.535 102.828C156.535 98.318 152.885 94.6621 148.382 94.6621C143.879 94.6621 140.229 98.318 140.229 102.828C140.229 107.337 143.879 110.993 148.382 110.993C152.885 110.993 156.535 107.337 156.535 102.828Z" fill="white" stroke="#E8E8E8" stroke-width="4"/>
<path d="M114.257 288.75C119.972 288.75 124.605 293.389 124.605 299.113C124.605 304.836 119.972 309.476 114.257 309.476C108.543 309.476 103.91 304.836 103.91 299.113C103.91 293.389 108.543 288.75 114.257 288.75Z" fill="#6BA7FA"/>
<path d="M629.923 176.867C622.993 180.873 614.132 178.496 610.131 171.555C606.13 164.615 608.504 155.741 615.434 151.734C622.364 147.727 631.225 150.104 635.226 157.045C639.227 163.985 636.852 172.86 629.923 176.867Z" fill="#6BA7FA"/>
<path d="M359.201 115.531C353.238 115.531 348.403 110.69 348.403 104.717C348.403 98.7438 353.238 93.9019 359.201 93.9019C365.165 93.9019 370 98.7438 370 104.717C370 110.69 365.165 115.531 359.201 115.531Z" fill="#E8E8E8"/>
<path d="M230.088 79.0534C238.025 79.0534 244.46 72.6094 244.46 64.6603C244.46 56.7111 238.025 50.2671 230.088 50.2671C222.151 50.2671 215.717 56.7111 215.717 64.6603C215.717 72.6094 222.151 79.0534 230.088 79.0534Z" fill="#6BA7FA"/>
<path d="M435.542 325.959C428.979 325.959 423.659 331.287 423.659 337.86C423.659 344.433 428.979 349.761 435.542 349.761C442.105 349.761 447.425 344.433 447.425 337.86C447.425 331.287 442.105 325.959 435.542 325.959Z" fill="#6BA7FA"/>
<path d="M215.746 371.637C209.714 371.637 204.824 366.74 204.824 360.699C204.824 354.658 209.714 349.761 215.746 349.761C221.778 349.761 226.668 354.658 226.668 360.699C226.668 366.74 221.778 371.637 215.746 371.637Z" fill="#E8E8E8"/>
<path d="M325.058 320.141C328.973 322.405 330.314 327.418 328.054 331.339C325.794 335.26 320.788 336.603 316.873 334.339C312.959 332.076 311.617 327.062 313.878 323.142C316.138 319.221 321.143 317.878 325.058 320.141Z" fill="#E8E8E8"/>
<path d="M594.991 92.3737L580.104 107.283C579.562 107.826 579.562 108.706 580.104 109.249C580.646 109.792 581.525 109.792 582.067 109.249L596.954 94.3399C597.496 93.7967 597.496 92.9163 596.954 92.3734C596.412 91.8304 595.533 91.8306 594.991 92.3737Z" fill="#E8E8E8"/>
<path d="M593.534 103.049L589.241 107.349C588.698 107.892 588.698 108.772 589.24 109.315C589.783 109.858 590.662 109.858 591.204 109.315L595.497 105.015C596.039 104.472 596.039 103.592 595.497 103.049C594.955 102.506 594.076 102.506 593.534 103.049Z" fill="#E8E8E8"/>
<path d="M135.846 355.599L122.525 368.94C122.04 369.426 122.04 370.213 122.524 370.699L122.525 370.699C123.01 371.185 123.796 371.185 124.281 370.699L137.602 357.358C138.087 356.872 138.087 356.085 137.602 355.599L137.602 355.599C137.117 355.113 136.331 355.113 135.846 355.599Z" fill="#E8E8E8"/>
<path d="M134.542 365.15L130.699 368.998C130.214 369.483 130.214 370.271 130.699 370.756L130.7 370.757C131.185 371.243 131.971 371.243 132.456 370.757L136.298 366.909C136.783 366.423 136.783 365.636 136.298 365.15L136.298 365.15C135.813 364.664 135.027 364.664 134.542 365.15Z" fill="#E8E8E8"/>
<path d="M71.2889 96.147L97.0404 70.3567C97.9781 69.4176 97.9781 67.8949 97.0404 66.9558C96.1026 66.0166 94.5822 66.0166 93.6445 66.9558L67.8931 92.746C66.9554 93.6852 66.9554 95.2078 67.8931 96.147C68.8308 97.0861 70.3512 97.0861 71.2889 96.147Z" fill="#E8E8E8"/>
<path d="M73.8099 77.6818L81.2367 70.2439C82.1744 69.3048 82.1744 67.7821 81.2366 66.843C80.2989 65.9038 78.7785 65.9038 77.8408 66.843L70.4141 74.2809C69.4764 75.22 69.4764 76.7427 70.4141 77.6818C71.3518 78.621 72.8722 78.621 73.8099 77.6818Z" fill="#E8E8E8"/>
<path d="M582.707 373.57L600.836 355.414C601.496 354.753 601.496 353.681 600.836 353.02C600.176 352.359 599.106 352.359 598.446 353.02L580.317 371.176C579.657 371.837 579.657 372.909 580.317 373.57C580.977 374.231 582.047 374.231 582.707 373.57Z" fill="#E8E8E8"/>
<path d="M584.482 360.572L589.711 355.336C590.371 354.675 590.371 353.603 589.711 352.942C589.051 352.281 587.981 352.281 587.321 352.942L582.092 358.178C581.432 358.839 581.432 359.911 582.092 360.572C582.752 361.233 583.822 361.233 584.482 360.572Z" fill="#E8E8E8"/>
<path fill-rule="evenodd" clip-rule="evenodd" d="M570.482 39.2105H573.372C574.07 39.2105 574.633 39.7798 574.633 40.4734V43.3669C574.633 44.0666 574.064 44.6297 573.372 44.6297H570.482C569.79 44.6297 569.221 44.0605 569.221 43.3669V40.4734C569.221 40.3074 569.253 40.1431 569.317 39.9897C569.38 39.8363 569.473 39.697 569.59 39.5796C569.707 39.4623 569.846 39.3693 569.999 39.3059C570.153 39.2426 570.317 39.2102 570.482 39.2105ZM580.499 39.2105H583.388C584.081 39.2105 584.649 39.7798 584.649 40.4734V43.3669C584.649 44.0666 584.081 44.6297 583.388 44.6297H580.499C579.807 44.6297 579.238 44.0605 579.238 43.3669V40.4734C579.238 39.7798 579.807 39.2105 580.499 39.2105ZM590.523 39.2105H593.412C594.106 39.2105 594.674 39.7798 594.674 40.4734V43.3669C594.674 44.0666 594.106 44.6297 593.412 44.6297H590.523C589.83 44.6297 589.262 44.0605 589.262 43.3669V40.4734C589.262 40.3074 589.294 40.1431 589.357 39.9897C589.421 39.8363 589.513 39.697 589.631 39.5796C589.748 39.4623 589.887 39.3693 590.04 39.3059C590.193 39.2426 590.357 39.2102 590.523 39.2105ZM600.541 39.2105H603.43C604.122 39.2105 604.691 39.7798 604.691 40.4734V43.3669C604.691 44.0666 604.122 44.6297 603.43 44.6297H600.541C600.206 44.6295 599.884 44.4966 599.647 44.26C599.41 44.0234 599.275 43.7023 599.273 43.3669V40.4734C599.277 40.1385 599.412 39.8185 599.649 39.5823C599.886 39.3461 600.206 39.2126 600.541 39.2105ZM610.558 39.2105H613.447C614.146 39.2105 614.714 39.7798 614.714 40.4734V43.3669C614.714 44.0666 614.146 44.6297 613.447 44.6297H610.558C609.866 44.6297 609.297 44.0605 609.297 43.3669V40.4734C609.297 39.7798 609.866 39.2105 610.558 39.2105ZM580.866 50.1506H583.756C584.449 50.1506 585.017 50.7198 585.017 51.4134V54.3131C585.017 55.0067 584.449 55.5759 583.756 55.5759H580.866C580.168 55.5759 579.605 55.0067 579.605 54.3131V51.4195C579.604 51.2531 579.636 51.0881 579.699 50.9341C579.762 50.7801 579.855 50.64 579.972 50.5221C580.089 50.4041 580.229 50.3106 580.382 50.2468C580.536 50.183 580.7 50.1503 580.866 50.1506ZM590.884 50.1506H593.773C594.466 50.1506 595.034 50.7198 595.034 51.4134V54.3131C595.034 55.0067 594.466 55.5759 593.773 55.5759H590.884C590.192 55.5759 589.623 55.0067 589.623 54.3131V51.4195C589.622 51.2531 589.654 51.0881 589.717 50.9341C589.78 50.7801 589.873 50.64 589.99 50.5221C590.107 50.4041 590.246 50.3106 590.4 50.2468C590.553 50.183 590.718 50.1503 590.884 50.1506ZM600.902 50.1506H603.791C604.49 50.1506 605.058 50.7198 605.058 51.4134V54.3131C605.056 54.6485 604.922 54.9696 604.684 55.2062C604.447 55.4428 604.126 55.5757 603.791 55.5759H600.902C600.209 55.5759 599.641 55.0067 599.641 54.3131V51.4195C599.641 50.7198 600.209 50.1506 600.902 50.1506ZM590.523 27.4578H593.412C594.106 27.4578 594.674 28.027 594.674 28.7206V31.615C594.674 32.3139 594.106 32.8779 593.412 32.8779H590.523C589.83 32.8779 589.262 32.3086 589.262 31.615V28.7206C589.262 28.5547 589.294 28.3903 589.357 28.2369C589.421 28.0836 589.513 27.9442 589.631 27.8269C589.748 27.7095 589.887 27.6165 590.04 27.5532C590.193 27.4899 590.357 27.4574 590.523 27.4578ZM600.541 27.4578H603.43C604.122 27.4578 604.691 28.027 604.691 28.7206V31.615C604.691 32.3139 604.122 32.8779 603.43 32.8779H600.541C600.206 32.8776 599.884 32.7447 599.647 32.5081C599.41 32.2715 599.275 31.9504 599.273 31.615V28.7206C599.277 28.3858 599.412 28.0658 599.649 27.8295C599.886 27.5933 600.206 27.4598 600.541 27.4578ZM48.6438 380.355H51.5329C52.2316 380.355 52.7939 380.925 52.7939 381.618V384.512C52.7939 385.212 52.2255 385.775 51.5329 385.775H48.6438C47.9512 385.775 47.3828 385.205 47.3828 384.512V381.618C47.3825 381.452 47.4149 381.288 47.4781 381.135C47.5413 380.981 47.6342 380.842 47.7514 380.725C47.8685 380.607 48.0077 380.514 48.1608 380.451C48.314 380.388 48.4781 380.355 48.6438 380.355ZM58.6605 380.355H61.5497C62.2431 380.355 62.8115 380.925 62.8115 381.618V384.512C62.8115 385.212 62.2431 385.775 61.5497 385.775H58.6605C57.968 385.775 57.3996 385.205 57.3996 384.512V381.618C57.3996 380.925 57.968 380.355 58.6605 380.355ZM68.6843 380.355H71.5743C72.2669 380.355 72.8353 380.925 72.8353 381.618V384.512C72.8353 385.212 72.2669 385.775 71.5743 385.775H68.6843C67.9917 385.775 67.4233 385.205 67.4233 384.512V381.618C67.4231 381.452 67.4556 381.288 67.5188 381.135C67.5821 380.982 67.675 380.842 67.7921 380.725C67.9093 380.608 68.0484 380.515 68.2015 380.451C68.3545 380.388 68.5186 380.355 68.6843 380.355ZM78.7019 380.355H81.5911C82.2836 380.355 82.852 380.925 82.852 381.618V384.512C82.852 385.212 82.2836 385.775 81.5911 385.775H78.7019C78.367 385.775 78.0458 385.642 77.8084 385.405C77.571 385.168 77.4367 384.847 77.4348 384.512V381.618C77.4385 381.284 77.5734 380.964 77.8104 380.727C78.0474 380.491 78.3676 380.358 78.7019 380.355ZM88.7195 380.355H91.6087C92.3074 380.355 92.8758 380.925 92.8758 381.618V384.512C92.8758 385.212 92.3074 385.775 91.6087 385.775H88.7195C88.027 385.775 87.4586 385.205 87.4586 384.512V381.618C87.4586 380.925 88.027 380.355 88.7195 380.355ZM59.0287 391.296H61.9178C62.6104 391.296 63.1788 391.865 63.1788 392.558V395.458C63.1788 396.152 62.6104 396.721 61.9178 396.721H59.0287C58.33 396.721 57.7668 396.152 57.7668 395.458V392.565C57.766 392.398 57.7981 392.233 57.8611 392.079C57.9242 391.925 58.017 391.785 58.1343 391.667C58.2516 391.549 58.3909 391.456 58.5444 391.392C58.6979 391.328 58.8625 391.295 59.0287 391.296ZM69.0454 391.296H71.9346C72.6272 391.296 73.1955 391.865 73.1955 392.558V395.458C73.1955 396.152 72.6272 396.721 71.9346 396.721H69.0454C68.3529 396.721 67.7845 396.152 67.7845 395.458V392.565C67.7834 392.398 67.8153 392.233 67.8782 392.079C67.9412 391.925 68.0339 391.785 68.1511 391.667C68.2683 391.549 68.4077 391.456 68.5612 391.392C68.7147 391.328 68.8793 391.295 69.0454 391.296ZM79.0631 391.296H81.9522C82.6509 391.296 83.2193 391.865 83.2193 392.558V395.458C83.2174 395.793 83.0832 396.115 82.8458 396.351C82.6084 396.588 82.2871 396.721 81.9522 396.721H79.0631C78.3705 396.721 77.8021 396.152 77.8021 395.458V392.565C77.8021 391.865 78.3705 391.296 79.0631 391.296ZM68.6852 368.603H71.5743C72.2669 368.603 72.8353 369.172 72.8353 369.866V372.76C72.8353 373.46 72.2669 374.023 71.5743 374.023H68.6852C67.9917 374.023 67.4233 373.454 67.4233 372.76V369.866C67.423 369.7 67.4554 369.536 67.5187 369.382C67.582 369.229 67.6749 369.09 67.7921 368.972C67.9094 368.855 68.0486 368.762 68.2019 368.698C68.3551 368.635 68.5194 368.602 68.6852 368.603ZM78.7019 368.603H81.5911C82.2836 368.603 82.852 369.172 82.852 369.866V372.76C82.852 373.46 82.2836 374.023 81.5911 374.023H78.7019C78.367 374.023 78.0458 373.89 77.8084 373.653C77.571 373.417 77.4367 373.095 77.4348 372.76V369.866C77.4383 369.531 77.573 369.211 77.8101 368.975C78.0471 368.738 78.3674 368.605 78.7019 368.603Z" fill="#E8E8E8"/>
<path fill-rule="evenodd" clip-rule="evenodd" d="M109.171 234.636C87.625 234.636 70.1562 216.894 70.1562 195.011C70.1562 173.129 87.625 155.387 109.171 155.387C130.718 155.387 148.186 173.129 148.186 195.011C148.186 216.894 130.718 234.636 109.171 234.636Z" fill="#6BA7FA"/>
<path d="M124.889 178.197L108.408 195.808L98.5127 185.243" stroke="white" stroke-width="7.405" stroke-linecap="round" stroke-linejoin="round"/>
<path d="M91.9414 212.666L108.423 195.055L118.318 205.621" stroke="white" stroke-width="7.405" stroke-linecap="round" stroke-linejoin="round"/>
</g>
<defs>
<clipPath id="clip0_38_5022">
<rect width="710" height="430" fill="white"/>
</clipPath>
</defs>
</svg>
