<svg width="50" height="50" viewBox="0 0 50 50" fill="none" xmlns="http://www.w3.org/2000/svg">
<path d="M22.9174 44.7917L23.4648 43.328H23.4648L22.9174 44.7917ZM11.8338 32.9613L13.199 32.201L13.199 32.201L11.8338 32.9613ZM12.8378 28.2721L11.8617 27.0518L11.8616 27.0518L12.8378 28.2721ZM18.1503 28.5663L17.0453 29.6713H17.0453L18.1503 28.5663ZM19.7924 30.2084L18.6874 31.3134C19.1344 31.7604 19.8065 31.8941 20.3905 31.6522C20.9744 31.4103 21.3551 30.8405 21.3551 30.2084H19.7924ZM23.438 24.4792C23.438 25.3423 24.1377 26.042 25.0008 26.042C25.8638 26.042 26.5635 25.3423 26.5635 24.4792H23.438ZM28.6464 26.5626C28.6464 27.4256 29.346 28.1253 30.2091 28.1253C31.0722 28.1253 31.7718 27.4256 31.7718 26.5626H28.6464ZM33.8547 28.6459C33.8547 29.509 34.5544 30.2086 35.4174 30.2086C36.2805 30.2086 36.9801 29.509 36.9801 28.6459H33.8547ZM39.7075 39.9696L40.9845 40.8703L40.9846 40.8702L39.7075 39.9696ZM34.3758 44.7917L33.7602 43.3554L33.7602 43.3554L34.3758 44.7917ZM38.6058 13.6051C39.216 12.9948 39.216 12.0054 38.6058 11.3951C37.9955 10.7848 37.006 10.7848 36.3958 11.3951L38.6058 13.6051ZM33.3341 16.6667L32.2291 17.7718C32.8394 18.382 33.8288 18.382 34.4391 17.7718L33.3341 16.6667ZM30.2724 11.3951C29.6622 10.7848 28.6727 10.7848 28.0624 11.3951C27.4521 12.0054 27.4521 12.9948 28.0624 13.6051L30.2724 11.3951ZM13.0214 13.5417C13.0214 14.4048 13.721 15.1045 14.5841 15.1045C15.4472 15.1045 16.1468 14.4048 16.1468 13.5417H13.0214ZM31.6401 14.9769C31.4827 15.8255 32.043 16.641 32.8916 16.7985C33.7402 16.9559 34.5557 16.3956 34.7131 15.547L31.6401 14.9769ZM23.4648 43.328C21.3786 42.5478 19.3327 40.7561 17.4981 38.5663C15.6864 36.4039 14.2006 33.9994 13.199 32.201L10.4685 33.7217C11.5219 35.6132 13.1166 38.2034 15.1023 40.5735C17.0651 42.9162 19.5336 45.1947 22.37 46.2555L23.4648 43.328ZM13.199 32.201C12.7144 31.3307 12.9342 30.1962 13.8141 29.4923L11.8616 27.0518C9.89353 28.6263 9.17862 31.4057 10.4685 33.7217L13.199 32.201ZM13.814 29.4924C14.7795 28.7201 16.1711 28.7971 17.0453 29.6713L19.2554 27.4613C17.255 25.461 14.0706 25.2847 11.8617 27.0518L13.814 29.4924ZM17.0453 29.6713L18.6874 31.3134L20.8974 29.1034L19.2554 27.4613L17.0453 29.6713ZM21.3551 30.2084V18.2292H18.2297V30.2084H21.3551ZM21.3551 18.2292C21.3551 17.6541 21.8214 17.1878 22.3966 17.1878V14.0624C20.0953 14.0624 18.2297 15.928 18.2297 18.2292H21.3551ZM22.3966 17.1878C22.9718 17.1878 23.438 17.6541 23.438 18.2292H26.5635C26.5635 15.928 24.6979 14.0624 22.3966 14.0624V17.1878ZM23.438 18.2292V24.4792H26.5635V18.2292H23.438ZM26.5635 24.4792C26.5635 23.9041 27.0298 23.4378 27.6049 23.4378V20.3124C25.3036 20.3124 23.438 22.178 23.438 24.4792H26.5635ZM27.6049 23.4378C28.1801 23.4378 28.6464 23.9041 28.6464 24.4792H31.7718C31.7718 22.178 29.9062 20.3124 27.6049 20.3124V23.4378ZM28.6464 24.4792V26.5626H31.7718V24.4792H28.6464ZM31.7718 26.5626C31.7718 25.9874 32.2381 25.5211 32.8133 25.5211V22.3957C30.512 22.3957 28.6464 24.2613 28.6464 26.5626H31.7718ZM32.8133 25.5211C33.3884 25.5211 33.8547 25.9874 33.8547 26.5626H36.9801C36.9801 24.2613 35.1146 22.3957 32.8133 22.3957V25.5211ZM33.8547 26.5626V28.6459H36.9801V26.5626H33.8547ZM36.9801 28.6459C36.9801 28.0707 37.4464 27.6045 38.0216 27.6045V24.479C35.7203 24.479 33.8547 26.3446 33.8547 28.6459H36.9801ZM38.0216 27.6045C38.5968 27.6045 39.063 28.0707 39.063 28.6459H42.1885C42.1885 26.3446 40.3229 24.479 38.0216 24.479V27.6045ZM39.063 28.6459V36.8417H42.1885V28.6459H39.063ZM39.063 36.8417C39.063 37.7077 38.8489 38.4756 38.4305 39.0689L40.9846 40.8702C41.8514 39.6412 42.1885 38.2056 42.1885 36.8417H39.063ZM38.4305 39.0688C37.3907 40.5431 35.6847 42.5306 33.7602 43.3554L34.9913 46.2281C37.7647 45.0395 39.8919 42.4194 40.9845 40.8703L38.4305 39.0688ZM33.7602 43.3554C32.0848 44.0734 30.5632 44.4383 28.9716 44.4534C27.3721 44.4686 25.6129 44.1314 23.4648 43.328L22.37 46.2555C24.7741 47.1545 26.9212 47.5985 29.0013 47.5787C31.0894 47.5589 33.0209 47.0726 34.9913 46.2281L33.7602 43.3554ZM36.3958 11.3951L32.2291 15.5617L34.4391 17.7718L38.6058 13.6051L36.3958 11.3951ZM34.4391 15.5617L30.2724 11.3951L28.0624 13.6051L32.2291 17.7718L34.4391 15.5617ZM16.1468 13.5417C16.1468 9.22714 19.6445 5.72947 23.9591 5.72947V2.60403C17.9183 2.60403 13.0214 7.50102 13.0214 13.5417H16.1468ZM23.9591 5.72947C28.2737 5.72947 31.7714 9.22714 31.7714 13.5417H34.8968C34.8968 7.50102 29.9999 2.60403 23.9591 2.60403V5.72947ZM31.7714 13.5417C31.7714 14.0333 31.7262 14.5129 31.6401 14.9769L34.7131 15.547C34.8339 14.8958 34.8968 14.2254 34.8968 13.5417H31.7714Z" fill="#6BA7FA"/>
</svg>
