<svg width="50" height="50" viewBox="0 0 50 50" fill="none" xmlns="http://www.w3.org/2000/svg">
<path fill-rule="evenodd" clip-rule="evenodd" d="M2.60547 25.0003C2.60547 12.6314 12.6324 2.60449 25.0013 2.60449C37.3702 2.60449 47.3971 12.6314 47.3971 25.0003C47.3971 37.3692 37.3702 47.3962 25.0013 47.3962C12.6324 47.3962 2.60547 37.3692 2.60547 25.0003ZM25.0013 5.72949C14.3583 5.72949 5.73047 14.3573 5.73047 25.0003C5.73047 35.6433 14.3583 44.2712 25.0013 44.2712C35.6443 44.2712 44.2721 35.6433 44.2721 25.0003C44.2721 14.3573 35.6443 5.72949 25.0013 5.72949Z" fill="#6BA7FA"/>
<path fill-rule="evenodd" clip-rule="evenodd" d="M19.102 31.5832C18.7131 30.8184 17.7792 30.5097 17.0106 30.8941C16.2387 31.28 15.9259 32.2185 16.3118 32.9904L17.7093 32.2916C16.3118 32.9904 16.3121 32.9911 16.3125 32.9918L16.3133 32.9933L16.3149 32.9966L16.3189 33.0044L16.3293 33.0246L16.3601 33.0826C16.3851 33.1288 16.4193 33.19 16.4629 33.2639C16.5499 33.4116 16.6752 33.6114 16.8412 33.8458C17.1721 34.3129 17.6723 34.9279 18.364 35.5428C19.7605 36.7841 21.9393 38.0208 25.001 38.0208C28.0626 38.0208 30.2415 36.7841 31.638 35.5428C32.3297 34.9279 32.8299 34.3129 33.1608 33.8458C33.3268 33.6114 33.4521 33.4116 33.5391 33.2639C33.5827 33.19 33.6168 33.1288 33.6419 33.0826L33.6727 33.0246L33.6831 33.0044L33.6871 32.9966L33.6887 32.9933L33.6895 32.9918C33.6898 32.9911 33.6902 32.9904 32.2927 32.2916L33.6902 32.9904C34.0761 32.2185 33.7633 31.28 32.9914 30.8941C32.2228 30.5097 31.2888 30.8184 30.9 31.5832L30.8941 31.5942C30.8861 31.609 30.8704 31.6374 30.8468 31.6774C30.7996 31.7575 30.7214 31.8833 30.6107 32.0395C30.3882 32.3536 30.0421 32.7803 29.5619 33.2071C28.6147 34.0491 27.1477 34.8958 25.001 34.8958C22.8543 34.8958 21.3873 34.0491 20.4401 33.2071C19.9599 32.7803 19.6138 32.3536 19.3913 32.0395C19.2806 31.8833 19.2024 31.7575 19.1552 31.6774C19.1316 31.6374 19.1159 31.609 19.1079 31.5942L19.102 31.5832ZM30.9003 31.5825C30.9004 31.5825 30.9004 31.5825 30.9003 31.5825L30.9003 31.5825Z" fill="#6BA7FA"/>
<path fill-rule="evenodd" clip-rule="evenodd" d="M13.1278 18.9635C13.8928 17.7396 15.3476 16.1458 17.7081 16.1458C20.0685 16.1458 21.5233 17.7396 22.2883 18.9635C22.6846 19.5976 22.9551 20.2192 23.1261 20.6752C23.2126 20.9058 23.276 21.1005 23.319 21.242C23.3405 21.3129 23.357 21.3709 23.3688 21.4138L23.3831 21.4668L23.3877 21.4845L23.3893 21.491L23.39 21.4937C23.3901 21.4942 23.3906 21.496 21.8747 21.8749L23.3906 21.496C23.5999 22.3331 23.0909 23.1815 22.2537 23.3908C21.4172 23.5999 20.5696 23.0919 20.3594 22.2559L20.3602 22.2591L20.3557 22.2424C20.3507 22.2243 20.3418 22.1928 20.3287 22.1498C20.3025 22.0634 20.2601 21.9326 20.2001 21.7725C20.0782 21.4473 19.893 21.0272 19.6383 20.6197C19.1011 19.7603 18.4726 19.2708 17.7081 19.2708C16.9435 19.2708 16.315 19.7603 15.7778 20.6197C15.5231 21.0272 15.338 21.4473 15.216 21.7725C15.156 21.9326 15.1136 22.0634 15.0874 22.1498C15.0743 22.1928 15.0654 22.2243 15.0604 22.2424L15.0559 22.2591L15.0568 22.2558C14.847 23.0924 13.9993 23.6 13.1624 23.3908C12.3252 23.1815 11.8162 22.3331 12.0255 21.496L13.5414 21.8749C12.0255 21.496 12.0254 21.4965 12.0255 21.496L12.0261 21.4937L12.0268 21.491L12.0284 21.4845L12.033 21.4668L12.0473 21.4138C12.0591 21.3709 12.0756 21.3129 12.0971 21.242C12.1401 21.1005 12.2035 20.9058 12.29 20.6752C12.461 20.2192 12.7315 19.5976 13.1278 18.9635ZM15.0559 22.2591C15.0557 22.2601 15.0557 22.26 15.0559 22.2591V22.2591Z" fill="#6BA7FA"/>
<path fill-rule="evenodd" clip-rule="evenodd" d="M27.7118 18.9635C28.4768 17.7396 29.9316 16.1458 32.292 16.1458C34.6525 16.1458 36.1073 17.7396 36.8722 18.9635C37.2686 19.5976 37.5391 20.2192 37.7101 20.6752C37.7966 20.9058 37.86 21.1005 37.903 21.242C37.9245 21.3129 37.941 21.3709 37.9528 21.4138L37.9671 21.4668L37.9716 21.4845L37.9733 21.491L37.974 21.4937C37.9741 21.4942 37.9745 21.496 36.4587 21.8749L37.9745 21.496C38.1838 22.3331 37.6748 23.1815 36.8377 23.3908C36.0012 23.5999 35.1535 23.0919 34.9434 22.2559L34.9442 22.2591L34.9397 22.2424C34.9347 22.2243 34.9258 22.1928 34.9127 22.1498C34.8865 22.0634 34.8441 21.9326 34.7841 21.7725C34.6621 21.4473 34.4769 21.0272 34.2222 20.6197C33.6851 19.7603 33.0566 19.2708 32.292 19.2708C31.5275 19.2708 30.899 19.7603 30.3618 20.6197C30.1071 21.0272 29.9219 21.4473 29.8 21.7725C29.7399 21.9326 29.6976 22.0634 29.6714 22.1498C29.6583 22.1928 29.6494 22.2243 29.6444 22.2424L29.6399 22.2591L29.6407 22.2558C29.431 23.0924 28.5833 23.6 27.7464 23.3908C26.9092 23.1815 26.4002 22.3331 26.6095 21.496L28.1254 21.8749C26.6095 21.496 26.6094 21.4965 26.6095 21.496L26.6101 21.4937L26.6108 21.491L26.6124 21.4845L26.617 21.4668L26.6313 21.4138C26.6431 21.3709 26.6596 21.3129 26.6811 21.242C26.7241 21.1005 26.7875 20.9058 26.8739 20.6752C27.045 20.2192 27.3155 19.5976 27.7118 18.9635ZM29.6399 22.2591C29.6396 22.2601 29.6397 22.26 29.6399 22.2591V22.2591Z" fill="#6BA7FA"/>
</svg>
