<svg width="50" height="50" viewBox="0 0 50 50" fill="none" xmlns="http://www.w3.org/2000/svg">
<path fill-rule="evenodd" clip-rule="evenodd" d="M2.60547 25.0003C2.60547 12.6314 12.6324 2.60449 25.0013 2.60449C37.3702 2.60449 47.3971 12.6314 47.3971 25.0003C47.3971 37.3692 37.3702 47.3962 25.0013 47.3962C12.6324 47.3962 2.60547 37.3692 2.60547 25.0003ZM25.0013 5.72949C14.3583 5.72949 5.73047 14.3573 5.73047 25.0003C5.73047 35.6433 14.3583 44.2712 25.0013 44.2712C35.6443 44.2712 44.2721 35.6433 44.2721 25.0003C44.2721 14.3573 35.6443 5.72949 25.0013 5.72949Z" fill="#6BA7FA"/>
<path fill-rule="evenodd" clip-rule="evenodd" d="M19.102 31.5833C18.7131 30.8185 17.7792 30.5099 17.0106 30.8942C16.2387 31.2801 15.9259 32.2187 16.3118 32.9905L17.7093 32.2917C16.3118 32.9905 16.3121 32.9912 16.3125 32.9919L16.3133 32.9934L16.3149 32.9967L16.3189 33.0045L16.3293 33.0247L16.3601 33.0827C16.3851 33.1289 16.4193 33.1901 16.4629 33.264C16.5499 33.4117 16.6752 33.6115 16.8412 33.8459C17.1721 34.313 17.6723 34.928 18.364 35.5429C19.7605 36.7843 21.9393 38.0209 25.001 38.0209C28.0626 38.0209 30.2415 36.7843 31.638 35.5429C32.3297 34.928 32.8299 34.313 33.1608 33.8459C33.3268 33.6115 33.4521 33.4117 33.5391 33.264C33.5827 33.1901 33.6168 33.1289 33.6419 33.0827L33.6727 33.0247L33.6831 33.0045L33.6871 32.9967L33.6887 32.9934L33.6895 32.9919C33.6898 32.9912 33.6902 32.9905 32.2927 32.2917L33.6902 32.9905C34.0761 32.2187 33.7633 31.2801 32.9914 30.8942C32.2228 30.5099 31.2888 30.8185 30.9 31.5833L30.8941 31.5943C30.8861 31.6091 30.8704 31.6375 30.8468 31.6775C30.7996 31.7577 30.7214 31.8834 30.6107 32.0396C30.3882 32.3538 30.0421 32.7804 29.5619 33.2072C28.6147 34.0492 27.1477 34.8959 25.001 34.8959C22.8543 34.8959 21.3873 34.0492 20.4401 33.2072C19.9599 32.7804 19.6138 32.3538 19.3913 32.0396C19.2806 31.8834 19.2024 31.7577 19.1552 31.6775C19.1316 31.6375 19.1159 31.6091 19.1079 31.5943L19.102 31.5833ZM30.9003 31.5827C30.9004 31.5826 30.9004 31.5826 30.9003 31.5826L30.9003 31.5827Z" fill="#6BA7FA"/>
<path fill-rule="evenodd" clip-rule="evenodd" d="M32.291 17.1876C33.154 17.1876 33.8535 17.8872 33.8535 18.7501V22.9168C33.8535 23.7797 33.154 24.4793 32.291 24.4793C31.4281 24.4793 30.7285 23.7797 30.7285 22.9168V18.7501C30.7285 17.8872 31.4281 17.1876 32.291 17.1876Z" fill="#6BA7FA"/>
<path fill-rule="evenodd" clip-rule="evenodd" d="M17.709 17.1876C18.5719 17.1876 19.2715 17.8872 19.2715 18.7501V22.9168C19.2715 23.7797 18.5719 24.4793 17.709 24.4793C16.846 24.4793 16.1465 23.7797 16.1465 22.9168V18.7501C16.1465 17.8872 16.846 17.1876 17.709 17.1876Z" fill="#6BA7FA"/>
</svg>
