<svg width="50" height="50" viewBox="0 0 50 50" fill="none" xmlns="http://www.w3.org/2000/svg">
<path fill-rule="evenodd" clip-rule="evenodd" d="M2.60547 21.8753C2.60547 11.2324 11.2334 2.60449 21.8763 2.60449C32.5192 2.60449 41.1471 11.2324 41.1471 21.8753C41.1471 32.5183 32.5192 41.1462 21.8763 41.1462C11.2334 41.1462 2.60547 32.5183 2.60547 21.8753ZM21.8763 5.72949C12.9592 5.72949 5.73047 12.9583 5.73047 21.8753C5.73047 30.7924 12.9592 38.0212 21.8763 38.0212C30.7934 38.0212 38.0221 30.7924 38.0221 21.8753C38.0221 12.9583 30.7934 5.72949 21.8763 5.72949Z" fill="#6BA7FA"/>
<path fill-rule="evenodd" clip-rule="evenodd" d="M14.8776 13.8358C16.6668 12.0468 19.1428 10.9375 21.875 10.9375C24.6072 10.9375 27.0833 12.0468 28.8724 13.8359C29.4826 14.4461 29.4826 15.4354 28.8724 16.0456C28.2622 16.6558 27.2729 16.6558 26.6627 16.0456C25.4357 14.8186 23.7451 14.0625 21.875 14.0625C20.0049 14.0625 18.3143 14.8186 17.0872 16.0456C16.477 16.6558 15.4877 16.6558 14.8775 16.0455C14.2674 15.4353 14.2674 14.446 14.8776 13.8358Z" fill="#6BA7FA"/>
<path fill-rule="evenodd" clip-rule="evenodd" d="M33.5006 33.5011C34.1108 32.8909 35.1001 32.8909 35.7103 33.5011L44.5492 42.34C45.1594 42.9502 45.1594 43.9395 44.5492 44.5497C43.939 45.1599 42.9497 45.1599 42.3395 44.5497L33.5006 35.7108C32.8904 35.1006 32.8904 34.1113 33.5006 33.5011Z" fill="#6BA7FA"/>
</svg>
