<svg width="50" height="50" viewBox="0 0 50 50" fill="none" xmlns="http://www.w3.org/2000/svg">
<path fill-rule="evenodd" clip-rule="evenodd" d="M4.46898 16.0412C7.92349 8.13465 15.8144 2.60425 25.0006 2.60425C34.1868 2.60425 42.0777 8.13465 45.5322 16.0412C45.8777 16.8319 45.5167 17.7531 44.726 18.0986C43.9352 18.444 43.0141 18.0831 42.6686 17.2923C39.6935 10.483 32.9005 5.72925 25.0006 5.72925C17.1007 5.72925 10.3077 10.483 7.33259 17.2923C6.98709 18.0831 6.06597 18.444 5.2752 18.0985C4.48444 17.7531 4.12349 16.8319 4.46898 16.0412Z" fill="#6BA7FA"/>
<path fill-rule="evenodd" clip-rule="evenodd" d="M23.9062 13.4676C24.5138 12.872 25.4862 12.872 26.0938 13.4676C30.2382 17.5304 32.8125 23.1967 32.8125 29.4614C32.8125 30.021 32.7919 30.576 32.7515 31.1258C32.7238 31.5029 32.5603 31.8572 32.2913 32.1229C28.7525 35.6184 26.5625 40.4687 26.5625 45.8334C26.5625 46.6963 25.8629 47.3959 25 47.3959C24.1371 47.3959 23.4375 46.6963 23.4375 45.8334C23.4375 40.4687 21.2475 35.6184 17.7087 32.1229C17.4397 31.8572 17.2762 31.5029 17.2485 31.1258C17.2081 30.576 17.1875 30.021 17.1875 29.4614C17.1875 23.1967 19.7618 17.5304 23.9062 13.4676ZM25 37.5995C26.078 34.8744 27.6749 32.4113 29.6682 30.333C29.681 30.0441 29.6875 29.7535 29.6875 29.4614C29.6875 24.6447 27.922 20.2426 25 16.8635C22.078 20.2426 20.3125 24.6447 20.3125 29.4614C20.3125 29.7535 20.319 30.0441 20.3318 30.333C22.3251 32.4113 23.922 34.8744 25 37.5995Z" fill="#6BA7FA"/>
<path fill-rule="evenodd" clip-rule="evenodd" d="M2.60352 25C2.60352 24.1371 3.30307 23.4375 4.16602 23.4375C10.3002 23.4375 15.861 25.9057 19.9042 29.8996L18.8061 31.0113L19.9042 29.8996C24.0129 33.9581 26.5619 39.5995 26.5619 45.8333C26.5619 46.6963 25.8623 47.3958 24.9994 47.3958C12.6305 47.3958 2.60352 37.3689 2.60352 25ZM5.79652 26.6305C6.5792 35.9729 14.0265 43.4201 23.3689 44.2028C22.9743 39.4898 20.8846 35.2605 17.7081 32.1229L17.7081 32.1229C14.5883 29.0411 10.4258 27.018 5.79652 26.6305Z" fill="#6BA7FA"/>
<path fill-rule="evenodd" clip-rule="evenodd" d="M44.2028 26.6305C39.5735 27.018 35.4111 29.0411 32.2913 32.1229L32.2913 32.1229C29.1148 35.2605 27.025 39.4898 26.6305 44.2028C35.9729 43.4201 43.4201 35.9729 44.2028 26.6305ZM30.0952 29.8996C34.1383 25.9057 39.6992 23.4375 45.8333 23.4375C46.6963 23.4375 47.3958 24.1371 47.3958 25C47.3958 37.3689 37.3689 47.3958 25 47.3958C24.1371 47.3958 23.4375 46.6963 23.4375 45.8333C23.4375 39.5995 25.9864 33.9581 30.0952 29.8996ZM30.0952 29.8996L31.1932 31.0113L30.0952 29.8996Z" fill="#6BA7FA"/>
</svg>
